<svg width="20" height="25" viewBox="0 0 20 25" fill="none" xmlns="http://www.w3.org/2000/svg">
<mask id="path-1-inside-1_37_45" fill="white">
<path d="M0.459779 22.5878C1.91764 23.5902 3.59762 24.2424 5.37736 24.497C7.15709 24.7516 8.99175 24.6021 10.7477 24.0595C12.5036 23.5168 14.1366 22.5947 15.5277 21.3602C16.9188 20.1257 18.033 18.61 18.789 16.9234C19.5451 15.2368 19.924 13.4219 19.8982 11.6109C19.8724 9.79984 19.4425 8.03826 18.6398 6.45447C17.8372 4.87068 16.6819 3.50456 15.2583 2.45564C13.8346 1.40672 12.1785 0.701406 10.4104 0.391082L9.86417 2.82162C11.2748 3.06921 12.5962 3.63194 13.7321 4.46883C14.8679 5.30571 15.7896 6.39566 16.4301 7.65929C17.0705 8.92292 17.4135 10.3284 17.4341 11.7733C17.4547 13.2183 17.1523 14.6663 16.5491 16.0119C15.9459 17.3575 15.0569 18.5669 13.9471 19.5518C12.8372 20.5367 11.5343 21.2725 10.1333 21.7054C8.73233 22.1384 7.26854 22.2576 5.84858 22.0545C4.42862 21.8514 3.08825 21.331 1.92509 20.5313L0.459779 22.5878Z"/>
</mask>
<path d="M0.459779 22.5878C1.91764 23.5902 3.59762 24.2424 5.37736 24.497C7.15709 24.7516 8.99175 24.6021 10.7477 24.0595C12.5036 23.5168 14.1366 22.5947 15.5277 21.3602C16.9188 20.1257 18.033 18.61 18.789 16.9234C19.5451 15.2368 19.924 13.4219 19.8982 11.6109C19.8724 9.79984 19.4425 8.03826 18.6398 6.45447C17.8372 4.87068 16.6819 3.50456 15.2583 2.45564C13.8346 1.40672 12.1785 0.701406 10.4104 0.391082L9.86417 2.82162C11.2748 3.06921 12.5962 3.63194 13.7321 4.46883C14.8679 5.30571 15.7896 6.39566 16.4301 7.65929C17.0705 8.92292 17.4135 10.3284 17.4341 11.7733C17.4547 13.2183 17.1523 14.6663 16.5491 16.0119C15.9459 17.3575 15.0569 18.5669 13.9471 19.5518C12.8372 20.5367 11.5343 21.2725 10.1333 21.7054C8.73233 22.1384 7.26854 22.2576 5.84858 22.0545C4.42862 21.8514 3.08825 21.331 1.92509 20.5313L0.459779 22.5878Z" fill="white" stroke="white" stroke-width="2" mask="url(#path-1-inside-1_37_45)"/>
</svg>
