<svg width="20" height="25" viewBox="0 0 20 25" fill="none" xmlns="http://www.w3.org/2000/svg">
<mask id="path-1-inside-1_37_46" fill="white">
<path d="M19.7435 2.56551C18.2933 1.55194 16.6183 0.88679 14.8405 0.618508C13.0627 0.350226 11.227 0.485569 9.46702 1.01468C7.70703 1.54379 6.06711 2.45334 4.66673 3.67708C3.26634 4.90082 2.14076 6.40792 1.37197 8.0886C0.603179 9.76928 0.210545 11.5812 0.222669 13.3924C0.234793 15.2036 0.65137 16.9684 1.44205 18.5584C2.23274 20.1483 3.37761 21.5233 4.79328 22.5831C6.20896 23.643 7.85977 24.361 9.62547 24.685L10.19 22.2587C8.78125 22.0003 7.46415 21.4274 6.33466 20.5818C5.20516 19.7361 4.29172 18.6391 3.66088 17.3706C3.03003 16.1021 2.69766 14.694 2.68799 13.2489C2.67832 11.8039 2.99158 10.3582 3.60496 9.0173C4.21834 7.67636 5.11639 6.47392 6.23368 5.49756C7.35098 4.5212 8.65939 3.79552 10.0636 3.37337C11.4678 2.95122 12.9324 2.84323 14.3508 3.05728C15.7692 3.27133 17.1056 3.80202 18.2627 4.6107L19.7435 2.56551Z"/>
</mask>
<path d="M19.7435 2.56551C18.2933 1.55194 16.6183 0.88679 14.8405 0.618508C13.0627 0.350226 11.227 0.485569 9.46702 1.01468C7.70703 1.54379 6.06711 2.45334 4.66673 3.67708C3.26634 4.90082 2.14076 6.40792 1.37197 8.0886C0.603179 9.76928 0.210545 11.5812 0.222669 13.3924C0.234793 15.2036 0.65137 16.9684 1.44205 18.5584C2.23274 20.1483 3.37761 21.5233 4.79328 22.5831C6.20896 23.643 7.85977 24.361 9.62547 24.685L10.19 22.2587C8.78125 22.0003 7.46415 21.4274 6.33466 20.5818C5.20516 19.7361 4.29172 18.6391 3.66088 17.3706C3.03003 16.1021 2.69766 14.694 2.68799 13.2489C2.67832 11.8039 2.99158 10.3582 3.60496 9.0173C4.21834 7.67636 5.11639 6.47392 6.23368 5.49756C7.35098 4.5212 8.65939 3.79552 10.0636 3.37337C11.4678 2.95122 12.9324 2.84323 14.3508 3.05728C15.7692 3.27133 17.1056 3.80202 18.2627 4.6107L19.7435 2.56551Z" fill="white" stroke="white" stroke-width="2" mask="url(#path-1-inside-1_37_46)"/>
</svg>
