<svg width="20" height="25" viewBox="0 0 20 25" fill="none" xmlns="http://www.w3.org/2000/svg">
<mask id="path-1-inside-1_51_1779" fill="white">
<path d="M19.7434 2.56551C18.2932 1.55194 16.6182 0.88679 14.8404 0.618508C13.0627 0.350226 11.2269 0.485569 9.46693 1.01468C7.70694 1.54379 6.06702 2.45334 4.66664 3.67708C3.26625 4.90082 2.14067 6.40792 1.37188 8.0886C0.603087 9.76928 0.210453 11.5812 0.222578 13.3924C0.234702 15.2036 0.651278 16.9684 1.44196 18.5584C2.23264 20.1483 3.37752 21.5233 4.79319 22.5831C6.20886 23.643 7.85968 24.361 9.62538 24.685L10.1899 22.2587C8.78116 22.0003 7.46406 21.4274 6.33457 20.5818C5.20507 19.7361 4.29163 18.6391 3.66079 17.3706C3.02994 16.1021 2.69757 14.694 2.6879 13.2489C2.67823 11.8039 2.99149 10.3582 3.60487 9.0173C4.21825 7.67636 5.11629 6.47392 6.23359 5.49756C7.35089 4.5212 8.6593 3.79552 10.0635 3.37337C11.4677 2.95122 12.9324 2.84323 14.3507 3.05728C15.7691 3.27133 17.1055 3.80202 18.2626 4.6107L19.7434 2.56551Z"/>
</mask>
<path d="M19.7434 2.56551C18.2932 1.55194 16.6182 0.88679 14.8404 0.618508C13.0627 0.350226 11.2269 0.485569 9.46693 1.01468C7.70694 1.54379 6.06702 2.45334 4.66664 3.67708C3.26625 4.90082 2.14067 6.40792 1.37188 8.0886C0.603087 9.76928 0.210453 11.5812 0.222578 13.3924C0.234702 15.2036 0.651278 16.9684 1.44196 18.5584C2.23264 20.1483 3.37752 21.5233 4.79319 22.5831C6.20886 23.643 7.85968 24.361 9.62538 24.685L10.1899 22.2587C8.78116 22.0003 7.46406 21.4274 6.33457 20.5818C5.20507 19.7361 4.29163 18.6391 3.66079 17.3706C3.02994 16.1021 2.69757 14.694 2.6879 13.2489C2.67823 11.8039 2.99149 10.3582 3.60487 9.0173C4.21825 7.67636 5.11629 6.47392 6.23359 5.49756C7.35089 4.5212 8.6593 3.79552 10.0635 3.37337C11.4677 2.95122 12.9324 2.84323 14.3507 3.05728C15.7691 3.27133 17.1055 3.80202 18.2626 4.6107L19.7434 2.56551Z" fill="white" stroke="white" stroke-width="2" mask="url(#path-1-inside-1_51_1779)"/>
</svg>
