<svg width="20" height="25" viewBox="0 0 20 25" fill="none" xmlns="http://www.w3.org/2000/svg">
<mask id="path-1-inside-1_51_1334" fill="white">
<path d="M19.7434 2.5655C18.2932 1.55193 16.6182 0.886783 14.8404 0.6185C13.0627 0.350218 11.2269 0.485562 9.46693 1.01467C7.70694 1.54378 6.06702 2.45334 4.66664 3.67707C3.26625 4.90081 2.14067 6.40791 1.37188 8.08859C0.603087 9.76928 0.210453 11.5812 0.222578 13.3924C0.234702 15.2036 0.651278 16.9684 1.44196 18.5584C2.23264 20.1483 3.37752 21.5233 4.79319 22.5831C6.20886 23.643 7.85968 24.361 9.62538 24.685L10.1899 22.2587C8.78116 22.0002 7.46406 21.4274 6.33457 20.5817C5.20507 19.7361 4.29163 18.6391 3.66079 17.3706C3.02994 16.1021 2.69757 14.694 2.6879 13.2489C2.67823 11.8039 2.99149 10.3582 3.60487 9.01729C4.21825 7.67636 5.11629 6.47391 6.23359 5.49756C7.35089 4.5212 8.6593 3.79551 10.0635 3.37336C11.4677 2.95121 12.9324 2.84322 14.3507 3.05727C15.7691 3.27132 17.1055 3.80201 18.2626 4.61069L19.7434 2.5655Z"/>
</mask>
<path d="M19.7434 2.5655C18.2932 1.55193 16.6182 0.886783 14.8404 0.6185C13.0627 0.350218 11.2269 0.485562 9.46693 1.01467C7.70694 1.54378 6.06702 2.45334 4.66664 3.67707C3.26625 4.90081 2.14067 6.40791 1.37188 8.08859C0.603087 9.76928 0.210453 11.5812 0.222578 13.3924C0.234702 15.2036 0.651278 16.9684 1.44196 18.5584C2.23264 20.1483 3.37752 21.5233 4.79319 22.5831C6.20886 23.643 7.85968 24.361 9.62538 24.685L10.1899 22.2587C8.78116 22.0002 7.46406 21.4274 6.33457 20.5817C5.20507 19.7361 4.29163 18.6391 3.66079 17.3706C3.02994 16.1021 2.69757 14.694 2.6879 13.2489C2.67823 11.8039 2.99149 10.3582 3.60487 9.01729C4.21825 7.67636 5.11629 6.47391 6.23359 5.49756C7.35089 4.5212 8.6593 3.79551 10.0635 3.37336C11.4677 2.95121 12.9324 2.84322 14.3507 3.05727C15.7691 3.27132 17.1055 3.80201 18.2626 4.61069L19.7434 2.5655Z" fill="white" stroke="white" stroke-width="2" mask="url(#path-1-inside-1_51_1334)"/>
</svg>
