<svg width="20" height="25" viewBox="0 0 20 25" fill="none" xmlns="http://www.w3.org/2000/svg">
<mask id="path-1-inside-1_51_1778" fill="white">
<path d="M0.459657 22.5878C1.91751 23.5901 3.5975 24.2424 5.37723 24.497C7.15697 24.7515 8.99163 24.6021 10.7476 24.0594C12.5035 23.5168 14.1365 22.5946 15.5276 21.3601C16.9187 20.1256 18.0329 18.6099 18.7889 16.9234C19.545 15.2368 19.9239 13.4219 19.8981 11.6109C19.8723 9.79981 19.4424 8.03823 18.6397 6.45444C17.837 4.87064 16.6818 3.50453 15.2582 2.45561C13.8345 1.40669 12.1783 0.701375 10.4102 0.391052L9.86404 2.82159C11.2747 3.06918 12.5961 3.63191 13.732 4.4688C14.8678 5.30568 15.7895 6.39563 16.4299 7.65926C17.0703 8.92289 17.4133 10.3284 17.4339 11.7733C17.4545 13.2183 17.1522 14.6663 16.549 16.0119C15.9457 17.3575 15.0568 18.5668 13.9469 19.5518C12.837 20.5367 11.5342 21.2724 10.1332 21.7054C8.73221 22.1384 7.26842 22.2576 5.84846 22.0545C4.4285 21.8514 3.08812 21.331 1.92497 20.5312L0.459657 22.5878Z"/>
</mask>
<path d="M0.459657 22.5878C1.91751 23.5901 3.5975 24.2424 5.37723 24.497C7.15697 24.7515 8.99163 24.6021 10.7476 24.0594C12.5035 23.5168 14.1365 22.5946 15.5276 21.3601C16.9187 20.1256 18.0329 18.6099 18.7889 16.9234C19.545 15.2368 19.9239 13.4219 19.8981 11.6109C19.8723 9.79981 19.4424 8.03823 18.6397 6.45444C17.837 4.87064 16.6818 3.50453 15.2582 2.45561C13.8345 1.40669 12.1783 0.701375 10.4102 0.391052L9.86404 2.82159C11.2747 3.06918 12.5961 3.63191 13.732 4.4688C14.8678 5.30568 15.7895 6.39563 16.4299 7.65926C17.0703 8.92289 17.4133 10.3284 17.4339 11.7733C17.4545 13.2183 17.1522 14.6663 16.549 16.0119C15.9457 17.3575 15.0568 18.5668 13.9469 19.5518C12.837 20.5367 11.5342 21.2724 10.1332 21.7054C8.73221 22.1384 7.26842 22.2576 5.84846 22.0545C4.4285 21.8514 3.08812 21.331 1.92497 20.5312L0.459657 22.5878Z" fill="white" stroke="white" stroke-width="2" mask="url(#path-1-inside-1_51_1778)"/>
</svg>
