<svg width="20" height="25" viewBox="0 0 20 25" fill="none" xmlns="http://www.w3.org/2000/svg">
<mask id="path-1-inside-1_51_1997" fill="white">
<path d="M19.7437 2.5655C18.2934 1.55193 16.6184 0.886783 14.8407 0.6185C13.0629 0.350218 11.2272 0.485562 9.46717 1.01467C7.70718 1.54378 6.06727 2.45334 4.66688 3.67707C3.2665 4.90081 2.14091 6.40791 1.37212 8.08859C0.603331 9.76928 0.210698 11.5812 0.222822 13.3924C0.234946 15.2036 0.651522 16.9684 1.44221 18.5584C2.23289 20.1483 3.37777 21.5233 4.79344 22.5831C6.20911 23.643 7.85992 24.361 9.62562 24.685L10.1902 22.2587C8.7814 22.0002 7.4643 21.4274 6.33481 20.5817C5.20532 19.7361 4.29188 18.6391 3.66103 17.3706C3.03018 16.1021 2.69782 14.694 2.68814 13.2489C2.67847 11.8039 2.99173 10.3582 3.60511 9.01729C4.21849 7.67636 5.11654 6.47391 6.23384 5.49756C7.35113 4.5212 8.65954 3.79551 10.0637 3.37336C11.468 2.95121 12.9326 2.84322 14.351 3.05727C15.7694 3.27132 17.1058 3.80201 18.2628 4.61069L19.7437 2.5655Z"/>
</mask>
<path d="M19.7437 2.5655C18.2934 1.55193 16.6184 0.886783 14.8407 0.6185C13.0629 0.350218 11.2272 0.485562 9.46717 1.01467C7.70718 1.54378 6.06727 2.45334 4.66688 3.67707C3.2665 4.90081 2.14091 6.40791 1.37212 8.08859C0.603331 9.76928 0.210698 11.5812 0.222822 13.3924C0.234946 15.2036 0.651522 16.9684 1.44221 18.5584C2.23289 20.1483 3.37777 21.5233 4.79344 22.5831C6.20911 23.643 7.85992 24.361 9.62562 24.685L10.1902 22.2587C8.7814 22.0002 7.4643 21.4274 6.33481 20.5817C5.20532 19.7361 4.29188 18.6391 3.66103 17.3706C3.03018 16.1021 2.69782 14.694 2.68814 13.2489C2.67847 11.8039 2.99173 10.3582 3.60511 9.01729C4.21849 7.67636 5.11654 6.47391 6.23384 5.49756C7.35113 4.5212 8.65954 3.79551 10.0637 3.37336C11.468 2.95121 12.9326 2.84322 14.351 3.05727C15.7694 3.27132 17.1058 3.80201 18.2628 4.61069L19.7437 2.5655Z" fill="white" stroke="white" stroke-width="2" mask="url(#path-1-inside-1_51_1997)"/>
</svg>
