<svg width="100" height="90" viewBox="0 0 100 90" fill="none" xmlns="http://www.w3.org/2000/svg">
<g filter="url(#filter0_d_19_324)">
<path d="M65.7917 38.5496C65.6461 37.6355 65.2868 36.7188 66.0209 35.7201C67.2443 36.7674 68.8982 37.4511 70.0783 39.0003C69.6911 37.0491 68.5544 35.9198 66.662 35.4461C64.3236 34.8623 62.6944 33.454 60.4675 32.2044C61.725 32.2044 62.6139 32.2044 63.8528 32.2044C62.4033 31.2185 61.1551 30.4324 60.483 29.2315C59.8016 28.0152 59.4609 26.7656 59.9379 25.2523C60.994 26.0537 61.948 26.7733 62.9298 27.5184C63.3727 26.4404 63.3851 25.242 64.5063 24.3637C66.0085 26.7349 65.3612 29.4645 66.4204 31.8945C66.151 30.2455 66.4824 28.6963 67.1421 27.0524C68.7155 28.1867 69.4805 29.5592 69.5084 31.2416C69.5393 32.9726 69.8522 34.6651 70.5893 36.624C71.0322 35.0723 70.7566 33.7382 71.4318 32.4195C73.5781 34.3246 74.3215 36.5728 74.275 38.99C74.2286 41.3714 72.9184 43.5787 72.553 46.1624C73.6215 45.0972 74.4113 44.1344 75.1392 42.8668C76.09 45.6477 75.5232 48.0547 74.3122 50.4386C73.0547 52.9122 69.9451 53.7751 67.6593 55.6726C68.9571 55.6726 69.9884 55.6726 71.2676 55.6726C69.6106 57.7134 67.9783 59.4674 64.8594 59.7107C61.1427 60 57.457 60.4558 53.6969 61.3853C54.5487 61.8974 55.3013 62.3917 56.1035 62.8218C57.1411 63.3801 56.6889 63.7155 55.8836 63.9946C54.781 64.3787 53.7372 64.5195 52.8762 63.5542C52.551 63.1906 52.0275 62.9524 51.6156 62.64C50.7917 62.0204 49.9586 62.0665 49.113 62.5914C48.7042 62.8449 48.3077 63.1138 47.9144 63.3852C46.2047 64.5579 45.7184 64.5682 43.6743 63.3749C44.7397 62.722 45.7649 62.0895 46.8799 61.4084C43.3119 60.4405 39.7346 60.0282 36.1449 59.7619C32.9113 59.5212 31.0747 57.8542 29.3836 55.6982C30.5822 55.6982 31.6167 55.6982 32.6512 55.6982C32.7843 55.6239 32.9175 55.5496 33.0507 55.4754C26.9863 52.7355 23.8364 48.8536 25.4501 42.895C26.2399 44.1215 26.9894 45.1535 28.0518 46.2059C27.7978 43.9423 26.7416 41.986 26.4319 39.9093C26.02 37.1464 26.9151 34.6779 29.1265 32.3939C30.0061 33.687 29.4207 35.0262 30.0433 36.4627C30.8703 34.6907 31.0592 33.0468 31.1118 31.4131C31.1676 29.7103 31.818 28.2994 33.4874 27.037C34.0821 28.6835 34.5776 30.184 33.8467 31.8459C34.8936 31.2953 34.9462 31.2953 34.8998 30.3761C34.8007 28.3301 35.2002 26.3585 36.0303 24.3202C37.2877 25.2087 37.3063 26.4404 37.6563 27.6157C38.7682 26.8859 39.3815 25.8771 40.7567 25.4136C41.3018 28.3173 39.8368 30.3889 36.8758 32.1019C37.9444 32.1019 38.7342 32.1019 39.5209 32.1019C38.1271 33.477 36.5847 34.6114 34.5931 35.2592C33.5463 36.1657 31.8707 36.5011 31.3008 37.6918C32.0069 37.0491 32.9733 36.4986 33.8498 35.8661C34.1131 35.6766 34.4847 35.3668 34.8533 35.8123C34.9431 36.3577 35.0329 36.9031 35.1259 37.4485C35.0515 38.1015 35.0206 38.7647 34.5188 39.3204C34.0449 39.9247 33.602 40.5597 32.8618 40.9745C30.4459 42.3291 29.7986 44.2726 30.1176 46.5413C30.1765 46.9536 30.2725 47.3633 30.2849 47.6988C30.1393 46.6387 30.449 45.5171 30.5357 44.3879C30.6008 43.5147 31.245 43.3457 32.106 43.9116C32.8587 44.4058 33.2489 45.1176 33.5339 45.8423C34.2308 47.6143 34.3887 49.4067 33.6175 51.2017C33.3914 51.7266 33.3202 52.2746 33.3511 52.8277C33.3573 53.0735 33.3357 53.3219 33.4286 53.5652C33.3449 53.1068 33.3418 52.6433 33.3666 52.1799C33.7352 50.9764 34.079 50.833 35.321 51.4091C37.1236 52.2439 38.0559 53.6778 38.9355 55.1246C39.3288 55.7699 39.7346 56.4049 40.193 57.0246C41.0013 58.118 42.1318 58.7223 43.6743 58.899C45.3034 59.0884 46.9171 59.3547 48.4998 59.7414C49.2431 59.9232 50.0174 60.0768 50.7824 59.9488C53.1983 59.5417 55.6141 59.1294 58.0207 58.6864C59.3401 58.4432 60.1423 57.5162 60.7401 56.5534C61.4462 55.4191 62.171 54.2949 62.9515 53.1939C63.0258 53.0761 63.1188 52.966 63.2179 52.861C63.8776 52.2208 64.6612 51.7087 65.5594 51.322C66.5381 50.8995 67.2071 51.0301 67.3093 52.0569C67.3 52.7201 67.4456 53.4141 66.9315 53.8033C67.5881 53.1427 67.3713 52.2413 67.1297 51.3374C66.1602 49.6115 66.5226 47.8626 66.981 46.1112C67.2969 45.4403 67.6531 44.7822 68.2044 44.2163C68.5389 43.8757 68.9633 43.6145 69.5362 43.7707C70.0659 43.9141 70.1433 44.3264 70.1526 44.7079C70.1898 45.8884 70.2672 47.0637 70.3849 48.2416C70.357 47.6808 70.4468 47.1277 70.5305 46.5721C70.8712 44.3213 70.2734 42.3829 67.8792 40.9925C66.9191 40.4368 66.0302 39.771 65.7762 38.734C65.7762 38.6776 65.7824 38.6136 65.7917 38.5496Z" fill="#FEFEFE"/>
<path d="M39.2328 64.3019C46.4618 66.0764 53.7062 66.0329 60.96 64.4018C61.2046 64.3454 61.4555 64.307 61.7064 64.2609C62.9887 63.2776 63.5647 64.3864 64.3545 64.8678C65.1877 65.6898 66.3677 66.2915 66.7487 67.4079C67.7677 68.2914 67.4239 68.7011 66.1262 69.1441C54.9482 72.9543 43.9034 72.7033 32.8989 68.6294C33.1622 68.1659 33.379 67.7895 33.5927 67.4105C34.336 66.1891 35.5192 65.2647 36.6528 64.307C37.5107 63.6925 38.3718 63.7104 39.2328 64.3019Z" fill="#FEFD00"/>
<path d="M66.7457 67.4078C65.9094 66.6703 65.0701 65.9329 64.2338 65.1954C63.6453 64.4554 63.2055 63.4849 61.7467 64.1123C60.4738 63.9049 61.1954 63.6155 61.7188 63.3902C64.0944 62.371 66.2687 61.101 68.4492 59.8309C72.4508 57.4956 75.6038 54.5355 78.0785 51.0556C78.2829 50.7688 78.3387 49.9059 79.1718 50.4974C81.4328 52.1029 83.9044 51.8878 86.726 50.9378C85.546 53.5164 83.9756 55.5546 82.1669 57.4828C78.3665 61.5337 73.6123 64.6346 68.1704 67.0391C67.7337 67.2311 67.3125 67.5307 66.7457 67.4078Z" fill="#FEFD00"/>
<path d="M36.7331 64.6834C35.519 65.4618 34.8996 66.7088 33.5925 67.413C30.836 66.6346 28.5254 65.2211 26.249 63.7948C21.3677 60.7323 17.3815 57.0245 14.6869 52.4307C14.4423 52.0134 14.2317 51.5832 14.0056 51.1581C14.3803 50.9533 14.7396 51.025 15.0555 51.1299C17.174 51.8392 19.178 51.8905 21.0301 50.5743C21.5535 50.203 22.0305 50.1134 22.4703 50.7945C25.9764 56.2256 31.4492 59.9718 37.8017 62.9549C38.9879 63.5132 38.9879 63.5132 39.2233 64.0739C38.3902 64.2609 37.1605 63.3442 36.7331 64.6834Z" fill="#FEFD00"/>
<path d="M35.2404 38.1295C37.5386 34.7034 40.7566 32.1684 45.3808 31.0238C53.096 29.1136 60.867 31.6947 64.8779 37.4587C65.1412 37.8376 65.197 38.3549 65.7916 38.5495L65.7576 38.5136C67.2102 40.7798 67.8792 43.1586 67.2442 45.7192C66.7704 46.7998 66.8819 47.9803 66.4204 49.0686C65.7607 50.6203 64.6023 51.9006 63.286 53.099L63.3169 53.0708C58.2777 59.2061 45.8949 60.2969 38.9076 54.6584C37.201 53.2834 35.4913 51.7649 34.6829 49.8495C33.2458 46.4362 32.3724 42.9614 34.3205 39.4457C34.6612 39.0258 34.7944 38.5034 35.2404 38.1295Z" fill="#FDFDFD"/>
<path d="M31.747 73.9784C33.0509 74.0629 33.5496 74.7799 34.0018 75.5711C34.1566 75.8425 34.0854 76.516 34.8287 76.114C36.303 75.3125 37.7339 76.0935 39.1711 76.1677C40.0847 76.2138 40.7878 76.708 40.7754 77.5966C40.763 78.4493 40.187 78.905 39.2113 79.0868C38.9078 79.1432 38.406 78.9844 38.3906 79.4505C38.3813 79.8243 38.7591 79.8883 39.1122 79.9882C39.487 80.0957 40.1374 80.0573 39.8401 80.677C39.5985 81.1814 39.1401 80.8819 38.7963 80.8486C37.6937 80.7461 36.7645 80.467 37.0092 79.2891C37.13 78.7156 35.5349 78.4339 36.5229 77.8014C37.0835 77.4429 37.8578 77.9371 38.5423 78.0344C38.9078 78.0856 39.1246 77.909 39.2082 77.6401C39.2795 77.4148 39.1463 77.2534 38.9109 77.11C37.3158 76.1472 34.9898 76.8002 34.5655 78.3366C34.4354 78.8129 34.1876 79.243 33.5588 79.3506C32.9673 79.453 32.4407 79.3071 32.0753 78.8718C31.654 78.375 31.7253 77.8296 32.2115 77.4839C33.0819 76.8642 33.0633 76.2241 32.5832 75.4789C32.4407 75.2587 32.3292 75.0001 31.9514 74.995C31.654 74.9898 31.4744 75.1665 31.3691 75.3535C31.2173 75.6198 31.3784 75.9501 31.6478 75.9859C32.2766 76.0704 32.2611 76.329 32.0381 76.6722C31.7686 77.087 31.3041 76.9487 30.9603 76.8028C30.186 76.4724 29.8793 75.8937 30.1178 75.2075C30.3532 74.5187 30.8457 73.9938 31.747 73.9784Z" fill="#FCFCFC"/>
<path d="M39.5209 6.79251C37.7338 7.11515 36.402 6.52365 35.3086 5.39441C35.1073 5.187 34.8503 4.88228 34.4104 5.04872C33.8189 5.27406 34.3485 5.64535 34.2587 5.93726C34.1038 6.44939 35.1693 7.32513 33.5525 7.41987C32.8463 7.46084 32.5459 7.37634 32.4468 6.75666C32.2021 5.20236 31.8986 3.65574 31.5703 2.11168C31.4464 1.52273 31.5889 1.26667 32.3756 1.23594C33.4472 1.18985 34.5127 0.944032 35.5812 0.951714C37.2599 0.961957 38.2975 2.32421 37.3497 3.42528C36.5197 4.38808 37.0245 4.81827 37.8391 5.32271C38.3935 5.66584 38.7032 6.28807 39.5147 6.3444C39.6727 6.49036 39.6943 6.63888 39.5209 6.79251Z" fill="#FCFA01"/>
<path d="M71.0076 4.24478C70.9611 6.26 69.4435 7.66322 67.3559 7.62481C65.0516 7.58128 63.599 6.34706 63.6485 4.4778C63.7012 2.47026 65.2529 1.03375 67.3125 1.08752C69.6479 1.14898 71.0509 2.34991 71.0076 4.24478Z" fill="#FCFA01"/>
<path d="M9.85843 8.47239C9.16464 8.4391 8.60404 8.35716 8.05273 8.39813C6.58464 8.50568 5.66786 9.47104 5.91564 10.5824C6.22846 11.9753 7.51691 12.7845 8.96023 12.4516C9.27305 12.3799 9.84914 12.3978 9.65711 11.8729C9.52702 11.5195 9.45579 11.0074 8.79298 11.2456C8.10539 11.4914 7.7585 11.3992 7.58815 10.7846C7.38683 10.0651 8.19521 10.1189 8.5359 10.0753C9.26685 9.9806 10.0721 8.84112 10.7907 10.0677C11.9615 12.0675 11.9026 12.4414 10.3416 13.2096C8.60714 14.0648 6.80145 14.0776 5.58423 13.2428C4.29268 12.3594 3.66704 10.6694 4.17808 9.44543C4.70461 8.18304 6.61561 7.16647 8.46157 7.16391C9.35048 7.16135 9.35048 7.16135 9.85843 8.47239Z" fill="#FDFB01"/>
<path d="M18.528 9.10736C18.5125 10.316 17.5461 11.1533 15.9077 11.4478C14.229 11.7499 13.0458 11.3505 12.4914 10.1675C11.9587 9.02798 11.5994 7.83216 11.0791 6.68756C10.788 6.04484 11.2835 5.99619 11.7605 5.85535C12.2684 5.70428 12.6897 5.58905 12.9065 6.21128C13.2719 7.26626 13.7396 8.29564 14.1423 9.34293C14.4148 10.0497 14.8949 10.4594 15.8427 10.1854C16.7192 9.93188 16.7842 9.36854 16.5426 8.7335C16.1617 7.72462 15.8024 6.71061 15.3626 5.71964C15.1179 5.16655 15.1798 4.91816 15.9418 4.73124C16.6046 4.56992 16.9608 4.54431 17.1776 5.16142C17.574 6.29578 18.0386 7.41478 18.4536 8.54402C18.5311 8.74631 18.5125 8.96652 18.528 9.10736Z" fill="#FDFA01"/>
<path d="M24.9544 8.84355C25.2238 6.8437 25.5212 4.8797 25.7411 2.91057C25.8278 2.13726 26.5897 2.31907 27.0884 2.12702C27.6923 1.89656 27.999 2.17823 28.2901 2.59562C29.2874 4.02189 30.3405 5.42255 31.3254 6.85651C31.4927 7.10233 32.2143 7.47618 31.4245 7.73992C30.9259 7.90636 30.3188 8.17011 29.7582 7.62725C28.6401 6.54667 27.3578 6.78481 26.8375 8.1189C26.6486 8.61822 26.6486 8.61822 24.9544 8.84355Z" fill="#FCFA01"/>
<path d="M39.521 6.79266C39.5179 6.64414 39.5148 6.49306 39.5148 6.34454C40.0413 4.62124 40.5988 2.9005 41.0851 1.16695C41.2492 0.580564 41.6178 0.44741 42.2744 0.44741C42.9094 0.44741 43.4421 0.383395 43.7456 1.0338C44.458 2.5753 45.2787 4.08351 46.0128 5.61989C46.1274 5.86315 46.6849 6.27029 45.9787 6.43161C45.4584 6.5494 44.8327 6.82082 44.3465 6.20115C43.3461 4.92595 42.2342 5.01558 41.2988 6.39576C40.8745 7.02055 40.1745 6.85155 39.521 6.79266Z" fill="#FCFA01"/>
<path d="M95.9837 8.97164C95.7607 9.3711 95.6864 9.94468 94.8439 9.599C94.3391 9.39159 93.8249 9.20466 93.3108 9.01261C92.8988 8.85898 92.5365 8.80008 92.3197 9.25587C92.1276 9.66045 92.2639 9.89347 92.744 10.042C93.2241 10.1905 93.6948 10.3569 94.1563 10.5439C94.4413 10.6591 94.8563 10.7154 94.5621 11.1584C94.3236 11.522 94.1687 11.8703 93.5524 11.6296C93.1342 11.4683 92.6851 11.3505 92.298 11.1507C91.5887 10.7846 91.344 11.1021 91.0436 11.586C90.6998 12.1391 90.8113 12.4234 91.533 12.618C92.0657 12.7614 92.552 13.0174 93.0785 13.1813C93.5338 13.3247 93.5895 13.5244 93.3758 13.8599C93.2055 14.1262 93.0878 14.4488 92.6046 14.2798C91.3316 13.8317 90.0587 13.3862 88.8043 12.9048C88.3552 12.7306 88.5596 12.4106 88.7083 12.1391C89.5228 10.6309 90.3312 9.12272 91.152 7.61707C91.2914 7.36101 91.3843 7.0102 91.9046 7.20737C93.1652 7.67852 94.4258 8.14968 95.6864 8.61572C95.8815 8.68229 96.0549 8.74631 95.9837 8.97164Z" fill="#FCFA01"/>
<path d="M56.8467 4.75691C56.9582 3.57134 57.1223 2.38833 57.1626 1.20276C57.1936 0.329581 57.6798 0.117048 58.6183 0.255322C59.2749 0.352626 59.9439 0.388475 60.6036 0.470415C62.1522 0.662463 62.9854 1.35639 62.9544 2.41649C62.9235 3.57646 61.8921 4.55462 60.4085 4.53414C59.1479 4.51877 58.4479 4.68265 58.6276 5.88103C58.7143 6.45205 58.2435 6.60569 57.6241 6.49814C57.144 6.41364 56.54 6.45717 56.7444 5.76836C56.8405 5.44316 56.8064 5.09235 56.8312 4.75435C56.8374 4.75691 56.8405 4.75691 56.8467 4.75691Z" fill="#FCF901"/>
<path d="M88.0113 10.8562C87.9804 12.006 87.3671 12.367 86.1282 12.2006C84.2079 11.9445 82.8792 11.079 82.5726 9.77564C82.2721 8.49021 83.2323 6.68496 84.5734 6.01408C85.8959 5.35343 87.8627 5.6351 89.2905 6.5979C90.3188 7.28927 89.402 7.75787 89.1914 8.40315C88.3025 7.5018 87.5251 6.54413 85.9764 7.10747C84.8645 7.51205 84.1398 9.02282 84.6013 9.96001C85.2424 11.2582 86.5804 11.0534 88.0113 10.8562Z" fill="#FBF901"/>
<path d="M74.8294 77.3738C74.1108 76.7849 73.1724 76.4366 72.3082 75.9936C71.9861 75.8298 72.141 75.4559 72.556 75.2972C72.8812 75.1717 73.2343 75.0769 73.5223 74.9079C73.829 74.7287 74.3431 74.5622 73.9838 74.1244C73.6896 73.7659 73.321 73.899 72.9122 74.0476C72.4848 74.2038 71.9675 74.8183 71.5556 74.045C71.1437 73.2691 72.1348 73.4151 72.4879 73.1949C73.2746 72.7007 74.1449 72.4702 74.9347 73.2461C75.0617 73.3716 75.1763 73.5278 75.4179 73.3818C75.7245 73.1974 75.5634 73.0182 75.4024 72.8492C74.9223 72.3524 74.7829 71.9402 75.6409 71.5842C76.5855 71.1925 76.5081 71.9709 76.7528 72.2551C77.4032 73.0105 77.9328 73.8376 78.5244 74.6288C78.7938 74.9899 79.1655 75.2715 78.4377 75.6377C77.6912 76.0141 77.524 75.6403 77.143 75.2536C76.7744 74.8772 76.7218 73.6891 75.6192 74.5699C75.2537 74.8618 74.5754 75.3663 74.8758 75.8118C75.2165 76.324 75.74 75.7786 76.1705 75.6275C76.5545 75.4918 76.7187 75.694 76.8829 75.9296C77.0284 76.137 77.0718 76.3547 76.8209 76.4802C76.2015 76.79 75.5572 77.0537 74.8294 77.3738Z" fill="#FBFBFC"/>
<path d="M47.1929 14.792C47.5707 14.833 47.8464 14.6666 48.1127 14.4822C48.8251 14.6717 49.2308 14.2236 49.7202 13.9521C50.1414 13.9521 50.4233 14.4668 50.925 14.1672C51.3896 14.4131 51.9161 14.5513 52.4086 14.7485L52.4953 14.7895C52.7245 14.9918 52.7679 15.2222 52.6533 15.4757C51.944 16.0519 50.7423 15.6652 50.0609 16.4616C50.5069 16.6587 51.114 16.4488 51.5321 16.7381C51.3586 17.7854 52.1701 16.5947 52.294 16.966C52.8546 17.1785 53.0528 17.5422 52.9444 18.0312C52.8763 18.1413 52.7834 18.2361 52.6626 18.3129C51.7086 18.9505 50.7082 19.2142 49.4507 18.4665C49.5591 18.8097 49.6737 19.0708 49.5839 19.3269C49.1844 20.154 49.7512 20.8787 49.9432 21.6443C49.9246 21.7621 49.872 21.8696 49.7945 21.9695C49.618 22.0847 49.4198 22.1129 49.203 22.0822C48.8344 21.8261 48.441 21.8286 48.0322 22.013C47.6543 21.9183 47.4902 21.6724 47.3694 21.3908C47.2858 20.661 47.4871 19.9031 47.0318 19.2142C46.8522 18.8301 46.7035 18.4461 47.0256 18.062C47.2517 17.7957 47.515 17.5473 47.5924 17.2118C47.7596 16.3668 46.9575 15.637 47.1929 14.792Z" fill="#666161"/>
<path d="M49.6302 0.00943548C50.4014 0.00943548 51.1757 0.032481 51.9438 0.00175341C52.5757 -0.0238529 52.7305 0.23221 52.7367 0.690563C52.7429 1.18733 52.3713 1.27695 51.9346 1.22317C50.6678 1.06698 50.3828 1.52021 50.5253 2.49581C50.6678 3.46117 50.5656 4.44701 50.6151 5.42517C50.6461 6.01411 50.5377 6.34444 49.6457 6.3598C48.6948 6.37772 48.6917 5.97058 48.6855 5.41237C48.6763 4.35739 48.5864 3.29985 48.6019 2.24487C48.6143 1.52277 48.4037 1.12075 47.3971 1.24622C46.9325 1.30511 46.3316 1.42034 46.3038 0.71617C46.2759 -0.0622621 46.9418 0.0939365 47.4683 0.0811333C48.1869 0.0632089 48.9055 0.0760119 49.6271 0.0760119C49.6302 0.0529663 49.6302 0.0299205 49.6302 0.00943548Z" fill="#F9F602"/>
<path d="M79.6364 4.90535C79.6116 4.83365 79.6085 4.63392 79.528 4.60831C78.8931 4.41627 78.5059 4.11411 79.0107 3.59174C79.4815 3.10778 80.0081 3.60967 80.5005 3.67625C81.1045 3.75819 81.6899 3.94255 82.2783 4.09107C82.6345 4.18069 82.9721 4.28055 82.7894 4.7005C82.6717 4.97448 82.6655 5.35858 82.1328 5.20238C81.3925 4.98473 81.3925 5.49429 81.2624 5.80157C80.9279 6.60305 80.6616 7.42245 80.3488 8.23161C80.1908 8.64131 80.1784 8.96395 80.7576 9.16368C81.2686 9.34292 80.9186 9.69117 80.8598 9.93443C80.7731 10.298 80.3983 10.1777 80.1165 10.106C79.2337 9.88321 78.3665 9.61691 77.4745 9.41974C76.5608 9.21745 77.0192 8.52352 77.236 8.50559C79.1006 8.35708 78.6081 6.98458 79.116 6.15237C79.3452 5.78108 79.4536 5.35602 79.6364 4.90535Z" fill="#FBF801"/>
<path d="M19.5436 5.03094C19.3268 5.12569 19.1379 4.8773 18.9954 4.42407C18.825 3.88634 19.2741 3.90939 19.652 3.7916C22.2599 2.98244 22.2568 2.97732 22.9785 5.1769C23.2076 5.87083 23.4647 6.55964 23.666 7.25869C24.1182 8.84628 22.2382 10.4364 20.3179 10.1164C19.7635 10.0242 19.8007 9.65544 19.7171 9.33792C19.621 8.96663 19.9029 8.93334 20.2436 8.9231C21.8418 8.86677 22.0957 8.14723 21.6281 7.03592C21.4267 6.55708 21.2966 6.05775 21.1666 5.56099C21.0179 4.98229 20.7546 4.58539 19.5436 5.03094Z" fill="#FBF801"/>
<path d="M26.8718 79.5784C25.221 79.3685 23.9914 78.8102 23.344 77.617C23.1458 77.2483 22.5635 76.7105 23.2078 76.4314C23.7591 76.1933 24.202 76.6721 24.4126 77.1638C24.6666 77.7527 25.1838 78.1522 25.8621 78.4108C26.2369 78.5542 26.6395 78.7514 26.9276 78.3288C27.2621 77.8372 26.7572 77.7655 26.3793 77.6605C25.2396 77.3456 25.6422 77.1638 26.2678 76.5671C27.1475 75.7272 27.6151 74.598 28.278 73.6019C28.5319 73.2178 28.6837 72.6801 29.4952 73.0488C30.2571 73.3945 29.9505 73.753 29.6531 74.1858C29.2226 74.8105 28.8602 75.4686 28.4452 76.1037C28.0611 76.69 27.6709 77.1535 28.281 77.914C28.8664 78.6464 27.8691 79.5989 26.8718 79.5784Z" fill="#FAFAFB"/>
<path d="M75.4952 9.16115C75.3961 9.14067 75.297 9.11506 75.1979 9.09714C71.3821 8.40833 71.3821 8.40833 72.2988 5.27155C72.5033 4.57506 72.6767 3.87089 72.9183 3.18464C73.0763 2.73909 73.0701 2.14246 74.0643 2.38316C74.8758 2.57777 75.1111 2.78774 74.8076 3.50728C74.3895 4.49824 74.216 5.55834 73.8599 6.56723C73.609 7.28165 73.7484 7.69135 74.7302 7.76049C75.0802 7.78609 75.4271 7.88596 75.7678 7.9679C76.1983 8.07032 76.7093 8.11385 76.5266 8.68488C76.3779 9.16371 76.0248 9.27638 75.4952 9.16115Z" fill="#FBF801"/>
<path d="M54.719 28.6168C54.8088 29.449 53.8611 29.8715 53.3376 29.9125C51.0767 30.084 48.7754 30.3427 46.1923 29.7204C46.7591 29.6026 46.9883 29.554 47.4467 29.4592C46.7219 29.2518 45.9012 29.5156 45.6689 28.8396C45.3406 27.9792 46.2666 27.6642 46.7405 27.1521C47.3073 27.0164 47.5985 26.5145 48.1869 26.4044C48.7104 26.4582 48.9581 26.7296 49.0356 27.1342C49.0511 27.7616 49.3577 28.4068 50.0732 28.4632C51.0116 28.5374 51.309 27.7488 51.662 27.1547C51.7519 27.0574 51.8696 26.9959 52.0182 26.9806C52.8514 27.5337 52.997 28.1533 52.2939 28.8601C53.0155 28.9215 53.6536 28.604 54.3412 28.4708C54.496 28.4708 54.623 28.5195 54.719 28.6168Z" fill="#767170"/>
<path d="M67.0863 74.995C66.5195 75.0513 66.0952 74.9924 66.0054 74.3933C65.9248 73.8427 66.027 73.3946 66.5629 73.0412C67.6531 72.3217 69.4464 72.5573 70.1495 73.6712C71.0229 75.0565 71.664 76.5416 72.4321 77.973C72.7171 78.5031 72.2122 78.5005 71.8684 78.6541C71.4101 78.8616 71.1375 78.8129 70.9331 78.3853C70.3508 77.1613 69.7468 75.9476 69.1274 74.7364C68.9477 74.3907 68.7124 74.0553 68.4367 73.7557C68.254 73.5559 67.9473 73.4177 67.6221 73.5764C67.3774 73.6942 67.235 73.917 67.4115 74.1141C67.8327 74.5879 67.139 74.7159 67.046 75.0232L67.0863 74.995Z" fill="#FAFAFB"/>
<path d="M56.5991 75.2792C58.9313 74.4906 61.0839 75.4457 61.471 77.0384C61.7343 78.1164 62.013 79.1893 62.2856 80.2648C62.3971 80.7052 62.4745 81.0919 61.7002 81.1994C60.9724 81.2993 60.8082 81.0074 60.7556 80.5157C60.7277 80.2648 60.6069 80.0215 60.5635 79.7732C60.2166 77.8399 59.9905 75.8503 56.5991 75.2792Z" fill="#F8F7F9"/>
<path d="M25.1808 75.0103C23.9233 75.0461 22.768 74.1269 22.8083 73.0949C22.8176 72.8414 22.6875 72.4394 23.3038 72.5111C23.6352 72.5495 24.0503 72.4624 24.0565 72.9336C24.0627 73.3766 24.1649 73.8145 24.871 73.8145C25.3976 73.8145 25.7135 73.5328 25.8993 73.1589C26.1285 72.6929 26.1719 72.2499 25.5648 71.9298C25.2241 71.7506 24.8246 71.6072 25.2613 71.1821C25.6484 70.8032 25.9737 70.9926 26.3267 71.1796C27.2807 71.6917 27.7391 72.401 27.4634 73.3433C27.2002 74.2139 26.1161 74.9821 25.1808 75.0103Z" fill="#F9F8FA"/>
<path d="M67.0459 75.0232C67.368 75.123 67.876 74.8644 68.0247 75.2203C68.5574 76.4981 69.0436 77.7886 69.5051 79.0843C69.6786 79.5734 69.0405 79.3993 68.8021 79.5452C68.4645 79.7552 68.0959 79.6861 67.9906 79.2866C67.7397 78.3136 67.3216 77.6401 65.9154 78.2982C65.6336 78.4288 65.488 78.2009 65.4168 77.9679C65.3455 77.7297 65.1132 77.425 65.5747 77.3533C66.9127 77.1459 67.207 76.5826 66.6216 75.5916C66.4513 75.3048 66.9871 75.228 67.0862 74.9924C67.0862 74.995 67.0459 75.0232 67.0459 75.0232Z" fill="#F9F9FB"/>
<path d="M65.742 79.0945C66.4729 79.1508 67.2256 78.5414 67.2875 79.3992C67.3402 80.1316 66.4389 80.0394 65.9154 80.1008C64.5031 80.2724 63.1775 79.3864 62.9328 78.2137C62.6943 77.0819 63.6637 75.8963 65.0389 75.6428C65.3796 75.5788 65.7668 75.4379 65.9774 75.8092C66.219 76.2317 65.9031 76.4084 65.4694 76.5518C64.5527 76.854 64.2646 77.4429 64.5155 78.1983C64.7137 78.8154 65.3425 79.01 65.742 79.0945Z" fill="#F9F8FB"/>
<path d="M48.2427 79.8884C48.4192 78.8744 47.425 79.343 46.9419 79.2175C46.3503 79.0639 45.8207 79.2226 45.5481 79.7373C45.2477 80.3058 45.6008 80.6233 46.2078 80.8025C46.7436 80.9613 46.7436 81.2378 46.5361 81.5989C46.2914 82.0265 45.9105 81.9369 45.5016 81.8089C44.4114 81.4657 43.8291 80.8102 43.9406 79.8551C44.0583 78.8539 44.7614 78.1958 46.0158 78.1472C46.8211 78.1139 47.6387 78.2573 48.4502 78.3213C48.9458 78.8949 49.1409 79.4428 48.2427 79.8884Z" fill="#F0EFF4"/>
<path d="M52.7587 18.1056C52.771 17.6677 52.5449 17.322 52.1547 17.0404C52.0896 16.9328 52.0804 16.8253 52.1268 16.7126C52.3932 16.3951 52.5357 15.9444 53.183 16.0212C53.8489 16.751 55.063 16.3592 55.8218 16.9021C55.9302 16.9815 56.0108 17.0762 56.0572 17.1889C56.0696 17.5141 55.8962 17.7778 55.5617 17.9187C54.7873 18.2464 54.9639 18.7022 55.2581 19.1913C54.6604 19.8417 54.5674 20.6355 54.3475 21.3909C54.2577 21.4959 54.1369 21.5471 53.9821 21.5445C53.0467 20.9402 52.3963 20.1925 52.9228 19.1964C53.1706 18.7278 52.3343 18.505 52.7587 18.1056Z" fill="#999897"/>
<path d="M58.0486 81.1661C55.3974 81.3505 55.3416 81.312 54.7005 79.0305C54.6571 78.8718 54.6169 78.649 54.4837 78.585C54.0842 78.3904 53.7868 78.1445 54.0036 77.7784C54.2173 77.4173 54.7191 77.5428 55.1062 77.5377C55.6173 77.53 56.0199 77.74 56.1252 78.1599C56.2213 78.5261 56.1872 78.9153 56.2243 79.2943C56.3266 80.3492 56.5619 80.4389 57.8225 79.9139C58.665 80.234 58.4327 80.6898 58.0486 81.1661Z" fill="#F7F6F9"/>
<path d="M41.2678 80.5106C41.466 79.5273 41.7262 78.4544 41.8842 77.3713C41.9678 76.8079 42.2032 76.7106 42.8598 76.7926C43.5814 76.8848 43.4761 77.1792 43.3925 77.5889C43.1695 78.667 42.9744 79.7501 42.7947 80.8358C42.7173 81.3095 42.4726 81.4657 41.8842 81.3889C41.274 81.3095 41.1253 81.056 41.2678 80.5106Z" fill="#F6F6F8"/>
<path d="M58.0485 81.1661C57.9928 80.7461 58.2158 80.2903 57.8224 79.9114C57.6985 79.2866 57.5777 78.6618 57.4538 78.037C57.3671 77.5914 57.3207 77.1997 58.0857 77.1177C58.8104 77.0409 58.9281 77.3431 58.9963 77.8347C59.1418 78.882 59.3432 79.9242 59.5445 80.9663C59.625 81.3837 59.6498 81.6782 58.9684 81.7653C58.3087 81.8498 57.968 81.7704 58.0485 81.1661Z" fill="#F9F9FB"/>
<path d="M48.7877 27.3339C48.7784 26.9908 48.6235 26.7143 48.255 26.535C47.6603 26.3481 47.2205 26.7015 46.7156 26.8397C46.1922 26.9319 45.9227 26.7015 45.7679 26.3302C44.9161 25.7387 45.3776 25.3315 46.0466 24.9525C46.2696 24.9269 46.4152 25.0268 46.5422 25.16C46.6382 25.2624 46.6165 25.4135 46.7497 25.498C46.7621 25.3725 46.8086 25.2598 46.9139 25.1676C47.0749 25.0678 47.2577 25.0089 47.4466 24.9577C48.0072 24.8015 48.4532 24.4353 49.0479 24.3406C49.1841 24.3149 49.3204 24.3124 49.4567 24.3226C49.593 24.3508 49.7138 24.402 49.8191 24.4788C50.1226 24.8322 50.2062 25.3213 50.7668 25.5159C50.8907 25.5748 51.0022 25.6465 51.1044 25.7284C51.3491 26.0101 51.4296 26.2687 50.9651 26.4531C50.2434 26.407 49.9801 26.5248 49.3297 27.1777C49.1965 27.3083 49.0138 27.3826 48.7877 27.3339Z" fill="#63615F"/>
<path d="M48.2429 79.8884C48.6858 79.3993 48.4318 78.8488 48.4504 78.3213C48.4473 77.8962 48.1314 77.3585 49.1101 77.3508C50.0982 77.3431 49.9557 77.8834 49.9185 78.3776C49.8535 79.302 49.7513 80.2213 49.6893 81.1456C49.6553 81.6398 49.6367 82.0291 48.7787 81.9983C47.9146 81.9676 48.1252 81.5297 48.1376 81.1456C48.15 80.7257 48.2057 80.3083 48.2429 79.8884Z" fill="#F9F9FA"/>
<path d="M52.4085 14.746C51.7891 14.8305 51.1448 14.9585 50.9033 14.2518C50.5037 14.1929 50.1847 13.9266 49.7542 13.9445C49.4414 14.6154 49.2276 15.4886 48.1126 14.4797C48.2241 13.0816 49.5405 13.3555 50.5966 13.2506C51.9749 13.1174 52.3094 13.8293 52.4085 14.746Z" fill="#8B8987"/>
<path d="M50.9558 26.2739C51.2903 26.0895 50.9156 25.9205 50.9373 25.7438C51.3987 25.1703 52.1421 25.3265 52.7925 25.2471C53.5668 25.3802 53.1611 24.4558 53.8022 24.4738C54.3442 25.1395 55.6017 25.4417 55.3199 26.5248C55.2238 26.617 55.1061 26.681 54.9668 26.7194C54.2699 26.7502 53.5761 26.5812 52.8761 26.6708C52.3868 26.5095 51.9996 26.5274 51.8912 27.0472L51.8664 27.0626C51.1974 27.0907 50.8505 26.8603 50.9558 26.2739Z" fill="#585553"/>
<path d="M52.7958 26.5018C53.536 26.046 54.236 26.4352 54.9484 26.576C56.0912 27.124 55.67 27.8333 55.2395 28.5401C55.066 28.5657 54.8926 28.5913 54.7223 28.6143C54.5984 28.5964 54.4714 28.5759 54.3475 28.558C52.7431 28.2763 52.5852 28.0663 52.7958 26.5018Z" fill="#C5C5C5"/>
<path d="M47.515 25.1831C47.3106 25.2189 47.1093 25.2522 46.9048 25.2881C45.9292 24.5839 46.9048 23.575 46.3318 22.8068C46.3597 22.456 46.3876 22.1052 46.4155 21.757C46.7283 21.5009 46.9854 21.1322 47.5429 21.3806C47.7442 21.5521 47.9424 21.7262 48.1437 21.8978C48.2459 21.9874 48.2924 22.095 48.2955 22.2153C47.8991 22.94 48.2924 23.7159 48.0818 24.4533C47.9176 24.7119 47.834 25.009 47.515 25.1831Z" fill="#DCDCDA"/>
<path d="M53.8053 24.4737C53.7495 24.6325 53.5823 24.8373 53.6504 24.9423C54.6106 26.4096 53.1704 25.3469 52.8575 25.4621C52.3929 24.8706 52.3527 24.1716 52.1328 23.5161C52.0708 23.0244 52.0337 22.5302 52.139 22.0437C52.2164 21.6826 52.3062 21.2678 52.9752 21.4599C53.4305 21.7979 54.2544 21.9822 53.7433 22.7248C53.9571 23.301 53.4832 23.895 53.8053 24.4737Z" fill="#EBE8E7"/>
<path d="M47.1713 18.1106C47.193 18.446 47.2146 18.784 47.2363 19.1195C47.4562 19.5113 45.9695 19.5317 46.9142 20.1412C47.0288 20.2154 46.654 20.725 46.2824 20.9068C45.0528 20.5611 44.997 19.7648 45.2014 18.9018C45.3067 18.4588 45.5204 18.0312 45.6877 17.5985C45.7806 17.5601 45.9138 17.5882 45.9633 17.5575C46.239 17.3782 46.4279 18.464 46.781 17.5985C46.7996 17.5498 47.196 17.8417 47.1713 18.1106Z" fill="#949392"/>
<path d="M34.8502 35.8148C33.1869 36.4934 31.9356 37.5868 30.5698 38.7826C31.0343 36.7879 32.4746 35.7585 34.59 35.2643C34.6767 35.4461 34.7634 35.6305 34.8502 35.8148Z" fill="#351D67"/>
<path d="M47.1712 18.1106C46.7128 17.8674 46.0407 18.0492 45.6876 17.5959L45.6845 17.514C45.7123 16.8303 45.3562 16.1748 45.4801 15.4834C45.5358 15.3708 45.6194 15.276 45.7309 15.1966C46.2513 15.3323 46.5641 15.1813 46.6632 14.7357C46.7654 14.7536 46.8676 14.7716 46.9698 14.7895C47.4685 15.591 46.9512 16.6357 47.8618 17.3399C47.8494 17.7317 47.6141 17.9852 47.1712 18.1106Z" fill="#767372"/>
<path d="M46.2852 20.9068C46.2635 20.4536 47.3197 19.606 45.4737 19.711C46.3967 19.8928 46.6445 19.2117 47.236 19.1221C47.9515 19.8186 47.6851 20.6072 47.5458 21.3831C46.9944 21.1501 47.0347 22.1231 46.4184 21.7595C45.898 21.5239 46.4184 21.1808 46.2852 20.9068Z" fill="#574949"/>
<path d="M45.7679 26.3275C46.0776 26.4888 46.3905 26.6476 46.7002 26.8089C47.1059 26.8371 47.1369 27.0086 46.948 27.2596C46.7993 27.9407 45.74 28.1148 45.6688 28.8369C44.3463 27.9791 44.3649 27.5208 45.7679 26.3275Z" fill="#B4AFAF"/>
<path d="M45.6441 15.5551C45.514 16.2106 46.6135 16.8482 45.6844 17.5165C44.6034 17.9364 44.3061 17.3577 44.0986 16.6664C44.2132 15.9161 44.9101 15.7164 45.6441 15.5551Z" fill="#ABA9A9"/>
<path d="M47.8617 17.3398C45.8516 16.8994 47.236 15.6472 46.9697 14.7894C47.044 14.7587 47.1214 14.7587 47.1958 14.7894C47.6015 15.6088 48.2457 16.3821 47.8617 17.3398Z" fill="#A7A5A5"/>
<path d="M55.3417 15.299C56.7602 15.1403 56.0478 16.4513 56.8036 16.7484C56.6085 17.0761 56.3885 17.3604 55.8744 17.0812L55.8837 17.0941C55.6638 16.8482 55.2828 16.756 55.0784 16.4949C54.9143 16.1927 54.9019 15.8829 55.0258 15.5705C55.0908 15.445 55.1961 15.3554 55.3417 15.299Z" fill="#848484"/>
<path d="M55.8741 17.0812C56.2675 17.1273 56.509 16.8891 56.8033 16.7483C56.6608 17.7239 55.0874 18.0798 55.2547 19.1911C54.4432 18.2872 54.4711 18.2053 55.5923 17.7418C55.9113 17.6087 55.9423 17.3475 55.8741 17.0812Z" fill="#2E2739"/>
<path d="M46.335 22.8068C46.9297 22.8196 46.9793 23.1524 46.7996 23.4751C46.4496 24.1101 46.7501 24.6888 46.9049 25.288C46.2142 25.877 46.4682 24.8297 46.047 24.95C46.4372 24.2612 46.1213 23.5109 46.335 22.8068Z" fill="#22182F"/>
<path d="M45.6443 15.5551C45.3563 16.1415 44.5603 16.2439 44.0988 16.6664C43.8262 15.9801 44.0864 15.6524 45.3996 15.0225C45.6908 14.961 45.7775 15.0558 45.697 15.2836C45.6784 15.3733 45.6629 15.4655 45.6443 15.5551Z" fill="#B9B7B4"/>
<path d="M55.2363 28.54C55.1743 27.8819 55.7163 27.1624 54.9451 26.576C55.069 26.5581 55.196 26.5401 55.3199 26.5248C55.9548 27.2162 56.3977 27.9024 55.2363 28.54Z" fill="#9D9C9B"/>
<path d="M61.7436 64.1148C63.1219 63.3799 63.6205 63.5976 64.2307 65.198C63.4719 64.7294 63.0104 63.7103 61.7002 64.2634C61.6786 64.207 61.694 64.1558 61.7436 64.1148Z" fill="#9A9133"/>
<path d="M53.1144 16.0134C52.6838 16.1721 52.7551 16.7252 52.2131 16.7969C51.9343 16.6305 51.925 16.3975 51.9746 16.1465C52.0427 15.8956 52.2719 15.742 52.4732 15.5704C52.4825 15.3092 52.4887 15.048 52.498 14.7868C52.8077 14.7817 53.1206 14.7766 53.4303 14.774C53.5542 14.6947 53.6781 14.6921 53.802 14.7766C53.9073 14.9328 53.9258 15.0941 53.8422 15.258C53.6781 15.4475 53.2816 15.4552 53.263 15.7624C53.2413 15.8572 53.1918 15.9417 53.1144 16.0134Z" fill="#493E3A"/>
<path d="M53.765 14.8049C53.6535 14.7946 53.542 14.7844 53.4274 14.7742C53.7093 14.3721 53.9509 14.0137 54.688 14.2697C55.3168 14.4899 55.4716 14.8049 55.3415 15.2991C55.2827 15.3503 55.2517 15.4143 55.2517 15.486C55.2176 15.614 55.1216 15.6627 54.9699 15.6294C54.5703 15.3503 54.2978 14.9483 53.765 14.8049Z" fill="#221D33"/>
<path d="M36.7335 64.6833C37.037 62.9984 38.2635 63.9125 39.2267 64.079C39.2051 64.1532 39.2082 64.2301 39.2329 64.3043C38.3905 64.3837 37.3715 63.6821 36.7335 64.6833Z" fill="#938832"/>
<path d="M35.2406 38.1296C35.2746 38.6161 34.8968 38.9618 34.6211 39.3408C34.4229 39.3229 34.395 39.1795 34.3269 39.0642C34.5932 38.5265 34.8565 37.9888 35.1229 37.451C35.1631 37.6789 35.2003 37.9043 35.2406 38.1296Z" fill="#5A5386"/>
<path d="M45.6969 15.2837C45.5978 15.1966 45.4987 15.1096 45.3996 15.0225C45.7713 14.7767 46.0283 14.1852 46.6633 14.7383C46.75 15.4143 46.3876 15.5474 45.6969 15.2837Z" fill="#F4F4F4"/>
<path d="M53.7462 22.7223C53.8391 22.2409 53.0958 22.1231 53.0896 21.6852C53.3374 21.3779 53.7493 21.5828 54.059 21.4676C54.1551 21.442 54.2511 21.4164 54.344 21.3907C54.121 21.8261 54.4741 22.4406 53.7462 22.7223Z" fill="#2A2237"/>
<path d="M34.3266 39.0642C34.4257 39.1564 34.5218 39.2486 34.6209 39.3408C32.8709 43.786 33.4037 47.9803 36.5257 51.9391C42.045 58.9424 54.533 60.0332 61.8549 54.1361C62.3164 53.7622 62.6323 53.2399 63.3168 53.0683C62.3908 54.8326 61.4461 56.5892 59.9904 58.1102C58.8909 59.2599 57.1874 59.1805 55.6728 59.4622C54.4277 59.6927 53.161 59.8258 51.9438 60.1817C49.9089 60.7758 48.0443 59.8616 46.0993 59.6594C45.4953 59.5953 44.9068 59.347 44.309 59.3418C41.3822 59.3188 39.9822 57.7747 38.892 55.8133C38.0154 54.2436 37.015 52.7201 35.2093 51.7009C34.2368 51.1529 33.6019 51.1581 33.5802 52.3129C33.3448 52.5306 33.7939 53.0427 33.1063 53.0632C32.8957 52.1977 33.2983 51.3936 33.4749 50.5691C33.9302 48.4182 33.7567 46.3466 32.2112 44.4851C31.9665 44.1906 31.6754 43.7476 31.1365 43.9012C30.6471 44.0421 30.9135 44.4927 30.8825 44.7975C30.7431 46.1674 30.644 47.5399 30.517 49.0712C28.9498 45.3915 29.4082 42.749 31.8953 41.1383C32.8276 40.5314 33.6731 39.8836 34.3266 39.0642Z" fill="#2F1465"/>
<path d="M66.9812 45.9243C67.2693 43.3764 66.5693 40.9362 65.7547 38.5138C66.6715 39.6123 67.8175 40.506 69.0471 41.3843C71.0541 42.8157 71.274 44.7976 70.8806 46.8461C70.7475 47.5451 70.509 48.2314 70.2333 49.2352C69.8555 47.4786 69.7749 46.0164 69.7563 44.5518C69.7532 44.329 69.9205 44.0089 69.5179 43.9065C69.1988 43.8245 68.9696 44.0166 68.7219 44.1805C68.0126 44.6465 67.8949 45.4044 67.3869 45.9678C67.2383 46.0574 67.102 46.0446 66.9812 45.9243Z" fill="#301665"/>
<path d="M66.9811 45.9242C67.1174 45.937 67.2537 45.9498 67.39 45.9626C66.8015 47.8063 66.8541 49.655 67.3497 51.5038C67.4488 51.7752 67.6223 52.0748 67.0183 52.0595C66.9594 51.4014 66.7086 51.1991 65.8599 51.5141C64.8378 51.893 64.3175 52.7713 63.283 53.0991C64.4042 51.386 65.8073 49.801 66.4298 47.8652C66.6342 47.2224 66.4856 46.508 66.9811 45.9242Z" fill="#301B64"/>
<path d="M67.0182 52.0619C67.3249 51.9569 67.235 51.6906 67.3496 51.5062C67.8514 52.51 67.7213 53.4344 66.7488 54.4561C66.8541 53.524 66.9377 52.7942 67.0182 52.0619Z" fill="#514A84"/>
<path d="M33.1003 53.0631C33.2583 52.8122 33.4162 52.5638 33.5742 52.3129C33.6795 52.953 33.7848 53.5932 33.8963 54.282C33.1746 54.031 33.1715 53.5317 33.1003 53.0631Z" fill="#65488A"/>
<path d="M47.5459 67.9122C47.2857 68.4653 47.2919 69.0082 47.5676 69.5613C48.0476 70.5215 47.6543 71.1028 46.4061 71.1028C45.4181 71.1028 44.3309 71.0567 44.1513 69.9249C44.8172 69.5792 45.2446 70.0273 45.8796 70.3218C45.3437 69.9556 44.8327 69.7917 44.4424 69.487C43.665 69.3436 43.8633 68.578 43.2872 68.2502C43.0084 68.0915 43.2314 67.6946 43.7239 67.6818C44.0677 67.6715 44.4146 67.6971 44.6778 67.5051C44.619 66.8419 43.4885 67.3924 43.5195 66.7215C43.5288 66.5346 43.7301 66.4475 43.95 66.4347C44.8296 66.3886 45.6008 66.5141 45.7897 67.3028C46.1924 67.3233 46.2946 67.2081 46.3008 67.0134C46.307 66.7036 46.3194 66.3989 46.8521 66.4296C47.3724 66.4578 47.3167 66.783 47.3539 67.0749C47.391 67.3642 47.4654 67.651 47.5242 67.9404C47.5242 67.9404 47.5459 67.9122 47.5459 67.9122Z" fill="#36265C"/>
<path d="M53.6875 69.9198C52.8977 69.6714 52.0335 69.5177 51.3367 69.1465C50.5469 68.7291 50.6615 68.1555 51.4699 67.7612C51.7672 67.6152 52.142 67.5768 52.4703 67.4667C52.6654 67.4027 52.845 67.2593 52.7304 67.08C52.5849 66.8521 52.303 66.8291 52.1327 67.0442C51.9066 67.3284 51.6929 67.5307 51.3057 67.2516C51.2128 67.185 51.1632 67.0211 51.1787 66.911C51.2283 66.5577 51.5721 66.4296 51.9313 66.3835C52.9318 66.2504 53.7092 66.468 53.8733 67.395C54.4587 67.3258 54.3038 67.0186 54.3503 66.7932C54.4432 66.3605 54.8551 66.363 55.1525 66.509C55.7131 66.7855 55.2949 69.1413 54.6569 69.4819C54.0622 69.4896 54.0715 69.108 54.053 68.7905C54.022 68.3117 53.7401 68.1196 53.1888 68.1708C52.9999 68.094 53.0928 68.3962 53.1176 68.2272C54.4804 68.5165 54.0499 69.2258 53.6875 69.9198Z" fill="#2F1D5C"/>
<path d="M47.524 67.9404C47.9979 67.4334 48.8341 67.8943 49.3483 67.4872C49.3142 67.3976 49.3111 67.3054 49.2553 67.2491C48.9146 66.8906 48.1651 67.3873 47.939 66.8394C47.8337 66.5859 48.097 66.4578 48.3757 66.4425C48.989 66.4041 49.6425 66.3298 50.1102 66.7574C50.4881 67.1031 50.55 67.5538 50.2093 67.9276C49.977 68.1863 49.5806 68.345 49.2584 68.5499C49.3018 68.619 49.3452 68.6907 49.3947 68.7573C49.6053 69.0389 50.3177 68.6497 50.2991 69.2131C50.296 69.295 50.1071 69.4487 50.0204 69.441C49.4969 69.3974 48.7319 69.7175 48.5244 69.1567C48.3293 68.6267 47.6541 68.4346 47.5426 67.9148C47.5457 67.9123 47.524 67.9404 47.524 67.9404Z" fill="#362659"/>
<path d="M57.1223 68.0121C56.8033 68.3885 57.7387 69.4179 56.5463 69.3923C55.5799 69.3718 56.1374 68.3911 55.9888 67.8456C55.9578 67.7278 55.9578 67.5845 56.0073 67.4718C56.1715 67.1031 55.6759 66.3861 56.6175 66.4322C57.5281 66.4757 56.9675 67.1517 57.1161 67.5307C57.1595 67.6433 57.1223 67.7791 57.1223 68.0121Z" fill="#51384C"/>
<path d="M53.6875 69.9198C53.638 69.6817 53.48 69.4154 53.5574 69.208C53.892 68.2784 53.5141 68.2067 52.6562 68.6523C52.3867 68.7931 52.0863 68.9724 51.9376 68.6139C51.8013 68.2861 52.2132 68.2375 52.4734 68.1299C54.3101 67.3592 54.2946 68.6293 54.657 69.4819C54.4402 69.7892 54.1335 69.9582 53.6875 69.9198Z" fill="#E1D307"/>
<path d="M44.4426 69.4871C45.3718 69.3872 45.9696 70.1606 47.2921 69.9224C45.8674 71.0056 45.0714 69.8584 44.1484 69.9224C44.2475 69.779 44.3435 69.6331 44.4426 69.4871Z" fill="#E3DB0E"/>
<path d="M78.1312 55.8901C78.5525 55.8722 80.6988 57.8132 80.5316 58.0539C80.1382 58.6172 79.7511 58.356 79.3361 58.0155C78.9551 57.7031 78.6516 57.0296 77.9113 57.6698C77.6543 57.89 77.4096 58.1256 77.5861 58.4482C77.775 58.7939 78.1498 58.7913 78.4936 58.6479C78.8126 58.5122 79.1192 58.2587 79.3268 58.7171C79.5002 59.1063 79.0821 59.2471 78.8002 59.3828C78.2241 59.6619 77.6481 59.6517 77.0968 59.2855C76.6012 58.9527 76.4277 58.5327 76.595 58.0436C76.8366 57.3267 77.9888 56.981 77.806 56.0668C77.7905 56.0233 78.0383 55.9388 78.1312 55.8901Z" fill="#34255C"/>
<path d="M76.973 55.9465C76.9513 56.3895 76.6075 56.4945 76.1956 56.6174C74.6408 57.0834 74.5293 57.5443 75.6845 58.5634C76.1367 58.9629 76.6168 59.347 77.0287 59.7721C77.2425 59.9923 77.7938 60.192 77.3044 60.5915C76.7531 61.0421 76.5022 60.5607 76.2111 60.3252C75.7372 59.9436 75.2788 59.5442 74.8545 59.1242C74.2753 58.5506 73.47 57.9591 74.074 57.132C74.6965 56.2691 75.5947 55.6597 76.973 55.9465Z" fill="#37245C"/>
<path d="M71.5835 62.7219C71.0476 62.9191 70.4127 63.3851 70.041 62.6477C69.7158 62.005 70.3198 61.626 70.9578 61.3904C71.7074 61.1139 72.4786 61.3443 72.5095 61.9537C72.5498 62.7552 72.8626 63.0932 73.9405 62.9831C73.2931 64.0509 71.6981 63.9459 71.4379 63.8461C70.3632 63.4287 71.8065 63.2008 71.8065 62.7732C71.7631 62.617 71.7321 62.4582 71.5742 62.3455C71.5122 62.471 71.7105 62.5939 71.5835 62.7219Z" fill="#31215C"/>
<path d="M75.3774 61.8564C75.0275 62.2789 74.9252 62.4172 74.8076 62.5452C74.5907 62.7757 74.3616 62.6784 74.1788 62.5247C73.5439 61.9844 72.9306 61.4288 72.2957 60.891C72.0944 60.7195 71.9984 60.5582 72.243 60.3815C72.4134 60.2586 72.5775 59.9641 72.8253 60.1203C73.7049 60.676 74.5443 61.2828 75.3774 61.8564Z" fill="#483D4C"/>
<path d="M76.4681 61.4186C75.35 61.498 73.2717 60.251 73.281 59.6902C73.2841 59.5673 73.47 59.4316 73.6062 59.3317C73.8571 59.1499 74.0708 59.283 74.2536 59.4367C74.396 59.5545 74.5199 59.6902 74.6562 59.8105C75.2013 60.2945 75.7433 60.7759 76.4681 61.4186Z" fill="#37205C"/>
<path d="M24.9763 59.4828C24.3104 59.6287 24.2515 60.7861 23.1613 60.233C22.6812 59.7158 23.5299 59.3138 23.3564 58.7018C22.8392 58.881 22.8888 60.3124 21.9224 59.2113C20.8167 58.543 21.5755 57.6494 21.8729 57.0937C22.2136 56.4561 22.6658 57.7313 23.3564 57.3805C23.3719 57.3574 23.4339 57.2934 23.4525 57.2217C23.5547 56.8479 22.641 56.7147 23.1118 56.2615C23.183 56.1924 23.4246 56.1488 23.4989 56.1949C23.9449 56.4663 24.3723 56.7403 24.4993 57.255C24.5737 57.5623 23.948 58.141 24.7564 58.1461C25.3851 58.1512 25.3356 57.57 25.317 57.1398C25.2984 56.6763 25.3139 56.2128 25.3139 55.7238C26.4878 56.3434 26.5838 57.5469 25.6236 58.9732C25.6825 59.3803 25.5059 59.5877 24.9763 59.4828Z" fill="#311E5D"/>
<path d="M24.9761 59.4826C25.2797 59.3853 25.4965 59.2163 25.6234 58.9705C26.4814 58.9193 27.2774 58.9935 27.7451 59.7131C27.615 60.1791 26.9986 60.1228 26.5186 60.3737C27.2588 60.471 27.5066 59.8257 28.1012 59.9563C28.3181 60.133 28.5349 60.3097 28.7517 60.4864C28.761 61.3595 27.9247 61.6617 27.2092 62.0432C26.4163 62.6655 25.8991 63.2493 25.7411 61.6361C25.6761 61.042 24.8708 60.3148 24.9761 59.4826Z" fill="#331D5E"/>
<path d="M29.3277 60.9551C29.7397 61.1804 30.0959 61.4058 29.5817 61.8283C29.1512 62.1842 28.7857 62.599 28.3335 62.9344C28.0114 63.1777 27.8318 63.8486 27.1844 63.4389C26.3977 62.9396 27.4384 62.7066 27.5313 62.325C27.8596 61.626 28.3149 61.0421 29.3277 60.9551Z" fill="#351E5D"/>
<path d="M21.9224 59.2113C22.195 59.2676 22.3932 59.6082 22.7091 59.4213C22.9476 59.2779 22.8702 59.0705 22.6534 58.8938C22.4335 58.7145 22.2105 58.4226 22.5728 58.2818C23.0003 58.1154 23.4308 58.3407 23.8055 58.566C24.1493 58.7734 24.01 58.9578 23.8303 59.1883C23.5733 59.5186 23.0034 59.7234 23.1613 60.2356C22.9043 59.7644 21.9658 59.8591 21.9224 59.2113Z" fill="#DBCF13"/>
<path d="M28.0982 59.9564C27.8101 60.1894 27.5035 60.4096 27.2433 60.6606C26.9615 60.932 26.6951 61.1855 26.246 60.8833C25.9518 60.6836 25.7784 60.4275 25.958 60.1126C26.1407 59.7951 26.469 59.6978 26.8314 59.877C27.2248 60.0716 27.4849 59.9436 27.742 59.7106C27.8628 59.7951 27.9805 59.877 28.0982 59.9564Z" fill="#ECDF0C"/>
<path d="M29.3278 60.9551C28.73 61.4134 28.1291 61.8692 27.5314 62.3276C27.423 62.2328 27.3145 62.1406 27.2061 62.0459C27.7203 61.5261 28.2344 61.0088 28.7486 60.489C28.9406 60.6427 29.1357 60.7989 29.3278 60.9551Z" fill="#DAD403"/>
<path d="M60.9134 53.3345C57.429 56.3254 53.0959 57.2574 48.2549 56.8093C46.7218 56.6685 45.1515 56.4483 43.8475 55.634C43.6555 55.5188 43.4232 55.4112 43.5595 55.1705C43.6555 55.0015 43.8661 55.0092 44.0582 55.0143C44.3896 55.1347 44.4608 54.9144 44.6095 54.748C46.5483 52.5945 47.9204 50.2259 48.673 47.6115C48.8093 47.1378 48.8558 46.5898 49.5496 46.3671C49.7168 46.385 49.8376 46.4592 49.9119 46.5822C50.104 46.9534 50.0451 47.335 49.946 47.7037C49.2646 50.2823 49.7106 52.8224 50.3734 55.424C51.0239 53.4549 50.8256 51.5011 50.7668 49.555C50.7544 49.1018 50.5004 48.6307 50.9433 48.221C51.9406 47.9649 52.049 48.6614 52.2566 49.13C53.1331 51.094 54.2853 52.9325 55.9051 54.7967C55.1927 52.9197 54.9326 51.135 53.9662 49.5192C53.83 49.2887 53.7897 49.0301 53.9508 48.7817C54.3379 48.5436 54.6414 48.7613 54.9078 48.9405C56.7661 50.2054 58.5223 51.5728 60.5386 52.679C60.7957 52.8224 60.9536 53.0503 60.9134 53.3345Z" fill="#301565"/>
<path d="M61.1519 35.1824C64.3111 37.5177 65.4881 40.5699 65.7823 43.9397C65.4819 44.1241 65.1319 44.2444 64.7726 44.1727C61.8519 43.594 58.8848 43.612 55.9145 43.6811C55.7627 43.6837 55.6172 43.6222 55.4747 43.5787C55.326 43.5223 55.2238 43.4276 55.1712 43.2996C55.2083 42.8259 55.6574 42.6671 56.0911 42.5493C58.5596 41.8784 60.5511 40.5085 62.7718 39.4663C60.7555 39.8197 58.7919 40.2831 56.9583 41.0744C56.4658 41.2869 55.9981 41.5993 55.3756 41.4508C55.2455 41.3842 55.1712 41.2895 55.1526 41.164C56.9335 39.2333 58.8259 37.3743 60.5666 35.418C60.7338 35.2899 60.9228 35.2054 61.1519 35.1824Z" fill="#301565"/>
<path d="M50.3242 31.3849C52.099 31.4259 53.8241 31.6973 55.509 32.148C56.1161 32.3118 56.7015 32.509 57.1196 32.9341C57.2094 33.3386 56.9276 33.4667 56.5125 33.4948C55.8064 33.3054 55.6484 33.8175 55.3758 34.135C54.0781 35.6279 53.1272 37.2564 52.579 39.0437C52.3282 39.8657 52.0463 40.6825 51.6003 41.4456C51.4083 41.7759 51.1109 42.2368 50.6711 41.5608C50.4357 40.6262 50.8291 39.7146 50.8105 38.7825C50.7702 36.67 50.9096 34.5524 50.2344 32.4783C50.1229 32.1275 49.9835 31.7306 50.3242 31.3849Z" fill="#2E1965"/>
<path d="M34.8441 43.9064C35.0114 42.3111 35.2003 40.721 36.114 39.2665C36.7272 38.9567 37.2259 39.305 37.6812 39.5201C40.9643 41.0769 44.1235 42.8438 47.9393 43.4506C48.0879 43.4737 48.1778 43.6043 48.2583 43.7144C48.2583 43.8706 48.1778 43.9832 48.0136 44.06C46.7313 44.4826 45.4708 44.0857 44.2381 43.9141C41.7293 43.5684 39.2546 43.6401 36.7675 43.9832C36.1295 44.0728 35.4636 44.2956 34.8441 43.9064Z" fill="#311665"/>
<path d="M44.1266 32.3963C45.954 31.8765 47.8185 31.5256 49.7667 31.5333C50.4542 32.0096 50.383 32.6574 50.2901 33.2822C49.9308 35.7353 49.4291 38.1807 49.8131 40.6671C49.7852 40.8822 49.7078 41.0845 49.556 41.2612C48.7446 41.5684 48.6857 40.9436 48.6021 40.6261C47.8742 37.8504 46.3814 35.3973 44.2133 33.208C43.9779 32.975 43.8757 32.6882 44.1266 32.3963Z" fill="#301365"/>
<path d="M65.7672 44.1471C65.7703 45.5324 65.4575 46.869 64.931 48.1801C64.8009 48.5053 64.7389 48.8356 64.231 48.8868C63.6673 49.2427 63.2801 48.8868 62.8682 48.6538C60.6103 47.3786 58.2471 46.2903 55.6206 45.6092C55.1963 45.4991 54.3972 45.4888 54.7937 44.7616C55.218 44.5696 55.6919 44.5184 56.141 44.5875C58.7767 44.9895 61.3474 44.5773 63.9274 44.2188C64.5376 44.1368 65.1509 44.1087 65.7672 44.1471Z" fill="#2C1565"/>
<path d="M35.8133 48.7614C35.3518 47.248 34.7633 45.7501 34.8965 44.1548C37.2907 44.206 39.6229 44.736 42.0171 44.8026C42.8409 44.9127 43.7577 44.6183 44.4763 45.1842C44.6126 45.6451 44.1511 45.7987 43.8135 45.8935C41.4658 46.5567 39.6012 47.8907 37.5199 48.9227C36.8818 49.2351 36.3058 49.3785 35.8133 48.7614Z" fill="#311666"/>
<path d="M39.5334 53.0683C37.9042 52.464 37.5202 50.9942 36.4206 50.0211C36.0985 49.0097 37.1795 49.0455 37.7865 48.9098C39.7626 48.4643 41.7138 47.9906 43.4978 47.1276C44.6004 46.595 45.638 45.9779 46.753 45.4632C47.2393 45.2379 47.6915 44.9332 48.3078 45.0407C48.9025 45.4581 48.3543 45.7167 48.0725 45.9523C47.6388 46.3108 47.1588 46.6411 46.6508 46.9228C44.2659 48.2415 42.3611 49.9315 40.8125 51.9134C40.5059 52.3052 40.1559 52.6714 39.7347 52.9864C39.6665 53.0171 39.5984 53.0427 39.5334 53.0683Z" fill="#301765"/>
<path d="M56.4347 33.4051C56.7692 33.3539 56.9798 33.1798 57.1192 32.934C58.8041 33.2643 60.043 34.1426 61.1487 35.1822C61.0403 35.2795 60.9288 35.3742 60.8204 35.4715C58.7235 37.1846 56.1187 38.406 54.1489 40.2446C53.802 40.5672 53.4241 41.1203 52.6715 40.7285C52.5476 40.4136 52.6777 40.1216 52.8914 39.8861C54.4122 38.2114 55.0564 36.2474 55.6882 34.2732C55.8028 33.9275 55.8369 33.4871 56.4347 33.4051Z" fill="#301665"/>
<path d="M36.3647 38.5419C37.3868 37.4177 37.935 35.9863 39.5239 35.2335C39.5858 35.2642 39.6478 35.295 39.7097 35.3231C40.5274 36.2424 41.3203 37.1796 42.1318 38.104C43.5193 39.6813 45.3808 40.7824 47.2856 41.863C47.8214 42.1677 48.4842 42.3982 48.5554 43.0511C48.4811 43.1664 48.3727 43.2432 48.2178 43.279C46.9882 43.2457 46.2015 42.4775 45.294 41.9782C43.0795 40.7594 40.6946 39.9656 38.1022 39.5175C37.4116 39.392 36.4917 39.4125 36.3647 38.5419Z" fill="#311766"/>
<path d="M44.1015 55.1271C43.5347 55.1296 43.7236 55.3934 43.8475 55.6341C42.1131 55.1194 40.5675 54.387 39.533 53.0683L39.5083 53.1016C41.5989 51.7112 43.8227 50.4513 45.6408 48.7895C45.8979 48.5539 46.2881 48.1698 46.7713 48.6179C46.0001 50.8226 45.6935 53.1554 44.1015 55.1271Z" fill="#2D1264"/>
<path d="M54.6849 44.9281C57.3516 45.8217 60.04 46.6719 62.4683 47.9957C63.0382 48.3056 63.3355 49.0174 64.2306 48.8919C64.2306 48.9688 64.2337 49.0456 64.2368 49.1224C63.4501 49.9162 62.493 49.5372 61.5979 49.3529C59.4732 48.9227 57.5313 48.0725 55.4809 47.4759C54.9575 47.3248 54.5486 47.0432 54.2079 46.6898C53.7526 46.1546 53.0991 45.8525 52.3805 45.622C52.1885 45.5324 52.0368 45.4095 51.9283 45.2507C51.5598 44.5645 52.1792 44.4313 52.7367 44.2649C53.4956 44.2572 54.1708 44.4339 54.6849 44.9281Z" fill="#FBFBFC"/>
<path d="M55.2736 47.2198C55.9209 47.1122 56.4536 47.3376 57.0142 47.5706C58.792 48.3157 60.6844 48.8253 62.6171 49.194C63.1127 49.2888 63.7228 49.4706 64.237 49.1172C63.9211 50.8354 62.6388 52.044 61.1212 53.1246C59.3278 51.2323 57.6739 49.2427 55.4315 47.673C55.2736 47.5603 55.1992 47.4016 55.2736 47.2198Z" fill="#301665"/>
<path d="M54.6852 44.928C54.0533 44.7565 53.4215 44.5849 52.7896 44.4108C52.164 44.5747 51.5662 44.6873 51.5879 43.8705C52.0153 43.4403 52.641 43.5555 53.1954 43.471C53.8923 43.4249 54.5799 43.2841 55.2891 43.343C58.82 43.1458 62.3168 43.3635 65.7826 43.9422C65.7795 44.0113 65.7733 44.0805 65.7671 44.1496C62.7504 44.8947 59.6872 45.2635 56.5311 44.946C55.9241 44.8819 55.3015 44.9306 54.6852 44.928Z" fill="#FCFCFD"/>
<path d="M39.5237 35.231C40.4374 33.9097 42.1626 33.4385 43.5439 32.6089C44.2006 32.7344 44.374 33.2311 44.4855 33.6383C45.0368 35.6253 45.7987 37.5381 47.0222 39.3152C47.2018 39.5764 47.239 39.876 47.112 40.173C46.8735 40.5059 46.57 40.3727 46.3717 40.1832C44.3678 38.25 41.8312 36.8211 39.502 35.1977L39.5237 35.231Z" fill="#2C1465"/>
<path d="M55.2735 47.2198C57.6058 48.9277 59.8048 50.7278 61.1211 53.1246C61.0499 53.1937 60.9817 53.2628 60.9105 53.332C58.5752 51.7854 56.2399 50.2387 53.9076 48.6947C53.0497 48.4873 52.9506 47.7728 52.5232 47.2761C52.3249 46.7051 51.8697 46.2595 51.4639 45.7884C51.402 45.6783 51.3679 45.5605 51.3648 45.4376C51.3834 45.3146 51.4391 45.2045 51.5321 45.1072C51.7458 44.9971 51.9502 45.0381 52.1546 45.1252C52.2661 45.225 52.3807 45.3249 52.4922 45.4273C53.1333 45.7525 53.7373 46.1238 54.3722 46.4541C54.6758 46.7102 54.9762 46.9637 55.2735 47.2198Z" fill="#FBFBFC"/>
<path d="M49.4475 40.767C48.9024 38.1424 49.4537 35.5664 49.9431 32.9878C50.0391 32.486 50.0453 31.9994 49.7666 31.5334C49.9524 31.4822 50.1382 31.4335 50.3241 31.3823C51.6497 34.8648 51.3802 38.4061 50.9156 41.9552C51.2873 42.2804 51.1293 42.5467 50.7855 42.7976C50.4944 42.9282 50.2033 43.046 49.8904 42.8335C49.1843 42.2292 49.6365 41.4507 49.4475 40.767Z" fill="#FAFAFB"/>
<path d="M41.8934 45.1253C39.5456 44.8846 37.1267 44.9844 34.8967 44.1574C34.844 44.101 34.7883 44.0498 34.748 43.9884C34.7418 43.9781 34.81 43.9346 34.844 43.909C37.551 43.5684 40.2394 43.0819 43.0084 43.4045C44.7211 43.6043 46.4432 43.7579 48.1622 43.932C48.7321 44.2035 48.5431 44.4442 48.0909 44.6234C47.6883 44.7822 47.2454 44.8641 46.818 44.9691C46.5175 45.0408 46.2109 45.0946 45.8981 45.1099C44.5663 45.2482 43.2283 44.8411 41.8934 45.1253Z" fill="#FBFBFC"/>
<path d="M46.92 40.3138C47.143 39.4868 46.2727 39.0284 45.9568 38.3831C45.1918 36.8135 44.4608 35.2412 44.1542 33.5563C44.0892 33.1978 44.0706 32.783 43.5471 32.6115C43.7423 32.5398 43.9343 32.4706 44.1294 32.3989C44.2564 33.2593 45.2135 33.6562 45.7183 34.3092C47.1214 36.1246 48.3014 38.0016 48.8125 40.1423C48.9147 40.5725 48.9642 41.0564 49.3762 41.4072C49.6642 41.7401 49.6023 42.1165 49.5868 42.4904C49.5186 42.6056 49.4102 42.6824 49.2616 42.7208C48.0846 42.1805 47.5457 41.2177 46.92 40.3138Z" fill="#FBFAFC"/>
<path d="M46.0345 44.9152C46.1987 44.8256 46.3659 44.7385 46.5301 44.6489C47.292 44.9895 48.0044 44.2622 48.7632 44.5823C48.9521 44.7411 48.9738 44.9254 48.8778 45.1252C48.757 45.243 48.6176 45.2609 48.4628 45.1764C46.7686 45.5656 45.4368 46.5079 43.9873 47.2505C41.9586 48.2901 39.7626 48.8842 37.4521 49.2452C36.8884 49.3348 36.272 49.3144 36.4207 50.0237C36.0211 49.6677 35.9499 49.2068 35.8136 48.7638C36.3278 49.3451 36.7769 48.9431 37.2446 48.7024C39.5737 47.4937 41.7294 46.0265 44.4518 45.4043C44.9071 45.0765 45.4523 44.9587 46.0345 44.9152Z" fill="#FBFAFC"/>
<path d="M36.3647 38.5417C36.4174 38.8388 36.6621 38.9745 36.9873 39.0103C41.0354 39.4405 44.4671 41.023 47.7347 42.9204C47.936 43.0382 48.1776 43.1125 48.4006 43.2072C48.921 43.3071 49.0108 43.4812 48.54 43.7552C48.3944 43.768 48.2613 43.7373 48.1467 43.6579C44.2008 43.2943 40.9982 41.5428 37.7616 39.8554C37.2506 39.589 36.7798 39.2331 36.1077 39.2664C36.1324 39.0078 36.0674 38.7312 36.3647 38.5417Z" fill="#FAFAFB"/>
<path d="M33.6826 2.94399C33.4441 2.17068 34.0481 2.18861 34.5374 2.13227C35.2002 2.05545 35.671 2.31152 35.7051 2.84925C35.7484 3.5355 35.1104 3.77364 34.4135 3.81717C33.4968 3.87606 33.8251 3.20262 33.6826 2.94399Z" fill="#32205C"/>
<path d="M69.1244 3.80691C69.1647 5.19989 68.1922 6.46228 67.136 6.41107C65.9529 6.35217 65.6122 5.62496 65.5595 4.81324C65.4728 3.4561 66.4484 2.23212 67.5263 2.30126C68.6722 2.37295 69.0284 3.05664 69.1244 3.80691Z" fill="#2F1463"/>
<path d="M27.2776 4.25244C27.8072 4.71335 28.3771 5.13586 28.2811 5.78626C28.2656 5.89124 27.4603 6.08073 27.355 5.98343C26.7882 5.45594 27.3426 4.85163 27.2776 4.25244Z" fill="#442E53"/>
<path d="M42.426 2.46008C42.8318 3.01062 43.445 3.5125 43.0672 4.21412C43.0083 4.32422 42.3486 4.38568 42.234 4.27813C41.5681 3.65078 42.4663 3.09 42.426 2.46008Z" fill="#3C2C53"/>
<path d="M58.9715 2.42413C59.0613 1.98627 58.8104 1.41268 59.6962 1.52535C60.3962 1.61497 61.0157 1.80446 60.9258 2.55216C60.8484 3.20513 60.325 3.36901 59.6312 3.37157C58.6091 3.37669 59.1171 2.73397 58.9715 2.42413Z" fill="#311C5F"/>
<path d="M54.0594 21.4676C53.8085 21.7595 53.4431 21.7006 53.09 21.6852C52.7183 21.5085 52.4396 21.4855 52.4365 21.9464C52.4303 22.5251 52.4148 23.1064 52.4024 23.6851C52.1856 23.8592 51.9688 23.8438 51.752 23.6851C51.3339 23.0603 51.4515 22.3996 51.5569 21.7416C51.6374 21.4753 52.1082 21.0425 51.21 21.1885C51.9254 20.2436 51.0954 18.8634 52.4829 18.108C52.5758 18.108 52.6688 18.1055 52.7617 18.1055C53.1891 18.6458 53.4431 19.1272 53.1117 19.8569C52.836 20.451 53.8488 20.871 54.0594 21.4676Z" fill="#636361"/>
<path d="M52.4797 18.108C52.2164 18.7123 51.3616 19.1656 52.2722 20.0003C52.7213 20.41 51.3585 20.6072 51.2532 21.168C51.0704 21.3063 50.8691 21.3191 50.6492 21.2422C50.4727 20.7813 50.1134 20.3537 50.163 19.8518C50.2528 18.9684 49.6953 20.2129 49.6736 19.7443C49.4506 19.6828 49.2802 19.5957 49.3917 19.3704C49.2802 19.0555 49.144 18.7456 49.0696 18.423C49.0201 18.213 49.1006 17.9928 49.3794 17.9083C49.8656 17.7598 49.6922 18.1618 49.8254 18.2617C50.7359 18.9402 51.6279 18.5741 52.4797 18.108Z" fill="#999897"/>
<path d="M52.4703 15.5703C52.5323 15.788 52.4734 15.9621 52.2195 16.0671C51.7611 16.1951 51.9128 16.6945 51.5133 16.8609C51.4637 16.8583 51.408 16.8609 51.3615 16.8507C50.7049 16.6919 49.9461 17.2424 49.3514 16.6458C49.1996 16.4922 49.1532 16.2566 49.3762 16.2438C50.2868 16.1926 50.7111 14.9891 51.8664 15.5473C52.0181 15.6216 52.2659 15.5678 52.4703 15.5703Z" fill="#979695"/>
<path d="M48.1777 22.1513C48.1777 22.0668 48.1653 21.9823 48.1467 21.8978C48.4905 21.4241 48.8157 21.4087 49.1224 21.9234C49.5746 22.7402 50.0763 23.5519 49.3392 24.4379C49.2648 24.461 49.1967 24.4917 49.1317 24.5301C48.7445 24.5941 48.4905 24.4379 48.2892 24.1895C48.0507 23.5212 48.1591 22.835 48.1777 22.1513Z" fill="#F3F3F3"/>
<path d="M49.3361 24.4405C49.4569 23.5903 48.887 22.7812 49.1193 21.9259C49.3361 21.8952 49.5529 21.867 49.7697 21.8363C50.0671 21.885 50.2126 22.0565 50.3117 22.2716C50.4573 23.0756 50.6308 23.8822 49.7109 24.4891C49.587 24.4738 49.46 24.4558 49.3361 24.4405Z" fill="#989491"/>
<path d="M49.3917 19.3678C49.5435 19.4728 49.6952 19.5803 49.847 19.6853C50.3395 20.2871 50.4634 20.9323 50.1629 21.6212C50.0483 21.7415 49.8996 21.7825 49.72 21.7415C49.3019 21.2371 49.432 20.5457 48.6669 20.1053C48.3232 19.9081 49.1191 19.6213 49.3917 19.3678Z" fill="#989491"/>
<path d="M49.7231 21.744C49.8222 21.7286 49.9182 21.7056 50.0111 21.6697C50.2032 21.5238 50.293 21.2754 50.6182 21.2651C50.8288 21.2318 51.0425 21.1986 51.2531 21.1653C51.535 21.2318 51.8137 20.9399 52.077 21.1653C52.0956 21.1806 51.9314 21.342 51.8509 21.4341C51.4978 22.1153 51.0177 22.5839 50.0235 22.1639C49.9399 22.0538 49.8563 21.9437 49.7695 21.8336C49.7695 21.8362 49.7231 21.744 49.7231 21.744Z" fill="#3F3838"/>
<path d="M51.5137 16.8611C51.8729 16.6716 51.0212 15.7472 52.2198 16.0673C52.2167 16.3105 52.2167 16.5538 52.2136 16.7945C52.195 16.8764 52.1765 16.9558 52.1548 17.0352C51.7212 17.2733 51.3588 17.6292 50.6216 17.6805C50.9871 17.3476 51.2504 17.1043 51.5137 16.8611Z" fill="#BFBFBF"/>
<path d="M49.7543 13.9445C50.2467 13.7704 50.7144 13.6551 50.9034 14.2518C50.4047 14.3235 50.8352 14.8919 50.2839 14.9841C50.1074 14.641 49.9308 14.2927 49.7543 13.9445Z" fill="#EBEBEB"/>
<path d="M50.9561 26.2739C51.2596 26.5351 51.5631 26.7988 51.8697 27.06C51.8666 27.1445 51.8635 27.229 51.8604 27.3109C51.8295 28.3659 50.86 28.896 49.903 28.896C49.2402 28.896 48.8344 28.033 48.7911 27.334C49.4508 26.8961 49.4632 25.5492 50.9561 26.2739Z" fill="#9D9C9B"/>
<path d="M52.7956 26.5018C52.8482 26.7629 52.9411 27.0216 52.9473 27.2827C52.9566 28.0612 54.115 27.9588 54.3473 28.5579C53.6132 29.4414 52.5509 28.9497 51.535 29.0752C52.8761 28.4658 52.5849 27.7744 51.8974 27.0446C52.0429 26.7322 51.346 26.4326 51.7859 26.2022C51.9531 26.1151 52.5602 26.1509 52.7956 26.5018Z" fill="#9D9C9B"/>
<path d="M46.9512 27.2598C46.8676 27.1087 46.784 26.9576 46.7034 26.8091C47.0132 25.9052 47.6512 26.2842 48.2582 26.5351C47.7999 26.7502 47.9268 27.6848 46.9512 27.2598Z" fill="#CCC9C9"/>
<path d="M53.1148 16.0133V15.916C52.9693 15.1786 53.5237 15.3962 53.8737 15.5908C54.363 15.8623 54.809 16.1951 55.2519 16.5255C55.6205 16.5946 55.9643 16.6791 55.89 17.0914C55.1157 17.1195 54.5086 16.5075 53.5918 16.8174C53.1272 16.9736 53.5516 16.19 53.1148 16.0133Z" fill="#4C4C48"/>
<path d="M50.0237 22.1667C50.7701 22.1564 51.2688 21.7262 51.8511 21.4369C51.8821 22.1897 51.9099 22.94 51.9409 23.6928C51.9316 24.5378 51.052 23.6621 51.0241 23.9617C50.9839 24.4149 51.1759 24.8835 50.9839 25.3444C50.9157 25.5083 50.7794 25.6363 50.6308 25.7567C49.5901 25.6978 49.8565 24.9936 49.714 24.4892C50.0268 23.7363 50.0144 22.9502 50.0237 22.1667Z" fill="#DFDFDE"/>
<path d="M50.6274 25.7565C51.1044 24.8014 50.1504 23.7003 50.9123 22.8553C51.7734 22.8118 50.5809 24.0947 51.9375 23.6901C52.0924 23.6875 52.2472 23.685 52.399 23.6824C52.7676 24.2355 52.7118 24.8629 52.8543 25.4569C52.2132 25.5517 51.5751 25.6464 50.934 25.7412C50.8349 25.7488 50.7327 25.754 50.6274 25.7565Z" fill="#9B9996"/>
<path d="M48.4657 24.2331C48.6887 24.333 48.9086 24.4328 49.1316 24.5327C48.5927 24.7504 48.0538 24.9654 47.5179 25.1831C47.5365 24.9194 47.4467 24.6198 47.8586 24.4892C48.0259 24.3509 48.1157 24.0795 48.4657 24.2331Z" fill="#B8B6B5"/>
<path d="M48.4656 24.233C48.2643 24.3175 48.0598 24.4046 47.8585 24.4891C47.97 23.7107 47.3444 22.8631 48.1806 22.1512C48.8496 22.7914 48.3665 23.5391 48.4656 24.233Z" fill="#675D59"/>
<path d="M55.2488 16.5281C54.49 16.6587 54.0409 16.3642 53.7188 15.8162C53.4246 15.3169 53.2604 15.6523 53.1117 15.9161C52.771 15.7112 52.6595 15.4296 52.9321 15.1658C53.2078 14.8995 53.4648 15.1556 53.7033 15.2913C54.2113 15.0762 54.5891 15.2887 54.9546 15.5499C55.0568 15.5397 55.1559 15.5192 55.2519 15.4833C55.2519 15.8316 55.2519 16.1798 55.2488 16.5281Z" fill="#A09A9A"/>
<path d="M54.9544 15.5501C54.5146 15.5424 54.0686 15.5526 53.7031 15.2914C53.7217 15.1275 53.7434 14.9662 53.762 14.8024C54.8708 14.2774 54.781 15.0584 54.9544 15.5501Z" fill="#E6E6E6"/>
<path d="M46.1891 69.4256C45.8639 68.8315 45.0183 68.9826 44.6095 68.5652C45.0152 68.2016 45.5046 67.8021 46.0311 68.0121C46.7063 68.281 46.217 68.8827 46.1891 69.4256Z" fill="#D3C115"/>
<path d="M71.5836 62.7219C71.565 62.2814 70.5212 62.727 70.7752 62.0894C70.8217 61.9742 71.1252 61.8308 71.2584 61.8589C71.8252 61.9818 72.1411 62.2584 71.8066 62.7731L71.6765 62.8115L71.5836 62.7219Z" fill="#C4B21F"/>
<path d="M51.532 45.3685C51.5443 45.4428 51.5536 45.5171 51.5567 45.5913C51.885 46.1777 52.4116 46.6565 52.7956 47.2122C53.1642 47.7064 53.5359 48.2032 53.9045 48.6974C55.165 50.8739 55.8 53.2092 56.3977 55.5675C54.2637 53.7725 53.0186 51.5525 51.9129 49.2607C51.7333 48.8843 51.7519 48.4208 51.2501 48.1775C50.7638 47.8139 50.7205 47.2993 50.578 46.8153C50.6864 46.2366 50.1413 45.366 51.532 45.3685Z" fill="#FBFAFC"/>
<path d="M50.9187 46.8998C51.1913 47.2967 51.3059 47.7218 51.2563 48.175C50.8382 48.4285 51.0581 48.6999 51.1077 49.043C51.4669 51.5985 51.4112 54.1387 50.3117 56.6071C49.4847 53.583 48.6887 50.5666 49.5807 47.4503C49.6736 47.1251 49.6612 46.782 49.6984 46.4466C49.6767 46.0036 49.5466 45.5196 50.2962 45.3685C50.9776 45.7475 50.6183 46.4158 50.9187 46.8998Z" fill="#FBFBFC"/>
<path d="M44.1017 55.1271C45.0247 52.9275 45.5791 50.6306 46.6755 48.4772C46.6786 48.2979 46.7715 48.1494 46.9016 48.0111C47.2949 47.6834 47.4994 47.2609 47.7348 46.8537C48.2303 46.4389 48.5369 45.7834 49.4661 45.9319C49.59 46.1086 49.5869 46.2801 49.4382 46.4491C48.5184 49.2402 47.5737 52.0211 45.3839 54.3666C45.0432 54.7302 44.8048 55.1937 44.3773 55.4574C44.0274 55.6776 44.2101 55.2423 44.1017 55.1271Z" fill="#FBFAFB"/>
<path d="M49.4379 46.4489C49.4348 46.2799 49.4317 46.1084 49.4256 45.9394C49.3512 45.5988 48.93 45.4605 48.7658 45.1712C48.7504 45.0175 48.7318 44.8639 48.7163 44.7103C48.6296 44.362 48.4066 44.0343 48.5026 43.6604C49.153 43.4043 48.2827 43.3813 48.4004 43.2046C48.4251 43.156 48.4685 43.115 48.5212 43.0868C48.6636 42.8845 48.7875 42.6669 49.0694 42.567C49.184 42.6669 49.3017 42.7667 49.4163 42.8666C49.6145 42.8384 49.8096 42.8487 50.0047 42.8794C50.2277 42.7872 50.4507 42.6925 50.6737 42.6003C50.9587 42.7258 51.2436 42.8512 51.4635 43.051C51.7144 43.2942 52.0489 43.5093 51.9033 43.896C51.733 44.6104 52.464 44.2673 52.783 44.4081C53.1113 44.9766 51.3613 44.2775 52.1449 45.1225C51.9436 45.1353 51.7392 45.1481 51.5379 45.1609C51.1074 45.2736 50.745 45.5834 50.2339 45.4708C50.0512 45.796 49.8716 46.1212 49.6888 46.4438C49.6114 46.4464 49.5247 46.4489 49.4379 46.4489Z" fill="#3A256C"/>
<path d="M51.9131 43.8988C51.6932 43.6427 51.4763 43.3841 51.2564 43.128C50.9126 41.986 52.0029 41.5148 52.7772 40.8926C54.9422 39.0054 57.3859 37.3922 59.9132 35.8584C60.1827 35.6945 60.4057 35.4103 60.8238 35.4743C59.1049 37.4358 57.5593 39.5124 55.2643 41.0821C55.1001 41.2178 54.9576 41.3689 54.8214 41.5251C54.9979 41.5789 55.0846 41.3714 55.2581 41.4227C57.962 40.2576 60.7464 39.2922 63.856 39.1155C61.1088 40.6186 58.4854 42.2805 55.3231 43.1639C54.6851 43.6018 53.8643 43.4046 53.152 43.5915C52.8825 44.0806 52.2445 43.5736 51.9131 43.8988Z" fill="#FCFCFD"/>
<path d="M53.1516 43.5889C53.7649 43.0588 54.6228 43.3917 55.3228 43.1613C55.3197 43.2227 55.3073 43.2816 55.2856 43.3405C54.6321 43.763 53.9197 43.8347 53.1516 43.5889Z" fill="#B2ADC1"/>
<path d="M55.258 41.4199C54.9452 41.7554 54.6324 42.0908 54.3195 42.4262C54.1926 42.3136 54.0625 42.2009 53.9355 42.0882C54.1151 41.5505 54.6014 41.2458 55.2611 41.0793C55.2611 41.1946 55.2611 41.3072 55.258 41.4199Z" fill="#B6B6C7"/>
<path d="M52.7741 40.8926C52.517 41.753 51.337 42.1857 51.2533 43.128C51.0613 42.9539 50.8693 42.7772 50.6772 42.6031C50.9777 42.4443 50.9405 42.1985 50.9157 41.9578C51.8232 40.8158 51.9905 39.4612 52.4705 38.1988C53.2603 36.1298 54.5488 34.3246 56.4319 32.5654C56.4319 32.9956 56.4319 33.203 56.4319 33.4079C55.6143 36.0351 54.4745 38.5573 52.7741 40.8926Z" fill="#F9F9FB"/>
<path d="M48.5027 43.6632C48.7566 43.9884 48.8 44.3417 48.7164 44.713C47.9947 44.5543 47.2359 45.2559 46.5297 44.6516C47.1027 44.457 47.908 44.6183 48.162 43.932C48.1589 43.8424 48.1527 43.7528 48.1496 43.6632C48.2673 43.6606 48.385 43.6606 48.5027 43.6632Z" fill="#8F89AF"/>
<path d="M50.0114 42.8821C49.807 43.0741 49.6026 43.3225 49.4229 42.8692C49.4074 42.3827 49.392 41.8936 49.3765 41.4071C49.4012 41.1946 49.4229 40.9821 49.4477 40.7695C49.9402 41.4174 49.7698 42.1856 50.0114 42.8821Z" fill="#52527F"/>
<path d="M46.0343 44.9152C45.6285 45.3505 44.975 45.2327 44.4516 45.4017C43.6618 44.9126 42.7233 45.3684 41.8932 45.1226C43.2653 44.9229 44.6374 44.7564 46.0343 44.9152Z" fill="#593681"/>
<path d="M48.7694 45.1739C49.3331 45.2276 50.129 45.1457 49.4291 45.9421C48.9025 46.2826 48.3729 46.6257 47.8464 46.9663C47.6265 47.4605 46.9699 47.755 46.9358 48.3311C46.8491 48.3798 46.7623 48.431 46.6787 48.4796C44.8451 49.6114 43.4731 51.1811 41.5032 52.1874C40.8528 52.5203 40.2488 52.907 39.5117 53.1016C41.4165 50.1287 44.2164 47.842 47.5428 45.9574C47.9145 45.7474 48.376 45.6092 48.472 45.1739C48.5649 45.1739 48.6671 45.1713 48.7694 45.1739Z" fill="#FAF9FB"/>
<path d="M49.0728 42.5697C49.0264 42.8411 49.1719 43.2534 48.5246 43.0895C47.5118 42.1805 46.1769 41.6146 45.0278 40.8489C42.6956 39.2946 40.7412 37.4843 39.5054 35.1976C42.4726 36.4114 44.7738 38.2858 46.9202 40.3138C48.0352 40.808 48.2768 41.8681 49.0728 42.5697Z" fill="#FBFAFC"/>
<path d="M54.3752 46.4542C53.4367 46.5028 53.0062 45.9139 52.4952 45.4274C53.3159 45.5247 53.9478 45.8601 54.3752 46.4542Z" fill="#B1B1C3"/>
<path d="M50.2435 45.4735C50.6462 45.2814 51.0519 45.0945 51.5475 45.1636C51.532 45.2302 51.5258 45.2993 51.532 45.3685C50.3055 45.5989 51.2935 46.4362 50.9187 46.9023C50.3674 46.5284 50.7948 45.8422 50.2435 45.4735Z" fill="#444476"/>
<path d="M52.7989 47.2122C52.2011 46.7692 51.4454 46.4082 51.56 45.5939C52.2228 45.9985 52.6595 46.5285 52.7989 47.2122Z" fill="#B0B0C2"/>
<path d="M50.6183 21.2652C50.417 21.4009 50.2126 21.5341 50.0113 21.6698C50.0391 21.004 50.0794 20.3383 49.8471 19.6853C49.9369 19.4933 50.0237 19.3012 50.2033 18.912C50.4263 19.798 50.8011 20.4868 50.6183 21.2652Z" fill="#626060"/>
<path d="M51.2812 27.5619C51.1325 28.0945 50.51 28.1022 50.2127 28.1406C49.6551 28.2149 49.5777 27.6592 49.5096 27.3238C49.4414 26.9883 49.8038 26.7912 50.2065 26.8014C50.8197 26.8219 50.9993 27.2521 51.2812 27.5619Z" fill="#6A6967"/>
<path d="M46.9326 48.3286C46.3534 47.4708 47.4715 47.3862 47.8431 46.9637C47.9051 47.586 47.4808 47.9854 46.9326 48.3286Z" fill="#B5ACCC"/>
</g>
<defs>
<filter id="filter0_d_19_324" x="0" y="0" width="100" height="90" filterUnits="userSpaceOnUse" color-interpolation-filters="sRGB">
<feFlood flood-opacity="0" result="BackgroundImageFix"/>
<feColorMatrix in="SourceAlpha" type="matrix" values="0 0 0 0 0 0 0 0 0 0 0 0 0 0 0 0 0 0 127 0" result="hardAlpha"/>
<feOffset dy="4"/>
<feGaussianBlur stdDeviation="2"/>
<feComposite in2="hardAlpha" operator="out"/>
<feColorMatrix type="matrix" values="0 0 0 0 0 0 0 0 0 0 0 0 0 0 0 0 0 0 0.25 0"/>
<feBlend mode="normal" in2="BackgroundImageFix" result="effect1_dropShadow_19_324"/>
<feBlend mode="normal" in="SourceGraphic" in2="effect1_dropShadow_19_324" result="shape"/>
</filter>
</defs>
</svg>
