<svg width="100" height="90" viewBox="0 0 100 90" fill="none" xmlns="http://www.w3.org/2000/svg">
<g filter="url(#filter0_d_51_1792)">
<path d="M65.7918 38.5496C65.6462 37.6354 65.2869 36.7187 66.021 35.7201C67.2444 36.7674 68.8983 37.451 70.0784 39.0002C69.6912 37.049 68.5545 35.9198 66.6621 35.4461C64.3237 34.8622 62.6946 33.4539 60.4676 32.2043C61.7251 32.2043 62.614 32.2043 63.8529 32.2043C62.4034 31.2185 61.1552 30.4324 60.4831 29.2314C59.8017 28.0151 59.461 26.7655 59.938 25.2522C60.9942 26.0537 61.9481 26.7732 62.9299 27.5184C63.3728 26.4403 63.3852 25.242 64.5064 24.3637C66.0086 26.7348 65.3613 29.4644 66.4205 31.8945C66.1511 30.2454 66.4825 28.6962 67.1422 27.0523C68.7156 28.1867 69.4806 29.5592 69.5085 31.2415C69.5395 32.9725 69.8523 34.6651 70.5894 36.624C71.0323 35.0722 70.7567 33.7381 71.4319 32.4194C73.5783 34.3245 74.3216 36.5727 74.2751 38.99C74.2287 41.3714 72.9186 43.5786 72.5531 46.1623C73.6216 45.0971 74.4114 44.1343 75.1393 42.8668C76.0901 45.6476 75.5233 48.0546 74.3123 50.4386C73.0548 52.9121 69.9452 53.7751 67.6594 55.6725C68.9572 55.6725 69.9886 55.6725 71.2677 55.6725C69.6107 57.7133 67.9784 59.4674 64.8595 59.7106C61.1428 60 57.4571 60.4558 53.6971 61.3853C54.5488 61.8974 55.3014 62.3916 56.1036 62.8218C57.1412 63.38 56.689 63.7154 55.8837 63.9945C54.7811 64.3786 53.7373 64.5195 52.8763 63.5541C52.5511 63.1905 52.0276 62.9524 51.6157 62.64C50.7918 62.0203 49.9587 62.0664 49.1131 62.5913C48.7043 62.8448 48.3079 63.1137 47.9145 63.3851C46.2048 64.5579 45.7186 64.5681 43.6744 63.3749C44.7398 62.7219 45.765 62.0894 46.88 61.4083C43.312 60.4404 39.7347 60.0281 36.145 59.7618C32.9115 59.5211 31.0748 57.8542 29.3837 55.6981C30.5823 55.6981 31.6168 55.6981 32.6513 55.6981C32.7845 55.6238 32.9177 55.5496 33.0508 55.4753C26.9864 52.7355 23.8365 48.8535 25.4502 42.8949C26.24 44.1215 26.9895 45.1534 28.0519 46.2058C27.7979 43.9422 26.7417 41.9859 26.432 39.9093C26.0201 37.1463 26.9152 34.6779 29.1266 32.3938C30.0062 33.6869 29.4209 35.0261 30.0434 36.4626C30.8704 34.6907 31.0593 33.0468 31.112 31.4131C31.1677 29.7103 31.8181 28.2994 33.4875 27.037C34.0822 28.6834 34.5778 30.184 33.8468 31.8458C34.8937 31.2953 34.9463 31.2953 34.8999 30.376C34.8008 28.3301 35.2003 26.3584 36.0304 24.3201C37.2879 25.2087 37.3064 26.4403 37.6564 27.6157C38.7683 26.8859 39.3816 25.877 40.7568 25.4135C41.3019 28.3173 39.8369 30.3888 36.8759 32.1019C37.9445 32.1019 38.7343 32.1019 39.521 32.1019C38.1272 33.4769 36.5848 34.6113 34.5933 35.2591C33.5464 36.1656 31.8708 36.5011 31.3009 37.6917C32.0071 37.049 32.9734 36.4985 33.8499 35.866C34.1132 35.6765 34.4849 35.3667 34.8534 35.8122C34.9432 36.3577 35.0331 36.9031 35.126 37.4485C35.0517 38.1014 35.0207 38.7646 34.5189 39.3203C34.045 39.9246 33.6021 40.5596 32.8619 40.9745C30.446 42.329 29.7987 44.2726 30.1177 46.5413C30.1766 46.9535 30.2726 47.3632 30.285 47.6987C30.1394 46.6386 30.4491 45.517 30.5359 44.3878C30.6009 43.5146 31.2451 43.3456 32.1062 43.9115C32.8588 44.4057 33.2491 45.1176 33.534 45.8422C34.2309 47.6142 34.3888 49.4066 33.6176 51.2016C33.3915 51.7266 33.3203 52.2745 33.3513 52.8276C33.3575 53.0735 33.3358 53.3218 33.4287 53.5651C33.3451 53.1067 33.342 52.6433 33.3667 52.1798C33.7353 50.9763 34.0791 50.8329 35.3211 51.409C37.1237 52.2438 38.056 53.6778 38.9356 55.1245C39.3289 55.7698 39.7347 56.4048 40.1931 57.0245C41.0015 58.1179 42.132 58.7222 43.6744 58.8989C45.3035 59.0884 46.9172 59.3547 48.4999 59.7413C49.2432 59.9231 50.0175 60.0768 50.7826 59.9487C53.1984 59.5416 55.6143 59.1293 58.0208 58.6864C59.3402 58.4431 60.1424 57.5162 60.7402 56.5534C61.4464 55.419 62.1711 54.2949 62.9516 53.1938C63.026 53.076 63.1189 52.9659 63.218 52.8609C63.8777 52.2208 64.6613 51.7086 65.5595 51.322C66.5382 50.8995 67.2072 51.0301 67.3094 52.0569C67.3002 52.7201 67.4457 53.414 66.9316 53.8032C67.5882 53.1426 67.3714 52.2412 67.1298 51.3373C66.1604 49.6115 66.5227 47.8626 66.9811 46.1111C67.2971 45.4402 67.6532 44.7821 68.2045 44.2162C68.5391 43.8757 68.9634 43.6145 69.5364 43.7707C70.066 43.9141 70.1434 44.3263 70.1527 44.7079C70.1899 45.8883 70.2673 47.0637 70.385 48.2415C70.3571 47.6808 70.447 47.1277 70.5306 46.572C70.8713 44.3212 70.2735 42.3828 67.8793 40.9924C66.9192 40.4367 66.0303 39.771 65.7763 38.7339C65.7763 38.6776 65.7825 38.6136 65.7918 38.5496Z" fill="#FEFEFE"/>
<path d="M39.2328 64.3019C46.4618 66.0764 53.7062 66.0329 60.96 64.4017C61.2046 64.3454 61.4555 64.307 61.7064 64.2609C62.9887 63.2776 63.5647 64.3864 64.3545 64.8678C65.1877 65.6897 66.3677 66.2915 66.7487 67.4079C67.7677 68.2913 67.4239 68.701 66.1262 69.144C54.9482 72.9542 43.9034 72.7033 32.8989 68.6293C33.1622 68.1659 33.379 67.7895 33.5927 67.4105C34.336 66.1891 35.5192 65.2647 36.6528 64.307C37.5107 63.6924 38.3718 63.7104 39.2328 64.3019Z" fill="#FEFD00"/>
<path d="M66.7456 67.4078C65.9094 66.6703 65.07 65.9328 64.2337 65.1954C63.6453 64.4554 63.2055 63.4849 61.7467 64.1122C60.4737 63.9048 61.1954 63.6155 61.7188 63.3901C64.0944 62.371 66.2686 61.1009 68.4491 59.8309C72.4507 57.4956 75.6037 54.5355 78.0784 51.0556C78.2828 50.7688 78.3386 49.9059 79.1718 50.4974C81.4327 52.1029 83.9044 51.8878 86.7259 50.9378C85.5459 53.5163 83.9756 55.5546 82.1668 57.4828C78.3665 61.5337 73.6122 64.6346 68.1703 67.039C67.7336 67.2311 67.3124 67.5307 66.7456 67.4078Z" fill="#FEFD00"/>
<path d="M36.7332 64.6834C35.5191 65.4618 34.8996 66.7088 33.5926 67.413C30.836 66.6346 28.5255 65.2211 26.249 63.7948C21.3678 60.7323 17.3816 57.0245 14.687 52.4307C14.4423 52.0134 14.2317 51.5832 14.0056 51.1581C14.3804 50.9533 14.7397 51.025 15.0556 51.1299C17.1741 51.8392 19.178 51.8905 21.0302 50.5743C21.5536 50.203 22.0306 50.1134 22.4704 50.7945C25.9765 56.2256 31.4493 59.9718 37.8017 62.9549C38.988 63.5132 38.988 63.5132 39.2234 64.0739C38.3902 64.2609 37.1606 63.3442 36.7332 64.6834Z" fill="#FEFD00"/>
<path d="M35.2405 38.1296C37.5387 34.7035 40.7567 32.1685 45.3809 31.0238C53.0962 29.1136 60.8671 31.6947 64.8781 37.4587C65.1413 37.8377 65.1971 38.3549 65.7918 38.5495L65.7577 38.5137C67.2103 40.7799 67.8793 43.1587 67.2444 45.7193C66.7705 46.7999 66.882 47.9803 66.4205 49.0686C65.7608 50.6204 64.6024 51.9007 63.2861 53.0991L63.3171 53.0709C58.2778 59.2062 45.8951 60.297 38.9077 54.6585C37.2011 53.2834 35.4914 51.765 34.683 49.8496C33.2459 46.4363 32.3725 42.9615 34.3207 39.4458C34.6614 39.0258 34.7945 38.5035 35.2405 38.1296Z" fill="#FDFDFD"/>
<path d="M31.7471 73.9784C33.051 74.0629 33.5496 74.7799 34.0018 75.5711C34.1567 75.8425 34.0855 76.516 34.8288 76.114C36.3031 75.3125 37.734 76.0935 39.1711 76.1677C40.0848 76.2138 40.7879 76.708 40.7755 77.5966C40.7631 78.4493 40.187 78.905 39.2114 79.0868C38.9079 79.1432 38.4061 78.9844 38.3906 79.4505C38.3814 79.8243 38.7592 79.8883 39.1123 79.9882C39.4871 80.0957 40.1375 80.0573 39.8402 80.677C39.5986 81.1814 39.1402 80.8819 38.7964 80.8486C37.6938 80.7461 36.7646 80.467 37.0093 79.2891C37.1301 78.7156 35.535 78.4339 36.523 77.8014C37.0836 77.4429 37.8579 77.9371 38.5424 78.0344C38.9079 78.0856 39.1247 77.909 39.2083 77.6401C39.2796 77.4148 39.1464 77.2534 38.911 77.11C37.3159 76.1472 34.9899 76.8002 34.5655 78.3366C34.4355 78.8129 34.1877 79.243 33.5589 79.3506C32.9674 79.453 32.4408 79.3071 32.0754 78.8718C31.6541 78.375 31.7254 77.8296 32.2116 77.4839C33.082 76.8642 33.0634 76.2241 32.5833 75.4789C32.4408 75.2587 32.3293 75.0001 31.9515 74.995C31.6541 74.9898 31.4745 75.1665 31.3692 75.3535C31.2174 75.6198 31.3785 75.9501 31.6479 75.9859C32.2767 76.0704 32.2612 76.329 32.0382 76.6722C31.7687 77.087 31.3041 76.9487 30.9604 76.8028C30.186 76.4724 29.8794 75.8937 30.1179 75.2075C30.3533 74.5187 30.8458 73.9938 31.7471 73.9784Z" fill="#FCFCFC"/>
<path d="M39.521 6.79256C37.7339 7.1152 36.4021 6.52369 35.3087 5.39446C35.1074 5.18704 34.8503 4.88233 34.4105 5.04877C33.819 5.2741 34.3486 5.6454 34.2588 5.93731C34.1039 6.44943 35.1694 7.32517 33.5526 7.41991C32.8464 7.46088 32.546 7.37638 32.4469 6.75671C32.2022 5.20241 31.8987 3.65579 31.5704 2.11173C31.4465 1.52278 31.5889 1.26672 32.3756 1.23599C33.4473 1.1899 34.5127 0.944078 35.5813 0.95176C37.26 0.962003 38.2976 2.32426 37.3498 3.42533C36.5198 4.38813 37.0246 4.81831 37.8392 5.32276C38.3936 5.66588 38.7033 6.28812 39.5148 6.34445C39.6728 6.4904 39.6944 6.63892 39.521 6.79256Z" fill="#FCFA01"/>
<path d="M71.0075 4.24475C70.961 6.25996 69.4434 7.66319 67.3558 7.62478C65.0515 7.58125 63.5989 6.34703 63.6484 4.47777C63.7011 2.47023 65.2528 1.03372 67.3125 1.08749C69.6478 1.14894 71.0509 2.34988 71.0075 4.24475Z" fill="#FCFA01"/>
<path d="M9.85843 8.47239C9.16464 8.4391 8.60404 8.35716 8.05273 8.39813C6.58464 8.50568 5.66786 9.47104 5.91564 10.5824C6.22846 11.9753 7.51691 12.7845 8.96023 12.4516C9.27305 12.3799 9.84914 12.3978 9.65711 11.8729C9.52702 11.5195 9.45579 11.0074 8.79298 11.2456C8.10539 11.4914 7.7585 11.3992 7.58815 10.7846C7.38683 10.0651 8.19521 10.1189 8.5359 10.0753C9.26685 9.9806 10.0721 8.84112 10.7907 10.0677C11.9615 12.0675 11.9026 12.4414 10.3416 13.2096C8.60714 14.0648 6.80145 14.0776 5.58423 13.2428C4.29268 12.3594 3.66704 10.6694 4.17808 9.44543C4.70461 8.18304 6.61561 7.16647 8.46157 7.16391C9.35048 7.16135 9.35048 7.16135 9.85843 8.47239Z" fill="#FDFB01"/>
<path d="M18.5279 9.1074C18.5124 10.316 17.546 11.1533 15.9076 11.4478C14.2289 11.75 13.0458 11.3505 12.4913 10.1675C11.9586 9.02802 11.5993 7.83221 11.079 6.68761C10.7879 6.04489 11.2834 5.99624 11.7604 5.8554C12.2683 5.70432 12.6896 5.58909 12.9064 6.21133C13.2719 7.26631 13.7395 8.29568 14.1422 9.34298C14.4147 10.0497 14.8948 10.4594 15.8426 10.1854C16.7191 9.93192 16.7841 9.36859 16.5425 8.73355C16.1616 7.72466 15.8023 6.71065 15.3625 5.71969C15.1178 5.16659 15.1798 4.91821 15.9417 4.73128C16.6045 4.56996 16.9607 4.54436 17.1775 5.16147C17.5739 6.29583 18.0385 7.41482 18.4535 8.54406C18.531 8.74635 18.5124 8.96657 18.5279 9.1074Z" fill="#FDFA01"/>
<path d="M24.9543 8.8436C25.2238 6.84375 25.5211 4.87974 25.741 2.91062C25.8278 2.13731 26.5897 2.31911 27.0883 2.12707C27.6923 1.89661 27.9989 2.17828 28.2901 2.59566C29.2874 4.02193 30.3405 5.4226 31.3254 6.85655C31.4926 7.10237 32.2143 7.47622 31.4245 7.73997C30.9258 7.90641 30.3188 8.17015 29.7582 7.6273C28.6401 6.54671 27.3578 6.78485 26.8375 8.11894C26.6485 8.61827 26.6485 8.61826 24.9543 8.8436Z" fill="#FCFA01"/>
<path d="M39.5208 6.79267C39.5177 6.64415 39.5146 6.49308 39.5146 6.34456C40.0412 4.62126 40.5987 2.90051 41.085 1.16696C41.2491 0.580579 41.6177 0.447426 42.2743 0.447426C42.9092 0.447426 43.442 0.38341 43.7455 1.03381C44.4579 2.57531 45.2786 4.08352 46.0127 5.6199C46.1273 5.86316 46.6848 6.2703 45.9786 6.43162C45.4583 6.54941 44.8326 6.82084 44.3464 6.20116C43.3459 4.92597 42.234 5.01559 41.2987 6.39577C40.8743 7.02057 40.1744 6.85156 39.5208 6.79267Z" fill="#FCFA01"/>
<path d="M95.9836 8.97169C95.7606 9.37115 95.6863 9.94473 94.8439 9.59904C94.339 9.39163 93.8249 9.20471 93.3107 9.01266C92.8988 8.85902 92.5364 8.80013 92.3196 9.25592C92.1276 9.6605 92.2638 9.89352 92.7439 10.042C93.224 10.1905 93.6948 10.357 94.1563 10.5439C94.4412 10.6591 94.8562 10.7155 94.562 11.1585C94.3235 11.5221 94.1687 11.8703 93.5523 11.6296C93.1342 11.4683 92.6851 11.3505 92.2979 11.1508C91.5886 10.7846 91.344 11.1021 91.0435 11.5861C90.6997 12.1392 90.8112 12.4234 91.5329 12.618C92.0656 12.7614 92.5519 13.0175 93.0784 13.1814C93.5337 13.3248 93.5895 13.5245 93.3758 13.8599C93.2054 14.1262 93.0877 14.4489 92.6045 14.2799C91.3316 13.8318 90.0586 13.3862 88.8042 12.9048C88.3551 12.7307 88.5595 12.4106 88.7082 12.1392C89.5228 10.631 90.3312 9.12277 91.1519 7.61712C91.2913 7.36105 91.3842 7.01025 91.9046 7.20741C93.1651 7.67857 94.4257 8.14973 95.6863 8.61576C95.8814 8.68234 96.0549 8.74635 95.9836 8.97169Z" fill="#FCFA01"/>
<path d="M56.8467 4.75696C56.9582 3.57138 57.1224 2.38837 57.1626 1.2028C57.1936 0.329627 57.6799 0.117094 58.6183 0.255368C59.275 0.352672 59.944 0.388521 60.6037 0.470461C62.1523 0.662508 62.9855 1.35644 62.9545 2.41654C62.9235 3.57651 61.8921 4.55467 60.4085 4.53418C59.148 4.51882 58.448 4.6827 58.6276 5.88107C58.7144 6.45209 58.2436 6.60573 57.6241 6.49819C57.1441 6.41368 56.5401 6.45722 56.7445 5.76841C56.8405 5.44321 56.8065 5.0924 56.8312 4.7544C56.8374 4.75696 56.8405 4.75696 56.8467 4.75696Z" fill="#FCF901"/>
<path d="M88.0114 10.8563C87.9804 12.006 87.3672 12.3671 86.1283 12.2006C84.208 11.9446 82.8793 11.0791 82.5726 9.77571C82.2722 8.49027 83.2323 6.68502 84.5734 6.01414C85.896 5.3535 87.8627 5.63517 89.2905 6.59796C90.3188 7.28933 89.402 7.75793 89.1914 8.40321C88.3025 7.50186 87.5251 6.54419 85.9765 7.10753C84.8646 7.51211 84.1398 9.02288 84.6013 9.96007C85.2424 11.2583 86.5805 11.0535 88.0114 10.8563Z" fill="#FBF901"/>
<path d="M74.8293 77.3739C74.1108 76.7849 73.1723 76.4367 72.3082 75.9937C71.986 75.8298 72.1409 75.456 72.5559 75.2972C72.8812 75.1717 73.2342 75.077 73.5223 74.908C73.8289 74.7288 74.343 74.5623 73.9838 74.1244C73.6895 73.766 73.321 73.8991 72.9121 74.0476C72.4847 74.2038 71.9675 74.8184 71.5555 74.0451C71.1436 73.2692 72.1347 73.4152 72.4878 73.1949C73.2745 72.7007 74.1448 72.4703 74.9346 73.2461C75.0616 73.3716 75.1762 73.5278 75.4178 73.3819C75.7244 73.1975 75.5634 73.0183 75.4023 72.8493C74.9222 72.3525 74.7829 71.9402 75.6408 71.5843C76.5855 71.1925 76.508 71.971 76.7527 72.2552C77.4031 73.0106 77.9328 73.8376 78.5243 74.6289C78.7938 74.9899 79.1655 75.2716 78.4376 75.6378C77.6912 76.0142 77.5239 75.6403 77.143 75.2537C76.7744 74.8773 76.7217 73.6891 75.6191 74.57C75.2536 74.8619 74.5753 75.3664 74.8758 75.8119C75.2165 76.324 75.7399 75.7786 76.1704 75.6275C76.5545 75.4918 76.7186 75.6941 76.8828 75.9297C77.0284 76.1371 77.0717 76.3548 76.8208 76.4802C76.2014 76.7901 75.5572 77.0538 74.8293 77.3739Z" fill="#FBFBFC"/>
<path d="M47.1928 14.7921C47.5707 14.833 47.8463 14.6666 48.1127 14.4822C48.825 14.6717 49.2308 14.2236 49.7201 13.9522C50.1414 13.9522 50.4232 14.4668 50.925 14.1673C51.3896 14.4131 51.9161 14.5514 52.4085 14.7485L52.4953 14.7895C52.7245 14.9918 52.7678 15.2222 52.6532 15.4757C51.944 16.0519 50.7422 15.6652 50.0608 16.4616C50.5068 16.6587 51.1139 16.4488 51.532 16.7381C51.3586 17.7854 52.1701 16.5947 52.294 16.966C52.8546 17.1786 53.0528 17.5422 52.9444 18.0312C52.8762 18.1414 52.7833 18.2361 52.6625 18.3129C51.7086 18.9505 50.7082 19.2143 49.4507 18.4666C49.5591 18.8097 49.6737 19.0709 49.5839 19.3269C49.1843 20.154 49.7511 20.8787 49.9431 21.6443C49.9246 21.7621 49.8719 21.8696 49.7945 21.9695C49.6179 22.0847 49.4197 22.1129 49.2029 22.0822C48.8343 21.8261 48.441 21.8287 48.0321 22.013C47.6543 21.9183 47.4901 21.6725 47.3693 21.3908C47.2857 20.661 47.487 19.9031 47.0317 19.2143C46.8521 18.8302 46.7034 18.4461 47.0255 18.062C47.2516 17.7957 47.5149 17.5473 47.5923 17.2118C47.7596 16.3668 46.9574 15.6371 47.1928 14.7921Z" fill="#666161"/>
<path d="M49.6303 0.00943548C50.4015 0.00943548 51.1758 0.032481 51.9439 0.00175341C52.5757 -0.0238529 52.7306 0.23221 52.7368 0.690563C52.743 1.18733 52.3713 1.27695 51.9346 1.22317C50.6678 1.06698 50.3829 1.52021 50.5254 2.49581C50.6678 3.46117 50.5656 4.44701 50.6152 5.42517C50.6462 6.01411 50.5378 6.34444 49.6458 6.3598C48.6949 6.37772 48.6918 5.97058 48.6856 5.41237C48.6763 4.35739 48.5865 3.29985 48.602 2.24487C48.6144 1.52277 48.4038 1.12075 47.3972 1.24622C46.9326 1.30511 46.3317 1.42034 46.3038 0.71617C46.276 -0.0622621 46.9419 0.0939365 47.4684 0.0811333C48.187 0.0632089 48.9055 0.0760119 49.6272 0.0760119C49.6303 0.0529663 49.6303 0.0299205 49.6303 0.00943548Z" fill="#F9F602"/>
<path d="M79.6364 4.90539C79.6116 4.8337 79.6085 4.63397 79.528 4.60836C78.8931 4.41631 78.5059 4.11416 79.0107 3.59179C79.4815 3.10783 80.0081 3.60971 80.5005 3.67629C81.1045 3.75823 81.6899 3.9426 82.2783 4.09111C82.6345 4.18073 82.9721 4.2806 82.7894 4.70054C82.6717 4.97453 82.6655 5.35862 82.1328 5.20243C81.3925 4.98477 81.3925 5.49434 81.2624 5.80161C80.9279 6.60309 80.6616 7.42249 80.3488 8.23165C80.1908 8.64135 80.1784 8.96399 80.7576 9.16372C81.2686 9.34296 80.9186 9.69121 80.8598 9.93447C80.7731 10.2981 80.3983 10.1777 80.1165 10.106C79.2337 9.88326 78.3665 9.61695 77.4745 9.41978C76.5608 9.21749 77.0192 8.52356 77.236 8.50564C79.1006 8.35712 78.6081 6.98463 79.116 6.15242C79.3452 5.78113 79.4536 5.35606 79.6364 4.90539Z" fill="#FBF801"/>
<path d="M19.5436 5.0309C19.3268 5.12564 19.1379 4.87726 18.9954 4.42403C18.8251 3.88629 19.2742 3.90934 19.652 3.79155C22.2599 2.98239 22.2568 2.97727 22.9785 5.17685C23.2077 5.87078 23.4647 6.55959 23.6661 7.25864C24.1183 8.84624 22.2382 10.4364 20.3179 10.1163C19.7635 10.0241 19.8007 9.65539 19.7171 9.33788C19.6211 8.96659 19.9029 8.9333 20.2436 8.92305C21.8418 8.86672 22.0958 8.14718 21.6281 7.03587C21.4268 6.55703 21.2967 6.05771 21.1666 5.56095C21.0179 4.98224 20.7547 4.58535 19.5436 5.0309Z" fill="#FBF801"/>
<path d="M26.8717 79.5784C25.2209 79.3685 23.9913 78.8102 23.3439 77.617C23.1457 77.2483 22.5634 76.7105 23.2077 76.4314C23.759 76.1933 24.2019 76.6721 24.4125 77.1638C24.6665 77.7527 25.1837 78.1522 25.862 78.4108C26.2368 78.5542 26.6394 78.7514 26.9275 78.3288C27.262 77.8372 26.7571 77.7655 26.3792 77.6605C25.2395 77.3456 25.6421 77.1638 26.2677 76.5671C27.1474 75.7272 27.615 74.598 28.2779 73.6019C28.5318 73.2178 28.6836 72.6801 29.4951 73.0488C30.257 73.3945 29.9504 73.753 29.653 74.1858C29.2225 74.8105 28.8601 75.4686 28.4451 76.1037C28.0611 76.69 27.6708 77.1535 28.281 77.914C28.8663 78.6464 27.869 79.5989 26.8717 79.5784Z" fill="#FAFAFB"/>
<path d="M75.4952 9.16114C75.3961 9.14065 75.297 9.11505 75.1979 9.09712C71.3821 8.40831 71.3821 8.40831 72.2988 5.27154C72.5033 4.57505 72.6767 3.87087 72.9183 3.18462C73.0763 2.73907 73.0701 2.14245 74.0643 2.38315C74.8758 2.57776 75.1111 2.78773 74.8076 3.50726C74.3895 4.49823 74.216 5.55833 73.8599 6.56722C73.609 7.28163 73.7484 7.69133 74.7302 7.76047C75.0802 7.78608 75.4271 7.88594 75.7678 7.96788C76.1983 8.07031 76.7093 8.11384 76.5266 8.68486C76.3779 9.1637 76.0248 9.27637 75.4952 9.16114Z" fill="#FBF801"/>
<path d="M54.7189 28.6169C54.8087 29.4491 53.861 29.8716 53.3375 29.9125C51.0765 30.0841 48.7753 30.3427 46.1922 29.7205C46.759 29.6027 46.9882 29.5541 47.4466 29.4593C46.7218 29.2519 45.901 29.5156 45.6688 28.8396C45.3404 27.9793 46.2665 27.6643 46.7404 27.1522C47.3072 27.0165 47.5983 26.5146 48.1868 26.4045C48.7102 26.4583 48.958 26.7297 49.0355 27.1343C49.0509 27.7616 49.3576 28.4069 50.073 28.4632C51.0115 28.5375 51.3088 27.7488 51.6619 27.1547C51.7517 27.0574 51.8694 26.996 52.0181 26.9806C52.8513 27.5337 52.9968 28.1534 52.2938 28.8601C53.0154 28.9216 53.6534 28.6041 54.341 28.4709C54.4959 28.4709 54.6229 28.5196 54.7189 28.6169Z" fill="#767170"/>
<path d="M67.0863 74.995C66.5195 75.0513 66.0952 74.9924 66.0054 74.3932C65.9248 73.8427 66.027 73.3946 66.5629 73.0412C67.6531 72.3217 69.4464 72.5573 70.1495 73.6711C71.0229 75.0564 71.664 76.5416 72.4321 77.973C72.7171 78.503 72.2122 78.5005 71.8684 78.6541C71.4101 78.8615 71.1375 78.8129 70.9331 78.3852C70.3508 77.1613 69.7468 75.9475 69.1274 74.7363C68.9477 74.3907 68.7124 74.0552 68.4367 73.7556C68.254 73.5559 67.9473 73.4176 67.6221 73.5764C67.3774 73.6942 67.235 73.9169 67.4115 74.1141C67.8327 74.5878 67.139 74.7159 67.046 75.0231L67.0863 74.995Z" fill="#FAFAFB"/>
<path d="M56.5991 75.2792C58.9313 74.4906 61.0839 75.4457 61.4711 77.0384C61.7344 78.1164 62.0131 79.1893 62.2857 80.2648C62.3972 80.7052 62.4746 81.0919 61.7003 81.1994C60.9724 81.2993 60.8083 81.0074 60.7556 80.5157C60.7277 80.2648 60.607 80.0215 60.5636 79.7732C60.2167 77.8399 59.9906 75.8503 56.5991 75.2792Z" fill="#F8F7F9"/>
<path d="M25.1808 75.0103C23.9233 75.0462 22.768 74.1269 22.8083 73.095C22.8176 72.8415 22.6875 72.4395 23.3038 72.5112C23.6352 72.5496 24.0503 72.4625 24.0565 72.9337C24.0627 73.3767 24.1649 73.8145 24.871 73.8145C25.3976 73.8145 25.7135 73.5328 25.8993 73.159C26.1285 72.693 26.1719 72.25 25.5648 71.9299C25.2241 71.7507 24.8246 71.6073 25.2613 71.1822C25.6484 70.8032 25.9737 70.9927 26.3267 71.1796C27.2807 71.6918 27.7391 72.4011 27.4634 73.3434C27.2002 74.214 26.1161 74.9822 25.1808 75.0103Z" fill="#F9F8FA"/>
<path d="M67.0458 75.0232C67.3679 75.123 67.8759 74.8644 68.0245 75.2203C68.5573 76.4981 69.0435 77.7886 69.505 79.0843C69.6785 79.5734 69.0404 79.3993 68.8019 79.5452C68.4643 79.7552 68.0958 79.6861 67.9905 79.2866C67.7396 78.3136 67.3215 77.6401 65.9153 78.2982C65.6335 78.4288 65.4879 78.2009 65.4167 77.9679C65.3454 77.7297 65.1131 77.425 65.5746 77.3533C66.9126 77.1459 67.2069 76.5826 66.6215 75.5916C66.4511 75.3048 66.987 75.228 67.0861 74.9924C67.0861 74.995 67.0458 75.0232 67.0458 75.0232Z" fill="#F9F9FB"/>
<path d="M65.7421 79.0945C66.473 79.1508 67.2256 78.5414 67.2876 79.3992C67.3402 80.1316 66.4389 80.0394 65.9155 80.1008C64.5032 80.2724 63.1775 79.3864 62.9329 78.2137C62.6944 77.0819 63.6638 75.8963 65.039 75.6428C65.3797 75.5788 65.7668 75.4379 65.9774 75.8092C66.219 76.2317 65.9031 76.4084 65.4695 76.5518C64.5527 76.854 64.2647 77.4429 64.5155 78.1983C64.7138 78.8154 65.3425 79.01 65.7421 79.0945Z" fill="#F9F8FB"/>
<path d="M48.2426 79.8883C48.4192 78.8743 47.4249 79.3429 46.9418 79.2174C46.3502 79.0638 45.8206 79.2226 45.548 79.7372C45.2476 80.3057 45.6007 80.6232 46.2077 80.8025C46.7435 80.9612 46.7435 81.2378 46.536 81.5988C46.2913 82.0264 45.9104 81.9368 45.5015 81.8088C44.4113 81.4657 43.829 80.8101 43.9405 79.855C44.0582 78.8538 44.7613 78.1957 46.0157 78.1471C46.821 78.1138 47.6386 78.2572 48.4501 78.3212C48.9457 78.8948 49.1408 79.4428 48.2426 79.8883Z" fill="#F0EFF4"/>
<path d="M52.7588 18.1056C52.7712 17.6677 52.5451 17.322 52.1548 17.0403C52.0898 16.9328 52.0805 16.8252 52.1269 16.7126C52.3933 16.3951 52.5358 15.9444 53.1831 16.0212C53.849 16.751 55.0631 16.3592 55.822 16.9021C55.9304 16.9814 56.0109 17.0762 56.0573 17.1889C56.0697 17.5141 55.8963 17.7778 55.5618 17.9186C54.7875 18.2464 54.964 18.7022 55.2583 19.1913C54.6605 19.8417 54.5676 20.6355 54.3477 21.3909C54.2578 21.4958 54.1371 21.547 53.9822 21.5445C53.0468 20.9402 52.3964 20.1925 52.9229 19.1964C53.1707 18.7278 52.3345 18.505 52.7588 18.1056Z" fill="#999897"/>
<path d="M58.0487 81.1661C55.3975 81.3504 55.3417 81.312 54.7006 79.0305C54.6572 78.8717 54.6169 78.649 54.4838 78.5849C54.0842 78.3903 53.7869 78.1445 54.0037 77.7783C54.2174 77.4173 54.7192 77.5428 55.1063 77.5376C55.6174 77.53 56.02 77.7399 56.1253 78.1599C56.2213 78.526 56.1872 78.9153 56.2244 79.2942C56.3266 80.3492 56.562 80.4388 57.8226 79.9139C58.665 80.234 58.4327 80.6898 58.0487 81.1661Z" fill="#F7F6F9"/>
<path d="M41.2678 80.5106C41.466 79.5273 41.7262 78.4544 41.8842 77.3713C41.9678 76.8079 42.2032 76.7106 42.8598 76.7926C43.5814 76.8848 43.4761 77.1792 43.3925 77.5889C43.1695 78.667 42.9744 79.7501 42.7947 80.8358C42.7173 81.3095 42.4726 81.4657 41.8842 81.3889C41.274 81.3095 41.1253 81.056 41.2678 80.5106Z" fill="#F6F6F8"/>
<path d="M58.0484 81.1661C57.9926 80.7462 58.2156 80.2904 57.8223 79.9114C57.6984 79.2866 57.5776 78.6618 57.4537 78.0371C57.367 77.5915 57.3205 77.1997 58.0856 77.1178C58.8103 77.041 58.928 77.3431 58.9961 77.8348C59.1417 78.8821 59.343 79.9242 59.5444 80.9664C59.6249 81.3838 59.6497 81.6783 58.9683 81.7653C58.3086 81.8498 57.9679 81.7704 58.0484 81.1661Z" fill="#F9F9FB"/>
<path d="M48.7877 27.3339C48.7784 26.9908 48.6235 26.7143 48.2549 26.535C47.6603 26.3481 47.2205 26.7015 46.7156 26.8397C46.1922 26.9319 45.9227 26.7015 45.7678 26.3302C44.9161 25.7387 45.3776 25.3315 46.0466 24.9525C46.2696 24.9269 46.4152 25.0268 46.5422 25.16C46.6382 25.2624 46.6165 25.4135 46.7497 25.498C46.7621 25.3725 46.8085 25.2598 46.9138 25.1676C47.0749 25.0678 47.2576 25.0089 47.4466 24.9577C48.0072 24.8015 48.4532 24.4353 49.0478 24.3406C49.1841 24.3149 49.3204 24.3124 49.4567 24.3226C49.5929 24.3508 49.7137 24.402 49.819 24.4788C50.1226 24.8322 50.2062 25.3213 50.7668 25.5159C50.8907 25.5748 51.0022 25.6465 51.1044 25.7284C51.3491 26.0101 51.4296 26.2687 50.965 26.4531C50.2434 26.407 49.9801 26.5248 49.3297 27.1777C49.1965 27.3083 49.0138 27.3826 48.7877 27.3339Z" fill="#63615F"/>
<path d="M48.2429 79.8883C48.6858 79.3992 48.4318 78.8487 48.4504 78.3212C48.4473 77.8961 48.1314 77.3584 49.1101 77.3507C50.0981 77.343 49.9556 77.8833 49.9185 78.3775C49.8534 79.3019 49.7512 80.2212 49.6893 81.1456C49.6552 81.6398 49.6366 82.029 48.7787 81.9983C47.9145 81.9675 48.1252 81.5297 48.1375 81.1456C48.1499 80.7256 48.2057 80.3083 48.2429 79.8883Z" fill="#F9F9FA"/>
<path d="M52.4084 14.746C51.789 14.8305 51.1447 14.9585 50.9032 14.2518C50.5036 14.1929 50.1846 13.9266 49.7541 13.9445C49.4413 14.6154 49.2276 15.4886 48.1125 14.4797C48.224 13.0816 49.5404 13.3555 50.5965 13.2506C51.9748 13.1174 52.3093 13.8293 52.4084 14.746Z" fill="#8B8987"/>
<path d="M50.9558 26.2739C51.2903 26.0895 50.9155 25.9205 50.9372 25.7438C51.3987 25.1702 52.142 25.3264 52.7924 25.247C53.5668 25.3802 53.161 24.4558 53.8021 24.4737C54.3442 25.1395 55.6016 25.4417 55.3198 26.5248C55.2238 26.617 55.1061 26.681 54.9667 26.7194C54.2698 26.7501 53.576 26.5811 52.8761 26.6708C52.3867 26.5094 51.9995 26.5274 51.8911 27.0472L51.8664 27.0625C51.1974 27.0907 50.8505 26.8602 50.9558 26.2739Z" fill="#585553"/>
<path d="M52.7957 26.5018C53.5359 26.046 54.2359 26.4352 54.9483 26.5761C56.0912 27.1241 55.67 27.8333 55.2394 28.5401C55.066 28.5657 54.8925 28.5913 54.7222 28.6143C54.5983 28.5964 54.4713 28.5759 54.3474 28.558C52.7431 28.2763 52.5851 28.0664 52.7957 26.5018Z" fill="#C5C5C5"/>
<path d="M47.5149 25.1831C47.3105 25.2189 47.1092 25.2522 46.9048 25.2881C45.9291 24.5839 46.9048 23.575 46.3318 22.8068C46.3597 22.456 46.3875 22.1052 46.4154 21.7569C46.7282 21.5009 46.9853 21.1321 47.5428 21.3805C47.7441 21.5521 47.9424 21.7262 48.1437 21.8978C48.2459 21.9874 48.2923 22.0949 48.2954 22.2153C47.899 22.94 48.2923 23.7158 48.0817 24.4533C47.9176 24.7119 47.8339 25.0089 47.5149 25.1831Z" fill="#DCDCDA"/>
<path d="M53.8052 24.4738C53.7494 24.6325 53.5822 24.8374 53.6503 24.9424C54.6105 26.4096 53.1702 25.3469 52.8574 25.4622C52.3928 24.8707 52.3526 24.1716 52.1327 23.5161C52.0707 23.0244 52.0335 22.5302 52.1389 22.0437C52.2163 21.6827 52.3061 21.2678 52.9751 21.4599C53.4304 21.7979 54.2543 21.9823 53.7432 22.7248C53.9569 23.301 53.4831 23.8951 53.8052 24.4738Z" fill="#EBE8E7"/>
<path d="M47.1714 18.1106C47.1931 18.446 47.2148 18.784 47.2364 19.1195C47.4563 19.5113 45.9697 19.5317 46.9143 20.1412C47.0289 20.2154 46.6542 20.725 46.2825 20.9068C45.0529 20.5611 44.9971 19.7648 45.2015 18.9018C45.3069 18.4588 45.5206 18.0312 45.6878 17.5985C45.7807 17.5601 45.9139 17.5882 45.9635 17.5575C46.2391 17.3782 46.4281 18.464 46.7811 17.5985C46.7997 17.5498 47.1962 17.8417 47.1714 18.1106Z" fill="#949392"/>
<path d="M34.8502 35.8148C33.187 36.4934 31.9357 37.5867 30.5698 38.7826C31.0344 36.7878 32.4746 35.7585 34.59 35.2643C34.6768 35.4461 34.7635 35.6304 34.8502 35.8148Z" fill="#351D67"/>
<path d="M47.1712 18.1106C46.7128 17.8673 46.0407 18.0491 45.6876 17.5959L45.6845 17.514C45.7124 16.8303 45.3562 16.1748 45.4801 15.4834C45.5359 15.3707 45.6195 15.276 45.731 15.1966C46.2513 15.3323 46.5642 15.1812 46.6633 14.7357C46.7655 14.7536 46.8677 14.7715 46.9699 14.7895C47.4686 15.5909 46.9513 16.6357 47.8619 17.3398C47.8495 17.7316 47.6141 17.9851 47.1712 18.1106Z" fill="#767372"/>
<path d="M46.2851 20.9068C46.2634 20.4535 47.3196 19.606 45.4736 19.711C46.3966 19.8928 46.6444 19.2116 47.236 19.122C47.9514 19.8185 47.6851 20.6072 47.5457 21.383C46.9944 21.15 47.0346 22.1231 46.4183 21.7595C45.898 21.5239 46.4183 21.1808 46.2851 20.9068Z" fill="#574949"/>
<path d="M45.7679 26.3276C46.0776 26.4889 46.3905 26.6477 46.7002 26.809C47.1059 26.8371 47.1369 27.0087 46.948 27.2596C46.7993 27.9408 45.74 28.1149 45.6688 28.837C44.3463 27.9792 44.3649 27.5208 45.7679 26.3276Z" fill="#B4AFAF"/>
<path d="M45.6442 15.5551C45.5141 16.2106 46.6136 16.8482 45.6844 17.5165C44.6035 17.9364 44.3061 17.3577 44.0986 16.6664C44.2132 15.9161 44.9101 15.7164 45.6442 15.5551Z" fill="#ABA9A9"/>
<path d="M47.8618 17.3399C45.8517 16.8994 47.2362 15.6473 46.9698 14.7895C47.0441 14.7587 47.1216 14.7587 47.1959 14.7895C47.6016 15.6089 48.2459 16.3822 47.8618 17.3399Z" fill="#A7A5A5"/>
<path d="M55.3416 15.299C56.7602 15.1403 56.0478 16.4513 56.8035 16.7483C56.6084 17.0761 56.3885 17.3603 55.8743 17.0812L55.8836 17.094C55.6637 16.8482 55.2828 16.756 55.0783 16.4948C54.9142 16.1927 54.9018 15.8828 55.0257 15.5704C55.0907 15.445 55.196 15.3554 55.3416 15.299Z" fill="#848484"/>
<path d="M55.874 17.0812C56.2674 17.1273 56.509 16.8892 56.8032 16.7483C56.6607 17.7239 55.0873 18.0798 55.2546 19.1912C54.4431 18.2873 54.471 18.2053 55.5922 17.7418C55.9112 17.6087 55.9422 17.3475 55.874 17.0812Z" fill="#2E2739"/>
<path d="M46.3349 22.8068C46.9296 22.8196 46.9791 23.1524 46.7995 23.4751C46.4495 24.1101 46.7499 24.6888 46.9048 25.288C46.2141 25.877 46.4681 24.8297 46.0469 24.95C46.4371 24.2612 46.1212 23.5109 46.3349 22.8068Z" fill="#22182F"/>
<path d="M45.6442 15.5551C45.3561 16.1415 44.5601 16.2439 44.0987 16.6664C43.8261 15.9801 44.0863 15.6524 45.3995 15.0225C45.6906 14.961 45.7774 15.0558 45.6968 15.2836C45.6783 15.3733 45.6628 15.4655 45.6442 15.5551Z" fill="#B9B7B4"/>
<path d="M55.2362 28.54C55.1743 27.8819 55.7163 27.1624 54.9451 26.576C55.069 26.5581 55.1959 26.5401 55.3198 26.5248C55.9548 27.2162 56.3977 27.9024 55.2362 28.54Z" fill="#9D9C9B"/>
<path d="M61.7436 64.1148C63.1219 63.3799 63.6205 63.5976 64.2307 65.198C63.4719 64.7294 63.0104 63.7103 61.7002 64.2634C61.6786 64.207 61.694 64.1558 61.7436 64.1148Z" fill="#9A9133"/>
<path d="M53.1144 16.0134C52.6838 16.1721 52.7551 16.7252 52.2131 16.7969C51.9343 16.6305 51.925 16.3975 51.9746 16.1465C52.0427 15.8956 52.2719 15.742 52.4732 15.5704C52.4825 15.3092 52.4887 15.048 52.498 14.7868C52.8077 14.7817 53.1206 14.7766 53.4303 14.774C53.5542 14.6947 53.6781 14.6921 53.802 14.7766C53.9073 14.9328 53.9258 15.0941 53.8422 15.258C53.6781 15.4475 53.2816 15.4552 53.263 15.7624C53.2413 15.8572 53.1918 15.9417 53.1144 16.0134Z" fill="#493E3A"/>
<path d="M53.7651 14.8049C53.6536 14.7946 53.5421 14.7844 53.4275 14.7741C53.7093 14.3721 53.9509 14.0136 54.6881 14.2697C55.3168 14.4899 55.4717 14.8049 55.3416 15.2991C55.2827 15.3503 55.2518 15.4143 55.2518 15.486C55.2177 15.614 55.1217 15.6627 54.9699 15.6294C54.5704 15.3503 54.2978 14.9483 53.7651 14.8049Z" fill="#221D33"/>
<path d="M36.7334 64.6833C37.0369 62.9984 38.2634 63.9126 39.2267 64.079C39.205 64.1533 39.2081 64.2301 39.2329 64.3044C38.3904 64.3837 37.3714 63.6821 36.7334 64.6833Z" fill="#938832"/>
<path d="M35.2406 38.1296C35.2747 38.6161 34.8968 38.9618 34.6211 39.3408C34.4229 39.3229 34.395 39.1795 34.3269 39.0642C34.5933 38.5265 34.8565 37.9888 35.1229 37.451C35.1632 37.6789 35.2003 37.9043 35.2406 38.1296Z" fill="#5A5386"/>
<path d="M45.697 15.2836C45.5979 15.1966 45.4988 15.1095 45.3997 15.0225C45.7713 14.7766 46.0284 14.1851 46.6633 14.7382C46.7501 15.4142 46.3877 15.5474 45.697 15.2836Z" fill="#F4F4F4"/>
<path d="M53.7462 22.7223C53.8391 22.2409 53.0958 22.1231 53.0896 21.6852C53.3374 21.3779 53.7493 21.5828 54.059 21.4676C54.1551 21.442 54.2511 21.4164 54.344 21.3907C54.121 21.8261 54.4741 22.4406 53.7462 22.7223Z" fill="#2A2237"/>
<path d="M34.3265 39.0642C34.4256 39.1564 34.5216 39.2486 34.6207 39.3408C32.8708 43.786 33.4035 47.9803 36.5256 51.9391C42.0448 58.9424 54.5329 60.0332 61.8548 54.1361C62.3163 53.7622 62.6322 53.2399 63.3167 53.0683C62.3906 54.8326 61.446 56.5892 59.9903 58.1102C58.8907 59.2599 57.1873 59.1805 55.6727 59.4622C54.4276 59.6927 53.1608 59.8258 51.9436 60.1817C49.9087 60.7758 48.0442 59.8616 46.0991 59.6594C45.4952 59.5953 44.9067 59.347 44.3089 59.3418C41.382 59.3188 39.9821 57.7747 38.8918 55.8133C38.0153 54.2436 37.0149 52.7201 35.2092 51.7009C34.2367 51.1529 33.6018 51.1581 33.5801 52.3129C33.3447 52.5306 33.7938 53.0427 33.1062 53.0632C32.8956 52.1977 33.2982 51.3936 33.4748 50.5691C33.9301 48.4182 33.7566 46.3466 32.2111 44.4851C31.9664 44.1906 31.6753 43.7476 31.1363 43.9012C30.647 44.0421 30.9133 44.4927 30.8824 44.7975C30.743 46.1674 30.6439 47.5399 30.5169 49.0712C28.9497 45.3915 29.4081 42.749 31.8952 41.1383C32.8274 40.5314 33.673 39.8836 34.3265 39.0642Z" fill="#2F1465"/>
<path d="M66.9811 45.9242C67.2692 43.3764 66.5692 40.9361 65.7546 38.5138C66.6714 39.6123 67.8174 40.5059 69.047 41.3842C71.054 42.8156 71.2739 44.7976 70.8806 46.8461C70.7474 47.5451 70.5089 48.2314 70.2333 49.2351C69.8554 47.4785 69.7749 46.0164 69.7563 44.5517C69.7532 44.329 69.9204 44.0089 69.5178 43.9065C69.1988 43.8245 68.9696 44.0166 68.7218 44.1804C68.0125 44.6465 67.8948 45.4044 67.3869 45.9678C67.2382 46.0574 67.1019 46.0446 66.9811 45.9242Z" fill="#301665"/>
<path d="M66.9811 45.9241C67.1173 45.9369 67.2536 45.9497 67.3899 45.9625C66.8014 47.8062 66.8541 49.655 67.3496 51.5038C67.4488 51.7752 67.6222 52.0748 67.0182 52.0594C66.9594 51.4013 66.7085 51.199 65.8599 51.514C64.8378 51.893 64.3174 52.7713 63.283 53.099C64.4042 51.386 65.8072 49.8009 66.4298 47.8651C66.6342 47.2224 66.4855 46.508 66.9811 45.9241Z" fill="#301B64"/>
<path d="M67.0182 52.0619C67.3249 51.9569 67.235 51.6906 67.3496 51.5062C67.8514 52.51 67.7213 53.4344 66.7488 54.4561C66.8541 53.524 66.9377 52.7942 67.0182 52.0619Z" fill="#514A84"/>
<path d="M33.1003 53.0631C33.2583 52.8122 33.4163 52.5638 33.5742 52.3129C33.6795 52.953 33.7848 53.5932 33.8963 54.282C33.1747 54.031 33.1716 53.5317 33.1003 53.0631Z" fill="#65488A"/>
<path d="M47.5459 67.9123C47.2857 68.4654 47.2919 69.0082 47.5676 69.5613C48.0477 70.5215 47.6543 71.1028 46.4061 71.1028C45.4181 71.1028 44.331 71.0567 44.1513 69.9249C44.8172 69.5792 45.2447 70.0273 45.8796 70.3218C45.3438 69.9556 44.8327 69.7918 44.4425 69.487C43.6651 69.3436 43.8633 68.578 43.2872 68.2503C43.0085 68.0915 43.2315 67.6946 43.7239 67.6818C44.0677 67.6716 44.4146 67.6972 44.6779 67.5051C44.619 66.8419 43.4885 67.3925 43.5195 66.7216C43.5288 66.5346 43.7301 66.4476 43.95 66.4348C44.8296 66.3887 45.6008 66.5142 45.7898 67.3028C46.1924 67.3233 46.2946 67.2081 46.3008 67.0135C46.307 66.7036 46.3194 66.3989 46.8521 66.4297C47.3725 66.4578 47.3167 66.783 47.3539 67.0749C47.3911 67.3643 47.4654 67.6511 47.5242 67.9404C47.5242 67.9404 47.5459 67.9123 47.5459 67.9123Z" fill="#36265C"/>
<path d="M53.6874 69.9198C52.8976 69.6714 52.0335 69.5178 51.3366 69.1465C50.5468 68.7291 50.6614 68.1556 51.4698 67.7612C51.7671 67.6153 52.1419 67.5768 52.4702 67.4667C52.6653 67.4027 52.845 67.2593 52.7304 67.0801C52.5848 66.8522 52.3029 66.8291 52.1326 67.0442C51.9065 67.3285 51.6928 67.5308 51.3056 67.2516C51.2127 67.1851 51.1632 67.0212 51.1786 66.9111C51.2282 66.5577 51.572 66.4297 51.9313 66.3836C52.9317 66.2504 53.7091 66.4681 53.8733 67.395C54.4586 67.3259 54.3038 67.0186 54.3502 66.7933C54.4431 66.3605 54.8551 66.3631 55.1524 66.5091C55.713 66.7856 55.2949 69.1414 54.6569 69.482C54.0622 69.4896 54.0715 69.1081 54.0529 68.7906C54.0219 68.3117 53.7401 68.1197 53.1888 68.1709C52.9998 68.0941 53.0927 68.3962 53.1175 68.2272C54.4803 68.5166 54.0498 69.2259 53.6874 69.9198Z" fill="#2F1D5C"/>
<path d="M47.5239 67.9404C47.9978 67.4334 48.8341 67.8943 49.3482 67.4872C49.3141 67.3976 49.311 67.3054 49.2553 67.249C48.9146 66.8905 48.1651 67.3873 47.939 66.8393C47.8336 66.5858 48.0969 66.4578 48.3757 66.4424C48.9889 66.404 49.6424 66.3298 50.1101 66.7574C50.488 67.1031 50.5499 67.5538 50.2092 67.9276C49.9769 68.1862 49.5805 68.345 49.2584 68.5498C49.3017 68.619 49.3451 68.6907 49.3947 68.7572C49.6053 69.0389 50.3176 68.6497 50.2991 69.213C50.296 69.295 50.107 69.4486 50.0203 69.4409C49.4969 69.3974 48.7319 69.7175 48.5243 69.1567C48.3292 68.6267 47.654 68.4346 47.5425 67.9148C47.5456 67.9122 47.5239 67.9404 47.5239 67.9404Z" fill="#362659"/>
<path d="M57.1224 68.0121C56.8034 68.3885 57.7388 69.4179 56.5463 69.3923C55.58 69.3718 56.1375 68.3911 55.9888 67.8456C55.9578 67.7278 55.9578 67.5845 56.0074 67.4718C56.1715 67.1031 55.676 66.3861 56.6176 66.4322C57.5281 66.4757 56.9675 67.1517 57.1162 67.5307C57.1596 67.6433 57.1224 67.7791 57.1224 68.0121Z" fill="#51384C"/>
<path d="M53.6875 69.9198C53.638 69.6817 53.48 69.4154 53.5574 69.208C53.892 68.2784 53.5141 68.2067 52.6562 68.6523C52.3867 68.7931 52.0863 68.9724 51.9376 68.6139C51.8013 68.2861 52.2132 68.2375 52.4734 68.1299C54.3101 67.3592 54.2946 68.6293 54.657 69.4819C54.4402 69.7892 54.1335 69.9582 53.6875 69.9198Z" fill="#E1D307"/>
<path d="M44.4427 69.4871C45.3718 69.3872 45.9696 70.1605 47.2921 69.9224C45.8674 71.0055 45.0714 69.8584 44.1484 69.9224C44.2475 69.779 44.3436 69.633 44.4427 69.4871Z" fill="#E3DB0E"/>
<path d="M78.1313 55.8902C78.5525 55.8722 80.6989 57.8132 80.5317 58.0539C80.1383 58.6172 79.7511 58.3561 79.3361 58.0155C78.9552 57.7031 78.6516 57.0297 77.9114 57.6698C77.6543 57.89 77.4096 58.1256 77.5862 58.4482C77.7751 58.7939 78.1499 58.7914 78.4937 58.648C78.8127 58.5123 79.1193 58.2588 79.3268 58.7171C79.5003 59.1063 79.0821 59.2472 78.8003 59.3829C78.2242 59.662 77.6481 59.6517 77.0968 59.2856C76.6013 58.9527 76.4278 58.5327 76.5951 58.0437C76.8366 57.3267 77.9888 56.981 77.8061 56.0669C77.7906 56.0233 78.0384 55.9388 78.1313 55.8902Z" fill="#34255C"/>
<path d="M76.9729 55.9465C76.9513 56.3895 76.6075 56.4945 76.1955 56.6174C74.6407 57.0834 74.5292 57.5443 75.6845 58.5634C76.1367 58.9629 76.6168 59.347 77.0287 59.7721C77.2424 59.9923 77.7937 60.192 77.3043 60.5915C76.753 61.0421 76.5021 60.5607 76.211 60.3252C75.7371 59.9436 75.2787 59.5442 74.8544 59.1242C74.2752 58.5506 73.4699 57.9591 74.0739 57.132C74.6965 56.2691 75.5947 55.6597 76.9729 55.9465Z" fill="#37245C"/>
<path d="M71.5835 62.7219C71.0477 62.9191 70.4128 63.3851 70.0411 62.6477C69.7159 62.0049 70.3198 61.626 70.9579 61.3904C71.7074 61.1138 72.4786 61.3443 72.5096 61.9537C72.5499 62.7552 72.8627 63.0932 73.9405 62.9831C73.2932 64.0509 71.6981 63.9459 71.438 63.846C70.3632 63.4286 71.8065 63.2007 71.8065 62.7731C71.7632 62.6169 71.7322 62.4582 71.5742 62.3455C71.5123 62.471 71.7105 62.5939 71.5835 62.7219Z" fill="#31215C"/>
<path d="M75.3775 61.8564C75.0275 62.2789 74.9253 62.4172 74.8076 62.5453C74.5908 62.7757 74.3616 62.6784 74.1789 62.5248C73.5439 61.9845 72.9307 61.4288 72.2958 60.8911C72.0944 60.7195 71.9984 60.5582 72.2431 60.3815C72.4134 60.2586 72.5776 59.9641 72.8254 60.1203C73.705 60.676 74.5443 61.2829 75.3775 61.8564Z" fill="#483D4C"/>
<path d="M76.4681 61.4186C75.35 61.498 73.2717 60.251 73.281 59.6902C73.2841 59.5673 73.47 59.4316 73.6062 59.3317C73.8571 59.1499 74.0708 59.283 74.2536 59.4367C74.396 59.5545 74.5199 59.6902 74.6562 59.8105C75.2013 60.2945 75.7433 60.7759 76.4681 61.4186Z" fill="#37205C"/>
<path d="M24.9763 59.4827C24.3104 59.6287 24.2516 60.7861 23.1613 60.233C22.6813 59.7157 23.5299 59.3137 23.3565 58.7017C22.8392 58.881 22.8888 60.3123 21.9224 59.2113C20.8167 58.5429 21.5756 57.6493 21.8729 57.0936C22.2136 56.456 22.6658 57.7312 23.3565 57.3804C23.372 57.3574 23.4339 57.2934 23.4525 57.2217C23.5547 56.8478 22.641 56.7147 23.1118 56.2614C23.183 56.1923 23.4246 56.1488 23.4989 56.1948C23.9449 56.4663 24.3724 56.7403 24.4994 57.255C24.5737 57.5622 23.948 58.1409 24.7564 58.1461C25.3852 58.1512 25.3356 57.5699 25.317 57.1397C25.2984 56.6762 25.3139 56.2128 25.3139 55.7237C26.4878 56.3434 26.5838 57.5469 25.6237 58.9731C25.6825 59.3803 25.506 59.5877 24.9763 59.4827Z" fill="#311E5D"/>
<path d="M24.976 59.4826C25.2796 59.3853 25.4964 59.2163 25.6234 58.9705C26.4813 58.9193 27.2773 58.9936 27.745 59.7131C27.6149 60.1791 26.9985 60.1228 26.5185 60.3737C27.2587 60.471 27.5065 59.8258 28.1012 59.9564C28.318 60.133 28.5348 60.3097 28.7516 60.4864C28.7609 61.3596 27.9246 61.6617 27.2091 62.0433C26.4163 62.6655 25.899 63.2493 25.7411 61.6361C25.676 61.0421 24.8707 60.3148 24.976 59.4826Z" fill="#331D5E"/>
<path d="M29.3278 60.955C29.7398 61.1804 30.096 61.4057 29.5818 61.8282C29.1513 62.1841 28.7858 62.5989 28.3336 62.9344C28.0115 63.1776 27.8319 63.8485 27.1845 63.4388C26.3978 62.9395 27.4385 62.7065 27.5314 62.325C27.8597 61.6259 28.315 61.0421 29.3278 60.955Z" fill="#351E5D"/>
<path d="M21.9224 59.2113C22.1949 59.2676 22.3931 59.6082 22.7091 59.4213C22.9476 59.2779 22.8701 59.0705 22.6533 58.8938C22.4334 58.7145 22.2104 58.4226 22.5728 58.2818C23.0002 58.1154 23.4307 58.3407 23.8055 58.566C24.1493 58.7734 24.0099 58.9578 23.8303 59.1883C23.5732 59.5186 23.0033 59.7234 23.1613 60.2356C22.9042 59.7644 21.9657 59.8591 21.9224 59.2113Z" fill="#DBCF13"/>
<path d="M28.0982 59.9564C27.8101 60.1894 27.5035 60.4097 27.2433 60.6606C26.9615 60.932 26.6951 61.1855 26.246 60.8834C25.9518 60.6836 25.7783 60.4276 25.958 60.1126C26.1407 59.7951 26.469 59.6978 26.8314 59.877C27.2247 60.0716 27.4849 59.9436 27.742 59.7106C27.8628 59.7951 27.9805 59.877 28.0982 59.9564Z" fill="#ECDF0C"/>
<path d="M29.3277 60.9551C28.7299 61.4134 28.129 61.8692 27.5313 62.3276C27.4229 62.2328 27.3145 62.1406 27.2061 62.0459C27.7202 61.5261 28.2343 61.0088 28.7485 60.489C28.9405 60.6427 29.1356 60.7989 29.3277 60.9551Z" fill="#DAD403"/>
<path d="M60.9133 53.3346C57.4289 56.3254 53.0959 57.2575 48.2549 56.8094C46.7217 56.6685 45.1514 56.4483 43.8475 55.634C43.6555 55.5188 43.4232 55.4113 43.5594 55.1706C43.6554 55.0016 43.8661 55.0093 44.0581 55.0144C44.3895 55.1347 44.4607 54.9145 44.6094 54.7481C46.5483 52.5946 47.9204 50.226 48.673 47.6116C48.8093 47.1379 48.8557 46.5899 49.5495 46.3671C49.7168 46.3851 49.8376 46.4593 49.9119 46.5822C50.1039 46.9535 50.0451 47.335 49.946 47.7038C49.2646 50.2823 49.7106 52.8225 50.3734 55.4241C51.0238 53.455 50.8256 51.5012 50.7667 49.5551C50.7543 49.1019 50.5004 48.6307 50.9433 48.221C51.9406 47.965 52.049 48.6614 52.2565 49.13C53.133 51.094 54.2852 52.9326 55.9051 54.7967C55.1927 52.9198 54.9325 51.135 53.9662 49.5193C53.8299 49.2888 53.7896 49.0302 53.9507 48.7818C54.3378 48.5437 54.6414 48.7613 54.9077 48.9406C56.7661 50.2055 58.5222 51.5729 60.5385 52.6791C60.7956 52.8225 60.9536 53.0504 60.9133 53.3346Z" fill="#301565"/>
<path d="M61.1519 35.1823C64.3111 37.5176 65.4881 40.5699 65.7823 43.9397C65.4819 44.124 65.1319 44.2444 64.7726 44.1727C61.8519 43.594 58.8848 43.6119 55.9145 43.681C55.7627 43.6836 55.6172 43.6222 55.4747 43.5786C55.326 43.5223 55.2238 43.4275 55.1712 43.2995C55.2083 42.8258 55.6574 42.667 56.0911 42.5492C58.5596 41.8784 60.5511 40.5084 62.7718 39.4662C60.7555 39.8196 58.7919 40.2831 56.9583 41.0743C56.4658 41.2869 55.9981 41.5993 55.3756 41.4507C55.2455 41.3842 55.1712 41.2894 55.1526 41.1639C56.9335 39.2332 58.8259 37.3742 60.5666 35.4179C60.7338 35.2899 60.9228 35.2054 61.1519 35.1823Z" fill="#301565"/>
<path d="M50.3241 31.3848C52.0988 31.4258 53.824 31.6972 55.5089 32.1479C56.116 32.3118 56.7013 32.5089 57.1195 32.934C57.2093 33.3386 56.9274 33.4666 56.5124 33.4948C55.8062 33.3053 55.6483 33.8174 55.3757 34.1349C54.078 35.6278 53.1271 37.2564 52.5789 39.0437C52.328 39.8656 52.0462 40.6825 51.6002 41.4455C51.4081 41.7759 51.1108 42.2368 50.671 41.5608C50.4356 40.6261 50.829 39.7146 50.8104 38.7825C50.7701 36.67 50.9095 34.5523 50.2343 32.4782C50.1228 32.1274 49.9834 31.7305 50.3241 31.3848Z" fill="#2E1965"/>
<path d="M34.8442 43.9064C35.0115 42.3111 35.2004 40.721 36.1141 39.2665C36.7274 38.9567 37.226 39.3049 37.6813 39.52C40.9644 41.0769 44.1236 42.8437 47.9394 43.4506C48.0881 43.4736 48.1779 43.6042 48.2584 43.7143C48.2584 43.8705 48.1779 43.9832 48.0137 44.06C46.7315 44.4825 45.4709 44.0856 44.2382 43.9141C41.7294 43.5684 39.2547 43.6401 36.7676 43.9832C36.1296 44.0728 35.4637 44.2956 34.8442 43.9064Z" fill="#311665"/>
<path d="M44.1266 32.3963C45.954 31.8765 47.8186 31.5257 49.7667 31.5334C50.4543 32.0097 50.3831 32.6575 50.2902 33.2823C49.9309 35.7354 49.4291 38.1808 49.8132 40.6672C49.7853 40.8822 49.7079 41.0845 49.5561 41.2612C48.7446 41.5685 48.6858 40.9437 48.6022 40.6262C47.8743 37.8505 46.3814 35.3974 44.2134 33.208C43.978 32.975 43.8758 32.6882 44.1266 32.3963Z" fill="#301365"/>
<path d="M65.7673 44.1471C65.7704 45.5324 65.4576 46.869 64.9311 48.1801C64.801 48.5053 64.739 48.8356 64.2311 48.8868C63.6674 49.2428 63.2802 48.8868 62.8683 48.6538C60.6104 47.3786 58.2472 46.2903 55.6208 45.6092C55.1964 45.4991 54.3973 45.4889 54.7938 44.7617C55.2181 44.5696 55.692 44.5184 56.1411 44.5875C58.7769 44.9895 61.3476 44.5773 63.9276 44.2188C64.5377 44.1369 65.151 44.1087 65.7673 44.1471Z" fill="#2C1565"/>
<path d="M35.8134 48.7613C35.3519 47.248 34.7634 45.75 34.8966 44.1548C37.2908 44.206 39.623 44.736 42.0172 44.8026C42.841 44.9127 43.7578 44.6182 44.4764 45.1841C44.6127 45.645 44.1512 45.7987 43.8136 45.8934C41.4659 46.5566 39.6013 47.8907 37.52 48.9226C36.8819 49.235 36.3058 49.3784 35.8134 48.7613Z" fill="#311666"/>
<path d="M39.5332 53.0683C37.9041 52.464 37.52 50.9942 36.4205 50.0212C36.0984 49.0097 37.1793 49.0456 37.7864 48.9099C39.7624 48.4643 41.7137 47.9906 43.4977 47.1277C44.6003 46.595 45.6379 45.9779 46.7529 45.4633C47.2392 45.2379 47.6914 44.9332 48.3077 45.0407C48.9024 45.4581 48.3542 45.7168 48.0723 45.9523C47.6387 46.3108 47.1587 46.6411 46.6507 46.9228C44.2658 48.2415 42.361 49.9316 40.8124 51.9135C40.5058 52.3053 40.1558 52.6714 39.7346 52.9864C39.6664 53.0171 39.5983 53.0427 39.5332 53.0683Z" fill="#301765"/>
<path d="M56.4346 33.4052C56.7691 33.354 56.9797 33.1798 57.1191 32.934C58.804 33.2643 60.0429 34.1426 61.1486 35.1823C61.0402 35.2796 60.9287 35.3743 60.8203 35.4716C58.7235 37.1847 56.1187 38.4061 54.1488 40.2446C53.8019 40.5673 53.4241 41.1204 52.6715 40.7286C52.5476 40.4136 52.6776 40.1217 52.8914 39.8861C54.4121 38.2115 55.0563 36.2475 55.6882 34.2732C55.8028 33.9275 55.8368 33.4871 56.4346 33.4052Z" fill="#301665"/>
<path d="M36.3647 38.5419C37.3868 37.4177 37.935 35.9863 39.5239 35.2335C39.5859 35.2642 39.6478 35.295 39.7098 35.3231C40.5274 36.2424 41.3203 37.1796 42.1318 38.104C43.5194 39.6813 45.3808 40.7824 47.2856 41.863C47.8215 42.1677 48.4843 42.3982 48.5555 43.0511C48.4812 43.1664 48.3728 43.2432 48.2179 43.279C46.9883 43.2457 46.2016 42.4775 45.2941 41.9782C43.0796 40.7594 40.6947 39.9656 38.1023 39.5175C37.4116 39.392 36.4917 39.4125 36.3647 38.5419Z" fill="#311766"/>
<path d="M44.1015 55.1271C43.5347 55.1296 43.7236 55.3934 43.8475 55.6341C42.1131 55.1194 40.5676 54.387 39.5331 53.0683L39.5083 53.1016C41.5989 51.7112 43.8228 50.4513 45.6408 48.7895C45.8979 48.5539 46.2882 48.1698 46.7713 48.6179C46.0001 50.8226 45.6935 53.1554 44.1015 55.1271Z" fill="#2D1264"/>
<path d="M54.6849 44.9281C57.3516 45.8217 60.04 46.6719 62.4683 47.9957C63.0382 48.3056 63.3355 49.0174 64.2306 48.8919C64.2306 48.9688 64.2337 49.0456 64.2368 49.1224C63.4501 49.9162 62.493 49.5372 61.5979 49.3529C59.4732 48.9227 57.5313 48.0725 55.4809 47.4759C54.9575 47.3248 54.5486 47.0432 54.2079 46.6898C53.7526 46.1546 53.0991 45.8525 52.3805 45.622C52.1885 45.5324 52.0368 45.4095 51.9283 45.2507C51.5598 44.5645 52.1792 44.4313 52.7367 44.2649C53.4956 44.2572 54.1708 44.4339 54.6849 44.9281Z" fill="#FBFBFC"/>
<path d="M55.2736 47.2198C55.9209 47.1123 56.4537 47.3376 57.0143 47.5706C58.7921 48.3158 60.6845 48.8253 62.6172 49.1941C63.1127 49.2888 63.7229 49.4706 64.237 49.1173C63.9211 50.8354 62.6389 52.0441 61.1212 53.1246C59.3279 51.2323 57.674 49.2427 55.4316 47.6731C55.2736 47.5604 55.1993 47.4016 55.2736 47.2198Z" fill="#301665"/>
<path d="M54.6852 44.9281C54.0534 44.7565 53.4215 44.585 52.7897 44.4108C52.1641 44.5747 51.5663 44.6874 51.588 43.8706C52.0154 43.4404 52.641 43.5556 53.1954 43.4711C53.8923 43.425 54.5799 43.2842 55.2892 43.3431C58.82 43.1459 62.3168 43.3635 65.7826 43.9422C65.7795 44.0114 65.7734 44.0805 65.7672 44.1497C62.7504 44.8948 59.6873 45.2635 56.5312 44.946C55.9241 44.882 55.3016 44.9307 54.6852 44.9281Z" fill="#FCFCFD"/>
<path d="M39.5236 35.2309C40.4373 33.9097 42.1625 33.4385 43.5439 32.6089C44.2005 32.7343 44.3739 33.2311 44.4854 33.6382C45.0367 35.6253 45.7986 37.5381 47.0221 39.3151C47.2017 39.5763 47.2389 39.8759 47.1119 40.173C46.8734 40.5058 46.5699 40.3727 46.3716 40.1832C44.3677 38.2499 41.8311 36.8211 39.502 35.1977L39.5236 35.2309Z" fill="#2C1465"/>
<path d="M55.2735 47.2198C57.6057 48.9277 59.8047 50.7279 61.1211 53.1246C61.0498 53.1937 60.9817 53.2629 60.9104 53.332C58.5751 51.7854 56.2398 50.2388 53.9076 48.6947C53.0496 48.4873 52.9505 47.7729 52.5231 47.2761C52.3249 46.7051 51.8696 46.2595 51.4639 45.7884C51.4019 45.6783 51.3678 45.5605 51.3647 45.4376C51.3833 45.3147 51.4391 45.2046 51.532 45.1073C51.7457 44.9972 51.9501 45.0381 52.1545 45.1252C52.266 45.2251 52.3806 45.3249 52.4921 45.4273C53.1333 45.7525 53.7372 46.1238 54.3722 46.4542C54.6757 46.7102 54.9761 46.9637 55.2735 47.2198Z" fill="#FBFBFC"/>
<path d="M49.4476 40.767C48.9025 38.1424 49.4538 35.5664 49.9432 32.9878C50.0392 32.486 50.0454 31.9994 49.7666 31.5334C49.9524 31.4822 50.1383 31.4335 50.3241 31.3823C51.6497 34.8648 51.3803 38.4061 50.9157 41.9552C51.2874 42.2804 51.1294 42.5467 50.7856 42.7976C50.4945 42.9282 50.2033 43.046 49.8905 42.8335C49.1843 42.2292 49.6365 41.4507 49.4476 40.767Z" fill="#FAFAFB"/>
<path d="M41.8933 45.1252C39.5456 44.8845 37.1266 44.9844 34.8966 44.1573C34.844 44.101 34.7882 44.0498 34.748 43.9883C34.7418 43.9781 34.8099 43.9345 34.844 43.9089C37.551 43.5684 40.2394 43.0818 43.0083 43.4045C44.7211 43.6042 46.4431 43.7578 48.1621 43.932C48.732 44.2034 48.5431 44.4441 48.0909 44.6233C47.6882 44.7821 47.2453 44.864 46.8179 44.969C46.5175 45.0407 46.2109 45.0945 45.898 45.1099C44.5662 45.2481 43.2282 44.841 41.8933 45.1252Z" fill="#FBFBFC"/>
<path d="M46.92 40.3139C47.143 39.4868 46.2727 39.0284 45.9568 38.3831C45.1918 36.8135 44.4608 35.2413 44.1542 33.5564C44.0891 33.1979 44.0706 32.7831 43.5471 32.6115C43.7422 32.5398 43.9343 32.4707 44.1294 32.399C44.2564 33.2593 45.2134 33.6562 45.7183 34.3092C47.1213 36.1247 48.3014 38.0016 48.8124 40.1423C48.9146 40.5725 48.9642 41.0564 49.3761 41.4073C49.6642 41.7401 49.6022 42.1166 49.5867 42.4904C49.5186 42.6056 49.4102 42.6824 49.2615 42.7209C48.0846 42.1806 47.5457 41.2178 46.92 40.3139Z" fill="#FBFAFC"/>
<path d="M46.0346 44.9153C46.1988 44.8256 46.366 44.7386 46.5302 44.6489C47.2921 44.9895 48.0045 44.2623 48.7633 44.5824C48.9522 44.7411 48.9739 44.9255 48.8779 45.1252C48.7571 45.243 48.6177 45.2609 48.4629 45.1764C46.7687 45.5657 45.4369 46.508 43.9873 47.2505C41.9587 48.2902 39.7627 48.8842 37.4522 49.2453C36.8885 49.3349 36.2721 49.3144 36.4208 50.0237C36.0212 49.6678 35.95 49.2069 35.8137 48.7639C36.3279 49.3451 36.777 48.9431 37.2446 48.7024C39.5738 47.4938 41.7295 46.0266 44.4519 45.4043C44.9072 45.0766 45.4523 44.9588 46.0346 44.9153Z" fill="#FBFAFC"/>
<path d="M36.3647 38.5418C36.4174 38.8388 36.6621 38.9745 36.9873 39.0104C41.0354 39.4406 44.4671 41.023 47.7347 42.9205C47.936 43.0382 48.1776 43.1125 48.4006 43.2072C48.921 43.3071 49.0108 43.4812 48.54 43.7552C48.3944 43.768 48.2613 43.7373 48.1467 43.6579C44.2008 43.2943 40.9982 41.5428 37.7616 39.8554C37.2506 39.5891 36.7798 39.2331 36.1077 39.2664C36.1324 39.0078 36.0674 38.7313 36.3647 38.5418Z" fill="#FAFAFB"/>
<path d="M33.6826 2.94404C33.4442 2.17073 34.0481 2.18865 34.5375 2.13232C35.2003 2.0555 35.6711 2.31156 35.7051 2.84929C35.7485 3.53554 35.1105 3.77368 34.4136 3.81721C33.4968 3.87611 33.8251 3.20266 33.6826 2.94404Z" fill="#32205C"/>
<path d="M69.1245 3.80691C69.1648 5.19989 68.1922 6.46228 67.1361 6.41107C65.9529 6.35217 65.6122 5.62496 65.5596 4.81324C65.4729 3.4561 66.4485 2.23212 67.5263 2.30126C68.6723 2.37295 69.0285 3.05664 69.1245 3.80691Z" fill="#2F1463"/>
<path d="M27.2775 4.25241C27.8071 4.71332 28.377 5.13583 28.281 5.78623C28.2655 5.89121 27.4602 6.0807 27.3549 5.9834C26.7881 5.45591 27.3425 4.8516 27.2775 4.25241Z" fill="#442E53"/>
<path d="M42.4259 2.46004C42.8317 3.01057 43.4449 3.51246 43.067 4.21407C43.0082 4.32418 42.3485 4.38563 42.2339 4.27809C41.568 3.65073 42.4662 3.08995 42.4259 2.46004Z" fill="#3C2C53"/>
<path d="M58.9715 2.42413C59.0613 1.98627 58.8104 1.41268 59.6962 1.52535C60.3962 1.61497 61.0157 1.80446 60.9258 2.55216C60.8484 3.20513 60.325 3.36901 59.6312 3.37157C58.6091 3.37669 59.1171 2.73397 58.9715 2.42413Z" fill="#311C5F"/>
<path d="M54.0594 21.4676C53.8085 21.7595 53.4431 21.7006 53.09 21.6852C52.7183 21.5085 52.4396 21.4855 52.4365 21.9464C52.4303 22.5251 52.4148 23.1064 52.4024 23.6851C52.1856 23.8592 51.9688 23.8438 51.752 23.6851C51.3339 23.0603 51.4515 22.3996 51.5569 21.7416C51.6374 21.4753 52.1082 21.0425 51.21 21.1885C51.9254 20.2436 51.0954 18.8634 52.4829 18.108C52.5758 18.108 52.6688 18.1055 52.7617 18.1055C53.1891 18.6458 53.4431 19.1272 53.1117 19.8569C52.836 20.451 53.8488 20.871 54.0594 21.4676Z" fill="#636361"/>
<path d="M52.4797 18.108C52.2164 18.7123 51.3616 19.1656 52.2722 20.0003C52.7213 20.41 51.3585 20.6072 51.2532 21.168C51.0704 21.3063 50.8691 21.3191 50.6492 21.2422C50.4727 20.7813 50.1134 20.3537 50.163 19.8518C50.2528 18.9684 49.6953 20.2129 49.6736 19.7443C49.4506 19.6828 49.2802 19.5957 49.3917 19.3704C49.2802 19.0555 49.144 18.7456 49.0696 18.423C49.0201 18.213 49.1006 17.9928 49.3794 17.9083C49.8656 17.7598 49.6922 18.1618 49.8254 18.2617C50.7359 18.9402 51.6279 18.5741 52.4797 18.108Z" fill="#999897"/>
<path d="M52.4703 15.5704C52.5323 15.7881 52.4734 15.9622 52.2195 16.0672C51.7611 16.1952 51.9128 16.6945 51.5133 16.861C51.4637 16.8584 51.408 16.861 51.3615 16.8507C50.7049 16.692 49.9461 17.2425 49.3514 16.6459C49.1996 16.4922 49.1532 16.2567 49.3762 16.2439C50.2868 16.1926 50.7111 14.9891 51.8664 15.5474C52.0181 15.6216 52.2659 15.5678 52.4703 15.5704Z" fill="#979695"/>
<path d="M48.1776 22.1513C48.1776 22.0668 48.1652 21.9823 48.1466 21.8978C48.4904 21.4241 48.8157 21.4088 49.1223 21.9234C49.5745 22.7403 50.0762 23.552 49.3391 24.438C49.2648 24.461 49.1966 24.4918 49.1316 24.5302C48.7444 24.5942 48.4904 24.438 48.2891 24.1896C48.0506 23.5213 48.159 22.835 48.1776 22.1513Z" fill="#F3F3F3"/>
<path d="M49.3361 24.4404C49.4569 23.5903 48.887 22.7811 49.1193 21.9259C49.3361 21.8952 49.5529 21.867 49.7697 21.8363C50.067 21.8849 50.2126 22.0565 50.3117 22.2716C50.4573 23.0756 50.6307 23.8822 49.7108 24.4891C49.5869 24.4737 49.4599 24.4558 49.3361 24.4404Z" fill="#989491"/>
<path d="M49.3917 19.3679C49.5435 19.4728 49.6953 19.5804 49.847 19.6854C50.3395 20.2871 50.4634 20.9324 50.1629 21.6212C50.0484 21.7416 49.8997 21.7825 49.72 21.7416C49.3019 21.2371 49.432 20.5458 48.667 20.1053C48.3232 19.9082 49.1192 19.6214 49.3917 19.3679Z" fill="#989491"/>
<path d="M49.7231 21.744C49.8223 21.7287 49.9183 21.7056 50.0112 21.6698C50.2032 21.5238 50.293 21.2754 50.6182 21.2652C50.8289 21.2319 51.0426 21.1986 51.2532 21.1653C51.535 21.2319 51.8138 20.94 52.077 21.1653C52.0956 21.1807 51.9315 21.342 51.8509 21.4342C51.4979 22.1153 51.0178 22.5839 50.0236 22.164C49.94 22.0539 49.8563 21.9438 49.7696 21.8337C49.7696 21.8362 49.7231 21.744 49.7231 21.744Z" fill="#3F3838"/>
<path d="M51.5136 16.8611C51.8729 16.6716 51.0211 15.7472 52.2198 16.0673C52.2167 16.3105 52.2167 16.5538 52.2136 16.7945C52.195 16.8764 52.1764 16.9558 52.1547 17.0352C51.7211 17.2733 51.3587 17.6292 50.6216 17.6805C50.9871 17.3476 51.2503 17.1043 51.5136 16.8611Z" fill="#BFBFBF"/>
<path d="M49.7544 13.9444C50.2469 13.7703 50.7145 13.6551 50.9035 14.2517C50.4048 14.3234 50.8353 14.8919 50.284 14.9841C50.1075 14.6409 49.9309 14.2927 49.7544 13.9444Z" fill="#EBEBEB"/>
<path d="M50.956 26.2739C51.2595 26.5351 51.563 26.7988 51.8697 27.06C51.8666 27.1445 51.8635 27.229 51.8604 27.3109C51.8294 28.3659 50.86 28.896 49.9029 28.896C49.2401 28.896 48.8344 28.033 48.791 27.334C49.4507 26.8961 49.4631 25.5492 50.956 26.2739Z" fill="#9D9C9B"/>
<path d="M52.7955 26.5018C52.8481 26.7629 52.9411 27.0216 52.9473 27.2827C52.9566 28.0612 54.1149 27.9588 54.3472 28.5579C53.6132 29.4414 52.5508 28.9497 51.5349 29.0752C52.876 28.4658 52.5849 27.7744 51.8973 27.0446C52.0429 26.7322 51.346 26.4326 51.7858 26.2022C51.953 26.1151 52.5601 26.1509 52.7955 26.5018Z" fill="#9D9C9B"/>
<path d="M46.9511 27.2597C46.8675 27.1087 46.7839 26.9576 46.7034 26.8091C47.0131 25.9052 47.6511 26.2841 48.2582 26.5351C47.7998 26.7502 47.9268 27.6848 46.9511 27.2597Z" fill="#CCC9C9"/>
<path d="M53.1149 16.0133V15.916C52.9693 15.1785 53.5237 15.3962 53.8737 15.5908C54.3631 15.8622 54.8091 16.1951 55.252 16.5254C55.6206 16.5946 55.9644 16.6791 55.89 17.0913C55.1157 17.1195 54.5087 16.5075 53.5919 16.8173C53.1273 16.9735 53.5516 16.19 53.1149 16.0133Z" fill="#4C4C48"/>
<path d="M50.0236 22.1666C50.77 22.1564 51.2687 21.7262 51.851 21.4369C51.8819 22.1897 51.9098 22.94 51.9408 23.6928C51.9315 24.5378 51.0519 23.662 51.024 23.9616C50.9837 24.4149 51.1758 24.8835 50.9837 25.3444C50.9156 25.5083 50.7793 25.6363 50.6306 25.7566C49.59 25.6977 49.8563 24.9936 49.7139 24.4891C50.0267 23.7363 50.0143 22.9502 50.0236 22.1666Z" fill="#DFDFDE"/>
<path d="M50.6274 25.7566C51.1044 24.8015 50.1505 23.7004 50.9124 22.8554C51.7734 22.8119 50.581 24.0947 51.9376 23.6902C52.0924 23.6876 52.2473 23.685 52.3991 23.6825C52.7676 24.2356 52.7119 24.8629 52.8544 25.457C52.2132 25.5517 51.5752 25.6465 50.9341 25.7412C50.835 25.7489 50.7327 25.754 50.6274 25.7566Z" fill="#9B9996"/>
<path d="M48.4658 24.2331C48.6888 24.333 48.9087 24.4328 49.1317 24.5327C48.5928 24.7504 48.0539 24.9654 47.5181 25.1831C47.5366 24.9194 47.4468 24.6198 47.8588 24.4892C48.026 24.3509 48.1158 24.0795 48.4658 24.2331Z" fill="#B8B6B5"/>
<path d="M48.4655 24.2331C48.2642 24.3176 48.0597 24.4046 47.8584 24.4891C47.9699 23.7107 47.3443 22.8631 48.1805 22.1513C48.8495 22.7914 48.3664 23.5391 48.4655 24.2331Z" fill="#675D59"/>
<path d="M55.2489 16.5281C54.4901 16.6587 54.041 16.3642 53.7189 15.8162C53.4246 15.3169 53.2605 15.6523 53.1118 15.9161C52.7711 15.7112 52.6596 15.4296 52.9322 15.1658C53.2078 14.8995 53.4649 15.1556 53.7034 15.2913C54.2113 15.0762 54.5892 15.2887 54.9547 15.5499C55.0569 15.5397 55.156 15.5192 55.252 15.4833C55.252 15.8316 55.252 16.1798 55.2489 16.5281Z" fill="#A09A9A"/>
<path d="M54.9544 15.55C54.5146 15.5423 54.0686 15.5526 53.7031 15.2914C53.7217 15.1275 53.7434 14.9662 53.762 14.8023C54.8708 14.2774 54.781 15.0584 54.9544 15.55Z" fill="#E6E6E6"/>
<path d="M46.189 69.4256C45.8638 68.8316 45.0182 68.9826 44.6094 68.5653C45.0151 68.2016 45.5045 67.8022 46.031 68.0122C46.7062 68.281 46.2168 68.8828 46.189 69.4256Z" fill="#D3C115"/>
<path d="M71.5835 62.7219C71.565 62.2814 70.5212 62.727 70.7752 62.0894C70.8216 61.9742 71.1251 61.8308 71.2583 61.8589C71.8251 61.9818 72.141 62.2584 71.8065 62.7731L71.6765 62.8115L71.5835 62.7219Z" fill="#C4B21F"/>
<path d="M51.5319 45.3685C51.5443 45.4427 51.5536 45.517 51.5567 45.5912C51.885 46.1776 52.4115 46.6565 52.7956 47.2121C53.1641 47.7063 53.5358 48.2031 53.9044 48.6973C55.165 50.8738 55.7999 53.2091 56.3977 55.5675C54.2637 53.7725 53.0186 51.5524 51.9129 49.2606C51.7332 48.8842 51.7518 48.4207 51.25 48.1775C50.7638 47.8139 50.7204 47.2992 50.5779 46.8152C50.6864 46.2365 50.1412 45.3659 51.5319 45.3685Z" fill="#FBFAFC"/>
<path d="M50.9188 46.8997C51.1913 47.2966 51.3059 47.7217 51.2564 48.1749C50.8383 48.4284 51.0582 48.6999 51.1077 49.043C51.467 51.5985 51.4112 54.1386 50.3117 56.6071C49.4848 53.583 48.6888 50.5666 49.5808 47.4503C49.6737 47.1251 49.6613 46.7819 49.6985 46.4465C49.6768 46.0035 49.5467 45.5195 50.2962 45.3685C50.9776 45.7474 50.6183 46.4158 50.9188 46.8997Z" fill="#FBFBFC"/>
<path d="M44.1018 55.1271C45.0248 52.9275 45.5792 50.6306 46.6756 48.4771C46.6787 48.2979 46.7716 48.1494 46.9017 48.0111C47.2951 47.6833 47.4995 47.2608 47.7349 46.8537C48.2304 46.4389 48.5371 45.7833 49.4662 45.9319C49.5901 46.1085 49.587 46.2801 49.4384 46.4491C48.5185 49.2402 47.5738 52.021 45.3841 54.3666C45.0434 54.7302 44.8049 55.1937 44.3775 55.4574C44.0275 55.6776 44.2102 55.2423 44.1018 55.1271Z" fill="#FBFAFB"/>
<path d="M49.4379 46.449C49.4348 46.28 49.4317 46.1084 49.4255 45.9394C49.3511 45.5988 48.9299 45.4606 48.7658 45.1712C48.7503 45.0176 48.7317 44.8639 48.7162 44.7103C48.6295 44.3621 48.4065 44.0343 48.5025 43.6604C49.1529 43.4044 48.2826 43.3813 48.4003 43.2046C48.4251 43.156 48.4684 43.115 48.5211 43.0869C48.6635 42.8846 48.7874 42.6669 49.0693 42.567C49.1839 42.6669 49.3016 42.7668 49.4162 42.8666C49.6144 42.8385 49.8095 42.8487 50.0047 42.8794C50.2277 42.7873 50.4507 42.6925 50.6737 42.6003C50.9586 42.7258 51.2435 42.8513 51.4635 43.051C51.7143 43.2943 52.0488 43.5094 51.9033 43.896C51.7329 44.6104 52.4639 44.2673 52.7829 44.4081C53.1112 44.9766 51.3612 44.2776 52.1448 45.1226C51.9435 45.1354 51.7391 45.1482 51.5378 45.161C51.1073 45.2736 50.7449 45.5835 50.2338 45.4708C50.0511 45.796 49.8715 46.1212 49.6887 46.4438C49.6113 46.4464 49.5246 46.449 49.4379 46.449Z" fill="#3A256C"/>
<path d="M51.913 43.8987C51.6931 43.6427 51.4763 43.384 51.2564 43.128C50.9126 41.9859 52.0028 41.5148 52.7771 40.8926C54.9421 39.0054 57.3858 37.3922 59.9132 35.8583C60.1826 35.6945 60.4056 35.4102 60.8238 35.4743C59.1048 37.4357 57.5593 39.5124 55.2642 41.082C55.1001 41.2178 54.9576 41.3688 54.8213 41.525C54.9979 41.5788 55.0846 41.3714 55.258 41.4226C57.9619 40.2575 60.7463 39.2922 63.856 39.1155C61.1087 40.6186 58.4854 42.2804 55.3231 43.1638C54.685 43.6017 53.8643 43.4045 53.1519 43.5915C52.8824 44.0805 52.2444 43.5735 51.913 43.8987Z" fill="#FCFCFD"/>
<path d="M53.1516 43.5889C53.7649 43.0588 54.6228 43.3917 55.3228 43.1613C55.3197 43.2227 55.3073 43.2816 55.2856 43.3405C54.6321 43.763 53.9197 43.8347 53.1516 43.5889Z" fill="#B2ADC1"/>
<path d="M55.2581 41.4199C54.9452 41.7554 54.6324 42.0908 54.3196 42.4262C54.1926 42.3136 54.0625 42.2009 53.9355 42.0882C54.1152 41.5505 54.6015 41.2458 55.2612 41.0793C55.2612 41.1946 55.2612 41.3072 55.2581 41.4199Z" fill="#B6B6C7"/>
<path d="M52.7741 40.8926C52.517 41.7529 51.337 42.1857 51.2533 43.128C51.0613 42.9539 50.8693 42.7772 50.6772 42.6031C50.9777 42.4443 50.9405 42.1985 50.9157 41.9578C51.8232 40.8158 51.9905 39.4612 52.4705 38.1988C53.2603 36.1298 54.5488 34.3246 56.4319 32.5654C56.4319 32.9956 56.4319 33.203 56.4319 33.4078C55.6143 36.0351 54.4745 38.5573 52.7741 40.8926Z" fill="#F9F9FB"/>
<path d="M48.5027 43.6631C48.7567 43.9883 48.8001 44.3417 48.7164 44.713C47.9948 44.5542 47.236 45.2559 46.5298 44.6515C47.1028 44.4569 47.9081 44.6183 48.162 43.932C48.1589 43.8424 48.1527 43.7528 48.1496 43.6631C48.2673 43.6606 48.385 43.6606 48.5027 43.6631Z" fill="#8F89AF"/>
<path d="M50.0114 42.8821C49.807 43.0742 49.6026 43.3225 49.4229 42.8693C49.4074 42.3828 49.392 41.8937 49.3765 41.4072C49.4012 41.1947 49.4229 40.9821 49.4477 40.7696C49.9402 41.4174 49.7698 42.1856 50.0114 42.8821Z" fill="#52527F"/>
<path d="M46.0343 44.9153C45.6286 45.3506 44.9751 45.2328 44.4516 45.4018C43.6618 44.9127 42.7234 45.3685 41.8933 45.1227C43.2654 44.923 44.6375 44.7565 46.0343 44.9153Z" fill="#593681"/>
<path d="M48.7694 45.1739C49.3331 45.2276 50.1291 45.1457 49.4291 45.9421C48.9026 46.2826 48.3729 46.6257 47.8464 46.9663C47.6265 47.4605 46.9699 47.755 46.9358 48.3311C46.8491 48.3798 46.7624 48.431 46.6787 48.4796C44.8452 49.6114 43.4731 51.1811 41.5032 52.1874C40.8528 52.5203 40.2489 52.907 39.5117 53.1016C41.4165 50.1287 44.2164 47.842 47.5429 45.9574C47.9145 45.7474 48.376 45.6092 48.472 45.1739C48.565 45.1739 48.6672 45.1713 48.7694 45.1739Z" fill="#FAF9FB"/>
<path d="M49.0728 42.5697C49.0263 42.8411 49.1719 43.2534 48.5245 43.0895C47.5117 42.1805 46.1768 41.6146 45.0278 40.849C42.6955 39.2947 40.7412 37.4843 39.5054 35.1977C42.4725 36.4114 44.7738 38.2858 46.9202 40.3138C48.0352 40.808 48.2768 41.8681 49.0728 42.5697Z" fill="#FBFAFC"/>
<path d="M54.3751 46.4542C53.4367 46.5029 53.0062 45.9139 52.4951 45.4274C53.3159 45.5247 53.9477 45.8601 54.3751 46.4542Z" fill="#B1B1C3"/>
<path d="M50.2434 45.4735C50.646 45.2814 51.0518 45.0945 51.5474 45.1636C51.5319 45.2302 51.5257 45.2993 51.5319 45.3685C50.3054 45.5989 51.2934 46.4362 50.9186 46.9023C50.3673 46.5284 50.7947 45.8422 50.2434 45.4735Z" fill="#444476"/>
<path d="M52.7989 47.2122C52.2011 46.7693 51.4454 46.4082 51.56 45.5939C52.2228 45.9985 52.6595 46.5286 52.7989 47.2122Z" fill="#B0B0C2"/>
<path d="M50.6184 21.2653C50.4171 21.401 50.2126 21.5341 50.0113 21.6698C50.0392 21.0041 50.0795 20.3383 49.8472 19.6854C49.937 19.4933 50.0237 19.3013 50.2034 18.912C50.4264 19.798 50.8011 20.4868 50.6184 21.2653Z" fill="#626060"/>
<path d="M51.2811 27.5619C51.1325 28.0946 50.5099 28.1022 50.2126 28.1406C49.6551 28.2149 49.5777 27.6592 49.5095 27.3238C49.4414 26.9884 49.8038 26.7912 50.2064 26.8014C50.8196 26.8219 50.9993 27.2521 51.2811 27.5619Z" fill="#6A6967"/>
<path d="M46.9327 48.3286C46.3535 47.4708 47.4716 47.3863 47.8433 46.9638C47.9052 47.586 47.4809 47.9855 46.9327 48.3286Z" fill="#B5ACCC"/>
</g>
<defs>
<filter id="filter0_d_51_1792" x="0" y="0" width="100" height="90" filterUnits="userSpaceOnUse" color-interpolation-filters="sRGB">
<feFlood flood-opacity="0" result="BackgroundImageFix"/>
<feColorMatrix in="SourceAlpha" type="matrix" values="0 0 0 0 0 0 0 0 0 0 0 0 0 0 0 0 0 0 127 0" result="hardAlpha"/>
<feOffset dy="4"/>
<feGaussianBlur stdDeviation="2"/>
<feComposite in2="hardAlpha" operator="out"/>
<feColorMatrix type="matrix" values="0 0 0 0 0 0 0 0 0 0 0 0 0 0 0 0 0 0 0.25 0"/>
<feBlend mode="normal" in2="BackgroundImageFix" result="effect1_dropShadow_51_1792"/>
<feBlend mode="normal" in="SourceGraphic" in2="effect1_dropShadow_51_1792" result="shape"/>
</filter>
</defs>
</svg>
